<?xml version="1.0" standalone="no"?>
<!DOCTYPE svg PUBLIC "-//W3C//DTD SVG 1.1//EN" "http://www.w3.org/Graphics/SVG/1.1/DTD/svg11.dtd">
<svg xmlns="http://www.w3.org/2000/svg"><metadata>This SVG WebFont was generated by YouWorkForThem.
Copyright Â© 2016 by Deni Anggara. All rights reserved.</metadata><defs><font horiz-adv-x="0" id="ywftsvg"><font-face ascent="1638" bbox="-1098 -510 3047 2243" cap-height="1495" descent="-410" font-family="" font-stretch="normal" font-weight="600" panose-1="0 0 7 0 0 0 0 0 0 0" underline-position="0" underline-thickness="0" unicode-range="U+0020-FB02" units-per-em="2048" x-height="1010"/><missing-glyph d="M920 1776v-2243h-711v2243h711zM748 1626h-371v-74h145v-84h-147v-73h373v73h-150v84h150v74zM598 1335h-223v-231h373v76h-150v155zM522 1260v-80h-73v80h73zM748 1042h-373v-73h147v-84h-147v-74h223v158h150v73zM748 907h-74v-147h-299v-76h373v223zM748 635h-226 v-127h76v53h76v-106h-225v180h-74v-254h373v254zM748 246h-373v-254h373v254zM674 172v-104h-225v104h225zM748 -59h-373v-74h157l-157 -105v-73h373v73h-230l158 105h72v74z" horiz-adv-x="1122"/><glyph d="M416 1010h702v-1010h-241v809h-461v-809h-244v809h-143v201h143v129q0 195 97.5 289t267.5 94q61 0 122 -11v-215q-139 27 -191 -17t-52 -140v-129zM999 1206q-63 0 -107 44t-44 109.5t44 109.5t107 44q66 0 110 -44t44 -109.5t-44 -109.5t-110 -44z" glyph-name="uniFB01" horiz-adv-x="1265" unicode="fi"/><glyph d="M864 1522h244v-1522h-244v809h-448v-809h-244v809h-143v201h143v129q0 195 97.5 289t267.5 94q61 0 122 -11v-215q-139 27 -191 -17t-52 -140v-129h448v512z" glyph-name="uniFB02" horiz-adv-x="1253" unicode="fl"/><glyph d="M1380 1296q-139 27 -191 -17t-52 -140v-129h204v-201h-204v-809h-244v809h-473v-809h-244v809h-145v201h143v129q0 195 98.5 289t268.5 94q61 0 121 -11v-215q-137 27 -189.5 -17t-52.5 -140v-129h473v129q0 195 97 289t267 94q61 0 123 -11v-215z" glyph-name="f_f.liga" horiz-adv-x="1443" unicode="ff"/><glyph d="M1133 1139v-129h706v-1010h-244v809h-462v-809h-242l-2 809h-473v-809h-244v809h-143v201h143v129q0 195 97.5 289t267.5 94q61 0 122 -11v-215q-139 27 -191 -17t-52 -140v-129h473v129q0 195 98 289t268 94q59 0 121 -11v-215q-137 27 -190 -17t-53 -140zM1718.5 1206 q-63.5 0 -107.5 44t-44 109.5t44 109.5t107.5 44t108.5 -44t45 -109.5t-45 -109.5t-108.5 -44z" glyph-name="f_f_i.liga" horiz-adv-x="1984" unicode="ffi"/><glyph d="M1583 1522h242v-1522h-242v809h-450v-809h-242l-2 809h-473v-809h-244v809h-143v201h143v129q0 195 97.5 289t267.5 94q61 0 122 -11v-215q-139 27 -191 -17t-52 -140v-129h473v129q0 195 98 289t268 94q59 0 121 -11v-215q-137 27 -190 -17t-53 -140v-129h450v512z" glyph-name="f_f_l.liga" horiz-adv-x="1972" unicode="ffl"/><glyph d="M1384 1010v-201h-235v-809h-240v809h-493v-809h-244v809h-143v201h143v129q0 195 97.5 289t267.5 94q61 0 122 -11v-215q-139 27 -191 -17t-52 -140v-129h493v315h240v-315h235z" glyph-name="f_t.liga" horiz-adv-x="1406" unicode="ft"/><glyph d="M1417 1010h260l-452 -1215q-45 -119 -122 -187.5t-163 -81.5t-165 0t-144 46l65 205q43 -33 99.5 -44.5t117 15.5t88.5 102l21 54l-2 -2l-356 907h-248v-809h-244v809h-143v201h143v129q0 195 97.5 289t267.5 94q61 0 122 -11v-215q-139 27 -191 -17t-52 -140v-129h436 l291 -783z" glyph-name="f_y.liga" horiz-adv-x="1695" unicode="fy"/><glyph d="M950 1206q-63 0 -107 44t-44 109.5t44 109.5t107 44q66 0 110 -44t44 -109.5t-44 -109.5t-110 -44zM1069 1010v-1010h-242v809h-364v-809h-238v809h-196v201h196v315h238v-315h606z" glyph-name="t_i.liga" horiz-adv-x="1208" unicode="ti"/><glyph d="M1346 1010v-201h-195v-809h-240v809h-196h-252v-809h-238v809h-196v201h196v315h238v-315h338h110v315h240v-315h195z" glyph-name="t_t.liga" horiz-adv-x="1374" unicode="tt"/><glyph d="M1417 1010h260l-454 -1215q-45 -119 -122 -187.5t-163 -81.5t-164 0t-143 46l65 205q43 -33 99.5 -44.5t117 15.5t88.5 102l19 52l-356 907h-201v-809h-238v809h-196v201h196v315h238v-315h321h68l289 -789z" glyph-name="t_y.liga" horiz-adv-x="1695" unicode="ty"/><glyph d="M920 1776v-2243h-711v2243h711zM748 1626h-371v-74h145v-84h-147v-73h373v73h-150v84h150v74zM598 1335h-223v-231h373v76h-150v155zM522 1260v-80h-73v80h73zM748 1042h-373v-73h147v-84h-147v-74h223v158h150v73zM748 907h-74v-147h-299v-76h373v223zM748 635h-226 v-127h76v53h76v-106h-225v180h-74v-254h373v254zM748 246h-373v-254h373v254zM674 172v-104h-225v104h225zM748 -59h-373v-74h157l-157 -105v-73h373v73h-230l158 105h72v74z" glyph-name=".notdef" horiz-adv-x="1122"/><glyph glyph-name="glyph1"/><glyph glyph-name="glyph2" horiz-adv-x="681"/><glyph glyph-name="space" horiz-adv-x="552" unicode=" "/><glyph d="M442 354h-209q-39 231 -38 555v584h286v-584q0 -324 -39 -555zM340 -29q-66 0 -110 41t-44 106.5t44 107.5t110 42t110 -42t44 -107.5t-44 -106.5t-110 -41z" glyph-name="exclam" horiz-adv-x="675" unicode="!"/><glyph d="M297 1280l-43 -395h-137l-45 395q-8 70 27.5 105.5t88.5 33.5q49 -2 82 -36.5t27 -102.5zM627 1280l-43 -395h-138l-45 395q-8 70 28 105.5t89 33.5q49 -2 83 -36.5t26 -102.5z" glyph-name="quotedbl" horiz-adv-x="698" unicode="&quot;"/><glyph d="M1335 860h-211l-45 -227h230l-45 -242h-232l-78 -391h-241l78 391h-269l-76 -391h-241l78 391h-199l47 242h199l45 227h-223l45 244h225l76 389h241l-75 -389h266l78 389h239l-76 -389h211zM838 633l45 227h-269l-43 -227h267z" glyph-name="numbersign" horiz-adv-x="1466" unicode="#"/><glyph d="M1204 399q0 -172 -116.5 -283.5t-315.5 -133.5v-166h-182v166q-195 20 -314.5 125.5t-142.5 275.5l246 35q23 -168 211 -205v442l-49 13q-360 96 -361 417q0 168 114 288t296 145v145h182v-145q166 -25 277.5 -120t146.5 -243l-242 -63q-35 152 -182 190v-428l47 -12 q385 -105 385 -443zM436 1092q0 -139 154 -189v377q-72 -23 -113 -74t-41 -114zM772 215q94 16 139 70.5t45 124.5q-2 145 -184 196v-391z" glyph-name="dollar" horiz-adv-x="1341" unicode="$"/><glyph d="M434 723q-156 -2 -249 108.5t-93 294.5q0 180 92 292t244 110q154 2 247 -107.5t93 -294.5q0 -182 -91 -291.5t-243 -111.5zM1395 1493h245l-1138 -1493h-244zM262 1126q0 -106 45 -167.5t123 -63.5q78 2 122 62.5t44 168.5q0 96 -38 155.5t-103 70.5q-8 2 -24.5 2 t-24.5 -2q-68 -8 -106 -69t-38 -157zM1466 770q154 2 247 -107.5t93 -293.5q0 -182 -91 -292t-242 -112q-156 -2 -249.5 108.5t-93.5 295.5q0 180 92 291.5t244 109.5zM1468 137q78 2 122 62.5t44 169.5q0 96 -37.5 155.5t-103.5 69.5q-8 2 -24.5 2t-24.5 -2 q-68 -8 -106 -68.5t-38 -156.5q0 -106 45 -168t123 -64z" glyph-name="percent" horiz-adv-x="1892" unicode="%"/><glyph d="M1460 0h-289l-88 106q-172 -131 -428 -131q-254 0 -399 122t-145 329q0 145 81.5 249.5t253.5 203.5q-86 104 -119.5 172.5t-35.5 142.5q-2 158 104.5 243t263.5 85q162 0 263.5 -87t101.5 -227q0 -100 -63.5 -188t-204.5 -180l305 -365q35 111 24 254h252 q6 -272 -106 -457zM659 1311q-66 0 -100.5 -40t-32.5 -95q0 -39 26 -81t89 -118q150 92 150 205q0 55 -34.5 92t-97.5 37zM678 188q164 2 264 91l-375 452q-203 -129 -200 -303q4 -109 85 -174.5t226 -65.5z" glyph-name="ampersand" horiz-adv-x="1501" unicode="&amp;"/><glyph d="M373 1303l-47 -412h-158l-47 412q-10 78 31 118.5t100 38.5q53 -2 91 -41.5t30 -115.5z" glyph-name="quotesingle" horiz-adv-x="491" unicode="'"/><glyph d="M623 -188h-193q-156 176 -247 424.5t-91 529.5q0 268 87 519t251 435h193q-131 -176 -207 -423.5t-78 -530.5q2 -270 75 -521t210 -433z" glyph-name="parenleft" horiz-adv-x="622" unicode="("/><glyph d="M0 -188q137 182 210 432t75 522q-2 283 -78 530.5t-207 423.5h195q164 -184 249.5 -435t85.5 -519q0 -281 -90 -529.5t-245 -424.5h-195z" glyph-name="parenright" horiz-adv-x="618" unicode=")"/><glyph d="M500 1141q59 -57 112 -127l78 -121l-102 -72l-82 117q-49 61 -82 149q-23 -74 -78 -149l-86 -117l-104 72l84 121q47 66 114 127q-90 8 -168 37l-135 47l47 121l129 -46q82 -31 154 -75q-18 88 -19 170v143h127v-143q0 -100 -18 -170q63 41 154 75l133 46l45 -121 l-137 -47q-78 -29 -166 -37z" glyph-name="asterisk" horiz-adv-x="854" unicode="*"/><glyph d="M1190 795v-209h-408v-410h-209v410h-409v209h409v407h209v-407h408z" glyph-name="plus" horiz-adv-x="1353" unicode="+"/><glyph d="M276 266q70 0 117 -49t47 -147q0 -123 -77.5 -205t-182.5 -82v80q55 2 93 41t38 86q-25 -12 -53 -13q-55 0 -92 38t-37 102q0 66 40.5 107.5t106.5 41.5z" glyph-name="comma" horiz-adv-x="567" unicode=","/><glyph d="M127 678h846v-217h-846v217z" glyph-name="hyphen" horiz-adv-x="1099" unicode="-"/><glyph d="M295 -33q-68 0 -115 47t-47 113q0 68 47 115t114.5 47t116 -47t48.5 -115q0 -63 -49 -111.5t-115 -48.5z" glyph-name="period" horiz-adv-x="591" unicode="."/><glyph d="M0 0l582 1493h243l-585 -1493h-240z" glyph-name="slash" horiz-adv-x="825" unicode="/"/><glyph d="M129 748q0 346 179 560t472 214q301 2 476.5 -214t175.5 -565q0 -346 -178.5 -558t-473.5 -212q-303 0 -477 213.5t-174 561.5zM379 743q0 -254 106.5 -398t294.5 -146q188 0 294 146.5t106 399.5q0 258 -106.5 404.5t-293.5 144.5q-188 0 -294.5 -146.5t-106.5 -404.5z " glyph-name="zero" horiz-adv-x="1562" unicode="0"/><glyph d="M117 1085v244l282 166h248v-1495h-248v1239z" glyph-name="one" horiz-adv-x="849" unicode="1"/><glyph d="M877 567l-381 -338h616v-227l-965 -2v244l562 495q176 156 176 299q0 119 -72 188.5t-184 69.5q-115 0 -189.5 -74.5t-74.5 -199.5h-250q0 231 142 365.5t374 134.5q238 0 372 -139.5t134 -344.5q0 -147 -66.5 -251.5t-193.5 -219.5z" glyph-name="two" horiz-adv-x="1226" unicode="2"/><glyph d="M731 946q168 -39 275.5 -164t107.5 -313q0 -223 -151.5 -359.5t-380.5 -136.5q-227 0 -373 135.5t-146 366.5h252q0 -129 73 -201.5t198 -72.5t201.5 74.5t76.5 197.5q0 113 -68.5 185.5t-201.5 80.5q-70 4 -115 4h-106v166l375 361h-615v225h946v-217z" glyph-name="three" horiz-adv-x="1212" unicode="3"/><glyph d="M127 295v225l610 975h287l-612 -975h426v391h241v-391h189v-227h-189v-293h-241v293z" glyph-name="four" horiz-adv-x="1339" unicode="4"/><glyph d="M705 1022q229 0 366 -148.5t137 -369.5q0 -233 -154.5 -381t-398.5 -148q-238 0 -393.5 146.5t-155.5 376.5h252q0 -135 85 -216t219 -81q121 0 207.5 85t86.5 220q0 139 -84 223t-213 84q-176 0 -272 -133l-235 33l190 782h764v-244h-567l-82 -295q103 66 248 66z" glyph-name="five" horiz-adv-x="1314" unicode="5"/><glyph d="M762 1034q229 -2 378.5 -142t149.5 -372q0 -236 -154.5 -391.5t-394.5 -155.5q-158 0 -278.5 61.5t-192 169t-107.5 241t-36 286.5q0 129 23.5 244t77 215t130 174t190.5 116t251 42q285 0 454 -166l-151 -176q-139 111 -316 110q-188 0 -298.5 -127t-116.5 -325 q55 94 158.5 145t232.5 51zM733 201q131 0 219 84t88 229q0 141 -88 225t-219 86t-220 -84t-89 -227q0 -145 89 -229t220 -84z" glyph-name="six" horiz-adv-x="1398" unicode="6"/><glyph d="M51 1495h1030v-227q-100 -78 -182 -171t-137 -190.5t-97 -189.5t-66 -191.5t-39 -170t-20 -152.5t-6.5 -115t-1.5 -76v-12h-247q0 795 510 1268h-744v227z" glyph-name="seven" horiz-adv-x="1132" unicode="7"/><glyph d="M915 795q135 -39 209 -145.5t74 -241.5q0 -197 -151.5 -315t-389.5 -118q-240 0 -390 118t-150 315q0 133 73.5 239.5t202.5 149.5q-100 43 -154.5 129t-54.5 198q0 184 134.5 291t339 107t338.5 -106.5t132 -291.5q0 -115 -56.5 -201.5t-156.5 -127.5zM655.5 1305 q-112.5 0 -183.5 -55.5t-71 -149.5q0 -92 68 -148.5t186 -56.5q117 0 184.5 56.5t67.5 148.5q0 94 -69.5 149.5t-182 55.5zM657 201q127 0 208 63.5t81 175.5q0 111 -82 173.5t-209 62.5q-125 0 -206.5 -61.5t-81.5 -172.5q0 -115 81.5 -178t208.5 -63z" glyph-name="eight" horiz-adv-x="1314" unicode="8"/><glyph d="M670 1522q158 0 278.5 -61.5t192 -168t107.5 -239.5t36 -287q0 -162 -40 -301t-118.5 -251t-211 -176.5t-304.5 -64.5q-281 0 -452 168l149 176q139 -111 318 -110q188 0 298.5 127t114.5 325q-53 -94 -156.5 -146t-232.5 -50q-229 0 -379.5 141t-150.5 371 q0 236 154.5 391.5t396.5 155.5zM676 672q131 -2 220 84t89 227q0 145 -89 230t-218 85q-131 0 -220 -85t-89 -230q0 -141 88 -225t219 -86z" glyph-name="nine" horiz-adv-x="1400" unicode="9"/><glyph d="M340 721q-68 0 -115 47t-47 112.5t47 113.5t115 48q66 0 115 -48t49 -113.5t-49 -112.5t-115 -47zM340 -33q-68 0 -115 47t-47 113q0 68 47 115t115 47t116 -47t48 -115q0 -63 -49 -111.5t-115 -48.5z" glyph-name="colon" horiz-adv-x="681" unicode=":"/><glyph d="M291 721q-68 0 -115 47t-47 112.5t47 113.5t115 48q66 0 115 -48t49 -113.5t-49 -112.5t-115 -47zM276 266q70 0 117 -49t47 -147q0 -123 -77.5 -205t-182.5 -82v80q55 2 93 40t38 85q-25 -10 -47 -11q-59 0 -97 37t-38 102.5t40.5 107.5t106.5 42z" glyph-name="semicolon" horiz-adv-x="579" unicode=";"/><glyph d="M74 383v254l717 375v-264l-459 -238l459 -238v-264z" glyph-name="less" horiz-adv-x="878" unicode="&lt;"/><glyph d="M195 952h792v-207h-792v207zM195 268v209h792v-209h-792z" glyph-name="equal" horiz-adv-x="1212" unicode="="/><glyph d="M88 8v264l459 238l-459 238v264l719 -375v-254z" glyph-name="greater" horiz-adv-x="888" unicode=">"/><glyph d="M571 1522q209 0 350.5 -128t141.5 -335q0 -92 -31 -170t-77 -127t-100 -97.5t-101 -83t-80 -80.5t-37 -95v-50h-244v60q0 86 44 157.5t106.5 124t124 101.5t105.5 111.5t44 133.5q0 98 -66.5 166t-177.5 68q-113 0 -187.5 -75t-74.5 -177h-245q0 211 144 353.5t361 142.5 zM526 272q68 0 114 -44t46 -105q0 -63 -45 -106.5t-114.5 -43.5t-114.5 43t-45 106.5t44.5 106.5t114.5 43z" glyph-name="question" horiz-adv-x="1128" unicode="?"/><glyph d="M1061 1524q356 0 583.5 -226.5t215.5 -580.5q-8 -252 -134.5 -420t-302.5 -168q-92 0 -151.5 50t-59.5 145q-53 -86 -148 -133.5t-214 -45.5q-199 4 -309.5 149.5t-77.5 377.5q33 225 180.5 368.5t339.5 141.5q113 -2 198 -55.5t128 -143.5l30 168h140l-127 -735 q-23 -139 53 -152q109 -18 197 112t102 333q20 305 -166 493.5t-481 188.5q-330 0 -560.5 -228.5t-240.5 -556.5q-6 -299 174 -504.5t485 -205.5q285 0 535 163l63 -125q-125 -78 -290.5 -124t-315.5 -46q-340 0 -575.5 228.5t-227.5 607.5q10 401 289 662.5t668 261.5z M870 276q139 -2 239.5 103.5t127.5 288.5q27 184 -45 282.5t-203 100.5q-141 4 -247.5 -106.5t-131 -287t50 -277t209.5 -104.5z" glyph-name="at" horiz-adv-x="1961" unicode="@"/><glyph d="M1098 0l-121 348h-569l-123 -348h-262l540 1495h250h12l541 -1495h-268zM483 563h420l-209 598z" glyph-name="A" horiz-adv-x="1388" unicode="A"/><glyph d="M1034 745q98 -47 160.5 -137t62.5 -215q0 -186 -131 -289.5t-350 -103.5h-444h-164v1493h250h354q217 0 342 -111.5t125 -294.5q0 -123 -56.5 -210t-148.5 -132zM750 1276h-332v-434h334q115 0 176 61.5t61 153.5t-62 155.5t-177 63.5zM768 217q111 0 176.5 58.5 t63.5 156.5q0 98 -67 156.5t-173 58.5h-350v-430h350z" glyph-name="B" horiz-adv-x="1339" unicode="B"/><glyph d="M1438 1085l-244 -81q-41 129 -143.5 199.5t-243.5 70.5q-209 0 -334 -143.5t-125 -382.5q0 -242 126 -382.5t331 -140.5q145 0 257 72t155 186l239 -102q-76 -190 -252 -298t-401 -108q-324 0 -522.5 211t-198.5 557q0 350 199.5 564.5t523.5 214.5q238 0 408 -120 t225 -317z" glyph-name="C" horiz-adv-x="1529" unicode="C"/><glyph d="M682 1495q326 0 539 -210t213 -539.5t-212 -537.5t-540 -208h-514v1495h514zM678 236q223 0 355 140t132 369.5t-134 370.5t-353 141h-256v-1021h256z" glyph-name="D" horiz-adv-x="1515" unicode="D"/><glyph d="M422 240h674v-240h-928v1495h928v-242h-674v-387h602v-225h-602v-401z" glyph-name="E" horiz-adv-x="1214" unicode="E"/><glyph d="M1090 1255h-668v-411h561v-230h-561v-614h-254v1495h254h668v-240z" glyph-name="F" horiz-adv-x="1159" unicode="F"/><glyph d="M778 856h695v-856h-220l-12 168q-70 -92 -194.5 -141.5t-266.5 -49.5q-313 0 -505.5 214.5t-192.5 551.5q0 344 201.5 561.5t533.5 217.5q236 0 407 -111t236 -297l-227 -94q-49 133 -159.5 198.5t-254.5 65.5q-221 0 -350 -149.5t-129 -397.5t128 -385t335 -137 q70 0 135.5 15.5t131 51t110.5 105.5t57 168v78h-459v223z" glyph-name="G" horiz-adv-x="1591" unicode="G"/><glyph d="M168 0v1495h254v-625l659 -2v627h256v-1495h-256v643l-659 2v-645h-254z" glyph-name="H" horiz-adv-x="1503" unicode="H"/><glyph d="M422 0h-254v1495h254v-1495z" glyph-name="I" horiz-adv-x="589" unicode="I"/><glyph d="M715 1495h254v-1081q0 -195 -128 -319t-341 -122q-221 0 -339 123t-118 324v51h246v-51q0 -104 59.5 -157.5t149.5 -53.5q98 0 157.5 55t59.5 164v1067z" glyph-name="J" horiz-adv-x="1122" unicode="J"/><glyph d="M1360 1495l-572 -723l555 -772h-327l-387 571l-205 -260v-315h-256v1499h256v-786l608 786h328z" glyph-name="K" horiz-adv-x="1386" unicode="K"/><glyph d="M426 227h598v-227h-815h-41v1495h258v-1268z" glyph-name="L" horiz-adv-x="1079" unicode="L"/><glyph d="M1389 1495h249v-1495h-249v928l-369 -928h-242l-366 922v-922h-244v1495h244l487 -1198z" glyph-name="M" horiz-adv-x="1808" unicode="M"/><glyph d="M1130 1495h252v-1495h-252l-710 1090v-1090h-252v1495h252l710 -1089v1089z" glyph-name="N" horiz-adv-x="1548" unicode="N"/><glyph d="M1524 750q0 -340 -201 -557.5t-524.5 -217.5t-523 216.5t-199.5 556.5q0 338 200.5 556t522.5 218q324 0 524.5 -217t200.5 -555zM1257 749.5q0 239.5 -123.5 382t-332.5 142.5t-333 -142.5t-124 -381.5q0 -242 123 -384.5t334 -142.5q207 0 331.5 143.5t124.5 383z" glyph-name="O" horiz-adv-x="1601" unicode="O"/><glyph d="M760 1495q229 0 360 -132t131 -355q0 -219 -133 -355.5t-360 -136.5h-336v-516h-254v1495h254h338zM711 739q135 0 204.5 77t69.5 198q0 109 -68.5 181.5t-201.5 72.5h-293v-529h289z" glyph-name="P" horiz-adv-x="1310" unicode="P"/><glyph d="M1530 750q0 -352 -213 -570l164 -186h-269l-57 65q-162 -84 -352 -84q-322 0 -521.5 217.5t-199.5 555t200.5 556t522.5 218.5q324 0 524.5 -217t200.5 -555zM807 223q98 0 174 31l-205 231h271l100 -110q117 143 117 375q0 240 -125 382t-332 142q-211 0 -335 -142.5 t-124 -381.5q0 -242 124 -384.5t335 -142.5z" glyph-name="Q" horiz-adv-x="1603" unicode="Q"/><glyph d="M1010 606l276 -606h-285l-247 565h-332v-565h-254v1495h575q262 -2 399.5 -122t137.5 -341q0 -156 -70.5 -266.5t-199.5 -159.5zM743 788q135 0 202 66t67 176q0 109 -67.5 173.5t-201.5 64.5h-321v-480h321z" glyph-name="R" horiz-adv-x="1372" unicode="R"/><glyph d="M98 1077q0 199 139.5 322t370.5 123q207 0 342 -100.5t166 -266.5l-239 -65q-20 98 -94 149t-181 51q-117 0 -184.5 -56t-67.5 -147q0 -145 180 -188l244 -61q377 -96 377 -418q0 -201 -144.5 -324t-388.5 -123q-221 0 -369.5 103.5t-176.5 281.5l239 62 q14 -100 99.5 -155.5t216.5 -55.5q127 0 199.5 53t72.5 146q0 143 -180 190l-244 59q-377 90 -377 420z" glyph-name="S" horiz-adv-x="1224" unicode="S"/><glyph d="M1145 1495v-240h-428v-1255h-254v1255h-428v240h1110z" glyph-name="T" horiz-adv-x="1179" unicode="T"/><glyph d="M154 539v956h254v-948q2 -164 100 -247t245.5 -83t247 88t99.5 242v948h254v-956q0 -266 -174 -416t-426 -150q-250 0 -425 149t-175 417z" glyph-name="U" horiz-adv-x="1507" unicode="U"/><glyph d="M1149 1495h272l-565 -1495h-262l-571 1495h276l426 -1143z" glyph-name="V" horiz-adv-x="1443" unicode="V"/><glyph d="M1806 1495h271l-453 -1495h-246l-325 1047l-330 -1047h-250l-446 1495h278l297 -1063l313 1063h281l305 -1067z" glyph-name="W" horiz-adv-x="2103" unicode="W"/><glyph d="M35 1495h325l357 -541l356 541h316l-515 -747l517 -748h-324l-352 541l-361 -539h-317l520 746z" glyph-name="X" horiz-adv-x="1425" unicode="X"/><glyph d="M18 1495h287l354 -649l355 649h276l-506 -895v-600h-256v600z" glyph-name="Y" horiz-adv-x="1308" unicode="Y"/><glyph d="M1090 1495v-244l-728 -1007h717v-244h-995l-2 244l725 1007l-723 -2v246h1006z" glyph-name="Z" horiz-adv-x="1173" unicode="Z"/><glyph d="M596 6v-192h-461v1890h461v-193h-254v-1505h254z" glyph-name="bracketleft" horiz-adv-x="606" unicode="["/><glyph d="M825 0h-241l-584 1493h242z" glyph-name="backslash" horiz-adv-x="825" unicode="\"/><glyph d="M10 6h254v1505h-254v193h459v-1890h-459v192z" glyph-name="bracketright" horiz-adv-x="606" unicode="]"/><glyph d="M848 983h-209l-135 264l-133 -264h-209l237 471h209z" glyph-name="asciicircum" horiz-adv-x="976" unicode="^"/><glyph d="M123 -35h866v-180h-866v180z" glyph-name="underscore" horiz-adv-x="1112" unicode="_"/><glyph d="M233 1575l-213 326h234l164 -326h-185z" glyph-name="grave" horiz-adv-x="481" unicode="`"/><glyph d="M995 0h-233q-10 37 -17 115q-96 -141 -311 -142q-164 0 -265 88.5t-101 239.5q0 150 99 232.5t269 82.5h303v39q0 188 -211 189q-178 0 -254 -148l-176 103q127 242 443 241q190 0 313 -98t123 -319v-402q0 -172 18 -221zM741 426v23h-249q-86 0 -132.5 -39t-46.5 -107 q0 -72 48.5 -108.5t136.5 -36.5q100 0 171.5 64.5t71.5 203.5z" glyph-name="a" horiz-adv-x="1085" unicode="a"/><glyph d="M717 1042q217 0 354 -146t135 -398q0 -240 -137 -382.5t-354 -142.5q-125 0 -215 47.5t-138 120.5l-12 -141h-219v1522h238v-643q53 80 147.5 121.5t200.5 41.5zM672 195q131 0 211 86t80 229q0 141 -80 227t-211 86t-212 -86t-81 -227q0 -143 81 -229t212 -86z" glyph-name="b" horiz-adv-x="1271" unicode="b"/><glyph d="M72 506q0 242 141 388t377 146q174 0 299 -85t168 -226l-209 -84q-27 82 -96.5 129t-157.5 47q-129 0 -204 -86t-75 -229q0 -145 76 -228t203 -83q90 0 159.5 46t96.5 124l207 -78q-51 -145 -178 -229.5t-291 -84.5q-233 0 -374.5 146.5t-141.5 386.5z" glyph-name="c" horiz-adv-x="1128" unicode="c"/><glyph d="M1171 0h-241q-10 63 -17 135q-49 -78 -140 -120t-202 -42q-223 0 -361 140.5t-138 392.5q0 238 142 386t366 148q98 0 188 -37.5t143 -109.5v629h242v-1268q0 -188 18 -254zM610 195q131 0 211 86t80 227t-80 227t-211 86t-212 -86t-81 -227t81 -227t212 -86z" glyph-name="d" horiz-adv-x="1294" unicode="d"/><glyph d="M1075 506v-90h-774q12 -117 88 -175.5t186 -58.5q184 0 259 154l202 -80q-57 -133 -180 -208t-281 -75q-225 0 -364 145.5t-139 385t139 388t369 148.5q225 0 360 -146t135 -388zM573.5 838q-112.5 0 -183.5 -65.5t-85 -186.5h524q-8 125 -75.5 188.5t-180 63.5z" glyph-name="e" horiz-adv-x="1146" unicode="e"/><glyph d="M662 1296q-137 27 -189.5 -17t-52.5 -140v-129h239v-201h-239v-809h-244v809h-145v201h143v129q0 195 98.5 289t268.5 94q61 0 121 -11v-215z" glyph-name="f" horiz-adv-x="720" unicode="f"/><glyph d="M737 115q168 0 261.5 -80t93.5 -221q0 -117 -82 -193t-198 -102.5t-265 -28.5q-514 0 -514 262q0 72 36.5 127t102.5 84q-96 63 -96 187q0 59 33.5 120.5t107.5 89.5q-115 111 -115 277q0 180 126 291.5t331 111.5q129 0 238 -49q37 74 113.5 113t176.5 29v-199 q-106 14 -163 -41q88 -104 88 -254q0 -180 -124 -290.5t-327 -110.5q-98 0 -190 32q-96 -4 -97 -82q0 -29 26 -51t81 -22h356zM557 848q-98 0 -159.5 -59.5t-61.5 -149.5q0 -92 61.5 -150.5t159.5 -58.5q100 2 159.5 60.5t59.5 144.5q0 88 -60.5 150.5t-158.5 62.5z M553 -305q98 0 158.5 8t102.5 34.5t42 76.5q0 102 -158 102h-348q-6 0 -16 1t-15 1q-78 -29 -77.5 -102.5t79 -97t232.5 -23.5z" glyph-name="g" horiz-adv-x="1128" unicode="g"/><glyph d="M668 1040q199 0 308 -109.5t109 -316.5v-614h-241v561q0 260 -226 260q-94 0 -171.5 -64.5t-77.5 -199.5v-557h-242v1522h242v-617q102 135 299 135z" glyph-name="h" horiz-adv-x="1206" unicode="h"/><glyph d="M262 1206q-66 0 -109.5 44t-43.5 109.5t44 109.5t109 44q63 0 107.5 -45t44.5 -108.5t-44.5 -108.5t-107.5 -45zM141 1010h242v-1010h-242v1010z" glyph-name="i" horiz-adv-x="516" unicode="i"/><glyph d="M287 1206q-66 0 -110 44t-44 109.5t44 109.5t110 44q63 0 107 -45t44 -108.5t-44 -108.5t-107 -45zM-119 -459l45 205q61 -18 115.5 -17t90.5 42t36 114l-2 1125h244v-1119q0 -225 -150 -322.5t-379 -27.5z" glyph-name="j" horiz-adv-x="555" unicode="j"/><glyph d="M369 0h-242v1522h242v-928l399 416h303l-436 -457l414 -553h-293l-281 385l-106 -113v-272z" glyph-name="k" horiz-adv-x="1087" unicode="k"/><glyph d="M127 0v1522h242v-1522h-242z" glyph-name="l" horiz-adv-x="489" unicode="l"/><glyph d="M1303 1042q170 0 272 -105.5t102 -293.5v-643h-235v606q0 106 -54.5 164.5t-146.5 58.5q-96 0 -156.5 -63.5t-60.5 -181.5v-584h-238v606q0 106 -53 164.5t-145 58.5q-96 0 -157.5 -63.5t-61.5 -181.5v-584h-242v1010h225l8 -97q86 129 287 129q236 0 330 -188 q37 88 122 138t204 50z" glyph-name="m" horiz-adv-x="1796" unicode="m"/><glyph d="M666 1040q195 0 302 -108.5t107 -308.5v-623h-241v571q0 76 -21.5 129.5t-57.5 78t-70 33.5t-71 9q-98 0 -171.5 -63.5t-73.5 -194.5v-563h-242v1010h227l8 -109q43 63 124.5 101t179.5 38z" glyph-name="n" horiz-adv-x="1196" unicode="n"/><glyph d="M72 506q0 236 145 384t381 148q233 0 378.5 -148.5t145.5 -383.5q0 -233 -145.5 -382t-378.5 -149q-236 0 -381 149t-145 382zM315 508q0 -139 78 -227t205 -88q125 0 202 88t77 227t-77 226t-202 87q-127 0 -205 -87t-78 -226z" glyph-name="o" horiz-adv-x="1193" unicode="o"/><glyph d="M1200 518q6 -252 -133 -398.5t-356 -146.5q-111 0 -204 42t-142 116v-598h-234v1477h217l10 -127q45 70 135.5 113.5t208.5 43.5q223 0 359.5 -138t138.5 -384zM668 195q131 0 212 86t81 227t-81 227t-212 86t-212 -86t-81 -227t81 -227t212 -86z" glyph-name="p" horiz-adv-x="1271" unicode="p"/><glyph d="M934 1010h215v-1477h-231v598q-49 -72 -143.5 -115t-203.5 -43q-223 0 -362 145.5t-135 399.5q2 246 140 384t366 138q242 0 344 -157zM614 195q131 0 211 86t80 227t-80 227t-211 86t-211.5 -86t-80.5 -227t80.5 -227t211.5 -86z" glyph-name="q" horiz-adv-x="1277" unicode="q"/><glyph d="M362 891q41 86 155 116.5t235 2.5v-224q-178 43 -280.5 -35.5t-102.5 -250.5v-500h-246v1010h225z" glyph-name="r" horiz-adv-x="796" unicode="r"/><glyph d="M293 295q6 -59 53 -93t127 -34q72 0 117 28.5t45 88.5q0 82 -109 108l-139 37q-287 78 -287 295q0 137 99.5 226t273.5 89q152 0 256.5 -69.5t126.5 -192.5l-217 -51q-8 55 -51 87t-107 32q-66 0 -105.5 -33t-39.5 -84q0 -82 123 -115l137 -34q281 -76 281 -297 q0 -141 -106.5 -225.5t-295.5 -84.5q-176 0 -280.5 78t-122.5 205z" glyph-name="s" horiz-adv-x="948" unicode="s"/><glyph d="M668 1010v-201h-195v-809h-240v809h-196v201h196v315h240v-315h195z" glyph-name="t" horiz-adv-x="704" unicode="t"/><glyph d="M1096 0h-240q-12 43 -18 113q-90 -139 -299 -140q-78 0 -146.5 20.5t-132 65.5t-100.5 132.5t-37 205.5v615h244v-570q0 -76 21.5 -129t58 -77.5t71.5 -35t72 -10.5q96 0 170 62.5t74 196.5v561h241v-824q1 -108 21 -186z" glyph-name="u" horiz-adv-x="1218" unicode="u"/><glyph d="M836 1010h251l-421 -1010h-240l-403 1010h262l266 -723z" glyph-name="v" horiz-adv-x="1110" unicode="v"/><glyph d="M1360 1010h256l-350 -1010h-228l-215 651l-221 -651h-235l-338 1010h262l196 -660l213 660h248l205 -668z" glyph-name="w" horiz-adv-x="1644" unicode="w"/><glyph d="M33 0l352 496l-362 514h286q82 -113 230 -348l217 348h278l-358 -512l350 -498h-285q-78 109 -221 336l-213 -336h-274z" glyph-name="x" horiz-adv-x="1056" unicode="x"/><glyph d="M848 1010h254l-479 -1246q-143 -373 -564 -206l68 219q55 -35 110.5 -45.5t106.5 17.5t76 97l35 95l-430 1069h254l290 -758z" glyph-name="y" horiz-adv-x="1124" unicode="y"/><glyph d="M76 0v217l510 580h-510v213h811v-217l-518 -578h518v-215h-811z" glyph-name="z" horiz-adv-x="960" unicode="z"/><glyph d="M457 1022q0 -170 -109 -268q109 -94 109 -265v-358q0 -139 127 -139v-178q-80 0 -129 6q-94 6 -149.5 76.5t-55.5 179.5v373q0 61 -14.5 104t-33 63.5t-42 31.5t-37.5 12.5t-25 1.5v180q88 8 123 76q29 55 29 145v381q0 113 55 179.5t162 74.5q33 6 117 6v-178 q-127 0 -127 -109v-395z" glyph-name="braceleft" horiz-adv-x="593" unicode="{"/><glyph d="M109 1614h188v-1798h-188v1798z" glyph-name="bar" horiz-adv-x="407" unicode="|"/><glyph d="M344 1063q0 -211 148 -221h4v-180q-10 0 -24.5 -1.5t-38 -12.5t-42 -31.5t-33 -63.5t-14.5 -104v-373q0 -106 -55.5 -177t-147.5 -79q-53 -6 -131 -6v178q129 0 129 139v358q0 172 107 265q-106 96 -107 268v395q0 109 -129 109v178q82 0 119 -6q104 -6 159.5 -74 t55.5 -180v-381z" glyph-name="braceright" horiz-adv-x="593" unicode="}"/><glyph d="M741 635h125q0 -106 -63.5 -173t-159.5 -67q-82 0 -189.5 74t-154.5 74q-84 0 -90 -88h-127q0 102 63.5 167.5t159.5 65.5q80 0 189.5 -73.5t154.5 -73.5q86 0 92 94z" glyph-name="asciitilde" horiz-adv-x="948" unicode="~"/><glyph d="M340 1522q66 0 110 -41t44 -106.5t-44 -107.5t-110 -42t-110 42t-44 107.5t44 106.5t110 41zM442 1139q39 -231 39 -555v-584h-286v584q0 324 38 555h209z" glyph-name="exclamdown" horiz-adv-x="675" unicode="¡"/><glyph d="M117 745q0 186 111.5 332t283.5 189v227h207v-215q137 -20 241.5 -102t147.5 -205l-213 -76q-68 176 -256 176q-133 0 -209 -93t-76 -233q0 -137 76 -230t209 -93q178 0 244 156l213 -84q-45 -111 -145.5 -184.5t-231.5 -90.5v-221h-207v233q-172 41 -283.5 185.5 t-111.5 328.5z" glyph-name="cent" horiz-adv-x="1222" unicode="¢"/><glyph d="M1081 459h217q0 -211 -108.5 -335t-325.5 -124h-731v240q96 10 165 95t69 204q0 59 -21 120h-203v207h123q-27 84 -26 170q0 211 141 348.5t360 137.5q186 0 315.5 -92.5t180.5 -247.5l-229 -74q-29 86 -100.5 134t-168.5 48q-121 0 -191.5 -72.5t-70.5 -189.5 q0 -74 35 -162h520v-207h-450q12 -53 12 -118q-4 -221 -129 -301h401q219 0 215 219z" glyph-name="sterling" horiz-adv-x="1423" unicode="£"/><glyph d="M1255 743.5q0 -153.5 -84 -282.5l160 -158l-157 -160l-160 158q-135 -86 -289 -86q-156 0 -291 86l-160 -158l-157 160l159 160q-82 127 -81.5 280.5t81.5 284.5l-159 160l157 160l160 -160q133 88 291 88q154 0 289 -86l160 158l157 -160l-160 -158q84 -133 84 -286.5z M418 743q0 -125 90 -215t217 -90q125 0 216 90t91 215q0 127 -90 218.5t-217 91.5q-129 0 -218 -90.5t-89 -219.5z" glyph-name="currency" horiz-adv-x="1447" unicode="¤"/><glyph d="M1401 1493l-426 -721h219v-197h-315v-114h315v-197h-315v-264h-240v264h-315v197h315v114h-315v197h223l-424 721h287l350 -649v2l354 647h287z" glyph-name="yen" horiz-adv-x="1523" unicode="¥"/><glyph d="M270 1620h209v-692h-209v692zM270 569h209v-712h-209v712z" glyph-name="brokenbar" horiz-adv-x="751" unicode="¦"/><glyph d="M834 766q0 -150 -129 -236q125 -74 124 -221q0 -135 -101 -225t-259 -90q-139 0 -242.5 69.5t-130.5 186.5l191 45q33 -123 186 -123q76 0 118 35t42 90q0 82 -103 104l-129 31q-74 16 -134 45t-112.5 99.5t-52.5 168.5q0 154 129 238q-125 78 -125 223 q0 135 101.5 225.5t259.5 90.5q139 0 243.5 -70t131.5 -188l-193 -43q-29 123 -186 122q-76 0 -118 -34.5t-42 -91.5q0 -78 103 -105l129 -31q299 -65 299 -315zM469 627q96 0 143 36.5t47 94.5q0 63 -50 97t-140 34q-98 0 -145.5 -37t-47.5 -96q0 -129 193 -129z" glyph-name="section" horiz-adv-x="937" unicode="§"/><glyph d="M190 1585q-61 0 -105 43t-44 104.5t44 104.5t105 43q59 0 103.5 -44t44.5 -103.5t-44.5 -103.5t-103.5 -44zM606.5 1585q-61.5 0 -105.5 43t-44 104.5t44 104.5t105 43q59 0 104.5 -44t45.5 -103.5t-44 -103.5t-105.5 -44z" glyph-name="dieresis" horiz-adv-x="796" unicode="¨"/><glyph d="M839.5 -27q-315.5 0 -536.5 222.5t-221 537.5q0 313 222 534.5t536 221.5q315 0 536 -221t221 -535q0 -315 -221 -537.5t-536.5 -222.5zM839.5 150q241.5 0 411.5 169.5t170 413.5q0 242 -170 411t-411 169q-240 0 -410 -170t-170 -410q0 -244 169 -413.5t410.5 -169.5z M1178 883l-140 -47q-45 133 -194 133q-96 0 -153.5 -70t-57.5 -170t58.5 -168.5t152.5 -68.5q141 0 184 116l141 -55q-37 -92 -126 -147.5t-199 -55.5q-150 0 -258.5 111.5t-108.5 267.5q0 158 107.5 268.5t259.5 110.5q119 0 210 -60.5t124 -164.5z" glyph-name="copyright" horiz-adv-x="1679" unicode="©"/><glyph d="M1280 1010l-442 -504l442 -506h-309h-279l-442 506l442 504h307h281z" glyph-name="guillemotleft" horiz-adv-x="1415" unicode="«"/><glyph d="M1137 166h-258v348h-791v258h1049v-606z" glyph-name="logicalnot" horiz-adv-x="1224" unicode="¬"/><glyph d="M465 1520q166 0 282.5 -117t116.5 -283q0 -168 -116.5 -284.5t-282.5 -116.5q-168 0 -286 116.5t-118 284.5q0 166 118 283t286 117zM465 803q133 0 224 91t91 226q0 133 -91 225.5t-224 92.5q-135 0 -226.5 -92.5t-91.5 -225.5q0 -135 90.5 -226t227.5 -91zM602 1184 q-2 -68 -61 -94l67 -150h-86l-61 137h-41v-137h-74v358h74h45q131 0 137 -100v-6v-8zM420 1225v-78h63v-2q35 2 35 39v4v8q-4 29 -53 29h-45z" glyph-name="registered" horiz-adv-x="925" unicode="®"/><glyph d="M47 1763h627v-159h-627v159z" glyph-name="macron" horiz-adv-x="720" unicode="¯"/><glyph d="M276.5 1012q-96.5 0 -166 69.5t-69.5 165.5q0 98 69.5 168t166 70t166 -71t69.5 -167t-69.5 -165.5t-166 -69.5zM276.5 1151q40.5 0 69.5 28.5t29 67.5t-30 69t-68.5 30t-68.5 -30t-30 -69t29 -67.5t69.5 -28.5z" glyph-name="degree" horiz-adv-x="552" unicode="°"/><glyph d="M612 774h332v-196h-332v-211h-196v211h-334v196h334v209h196v-209zM82 0v197h862v-197h-862z" glyph-name="plusminus" horiz-adv-x="1026" unicode="±"/><glyph d="M98 614v177l424 348q80 63 80 143q0 78 -47 123t-127 45q-74 0 -123 -42t-53 -122h-170q8 154 102.5 243t241.5 89q156 0 252 -96.5t96 -237.5q0 -162 -147 -278l-279 -222l404 2v-170z" glyph-name="uni00B2" horiz-adv-x="856" unicode="²"/><glyph d="M543 1247q104 -35 167.5 -117.5t63.5 -197.5q0 -147 -100.5 -243.5t-245.5 -96.5q-150 0 -248 97t-98 237h170q4 -72 51 -119t125 -47q74 0 124 48t50 124q0 78 -48 126t-124 52q-47 4 -90 -16l-61 135l204 192h-360v170h629v-149z" glyph-name="uni00B3" horiz-adv-x="856" unicode="³"/><glyph d="M266 1575h-184l164 326h231z" glyph-name="acute" horiz-adv-x="540" unicode="´"/><glyph d="M1231 221l104 -2v-219l-223 2q-143 0 -192 121q-94 -143 -283 -150h-10h-11q-166 6 -258 115v-596h-241v1514h241v-465q0 -180 75 -266.5t192 -86.5q119 0 193.5 86t74.5 267v469h242l2 -701q0 -55 22.5 -71.5t71.5 -16.5z" glyph-name="uni00B5" horiz-adv-x="1437" unicode="µ"/><glyph d="M459 1458h311v-1632h-209v803h-102q-172 0 -274.5 114.5t-102.5 300.5q0 184 102.5 299t274.5 115zM895 1454h94v-1632h-94v1632z" glyph-name="paragraph" horiz-adv-x="1071" unicode="¶"/><glyph d="M338 352q-88 0 -153.5 63.5t-65.5 149.5q0 90 64.5 153.5t154.5 63.5q88 0 151.5 -64.5t63.5 -152.5q0 -86 -63.5 -149.5t-151.5 -63.5z" glyph-name="periodcentered" horiz-adv-x="673" unicode="·"/><glyph d="M492 -385v115h180q53 0 53 49q0 45 -53 45h-180v113l94 126l104 -2v-63l-51 -64h72q70 0 110.5 -46t40.5 -113q0 -72 -41 -116t-108 -44h-221z" glyph-name="cedilla" horiz-adv-x="1228" unicode="¸"/><glyph d="M283 1599h170v-985h-170v811l-201 -84v170z" glyph-name="uni00B9" horiz-adv-x="624" unicode="¹"/><glyph d="M725 1010l442 -504l-442 -506h-309h-279l443 506l-443 504h307h281z" glyph-name="guillemotright" horiz-adv-x="1415" unicode="»"/><glyph d="M1147 1454h215l-1108 -1454h-215zM227 1454v-158l-151 -59v149zM379 702h-152v752h152v-752zM1413 279v-154h-96v-139h-154v139l-354 2v152l354 475h154v-475h96zM997 279h166v225z" glyph-name="onequarter" horiz-adv-x="1488" unicode="¼"/><glyph d="M254 0h-215l1108 1454h215zM76 1237v149l151 68v-158zM227 1454h152v-752h-152v752zM954 -2v152l273 231q47 39 65.5 63.5t20.5 57.5q2 51 -29 81.5t-84 30.5q-57 -2 -88 -36.5t-22 -96.5h-150q-10 119 66.5 200t203.5 79q117 0 186.5 -69.5t69.5 -180.5 q0 -123 -133 -234l-155 -129l278 3v-150z" glyph-name="onehalf" horiz-adv-x="1542" unicode="½"/><glyph d="M602 950q0 -111 -76.5 -185.5t-187.5 -74.5q-117 0 -194.5 82t-67.5 197h149q-10 -55 24 -93t89 -38q47 0 81 32.5t34 79.5q0 61 -41 92q-59 49 -138 11l-61 116h2l129 134h-240v151h471v-131l-131 -131q68 -33 101 -76q57 -72 57 -166zM1288 1454h215l-1108 -1454h-215z M1554 279v-154h-96v-139h-153v139l-355 2v152l355 475h153v-475h96zM1139 279h166v225z" glyph-name="threequarters" horiz-adv-x="1630" unicode="¾"/><glyph d="M602 1223q-68 0 -114 44t-46 105q0 63 45 106.5t115 43.5t115 -43t45 -106.5t-45 -106.5t-115 -43zM817 469h246q0 -211 -144.5 -353.5t-361.5 -142.5q-209 0 -350 128t-141 335q0 92 30.5 170t76.5 127t100.5 97.5t101.5 83t79.5 80.5t37.5 96v49h243v-60 q0 -86 -44 -157.5t-105.5 -124t-124 -101.5t-106.5 -111.5t-44 -133.5q0 -98 66.5 -166t177.5 -68q113 0 187.5 75t74.5 177z" glyph-name="questiondown" horiz-adv-x="1128" unicode="¿"/><glyph d="M788 1602h-184l-213 325h234zM1098 0l-121 348h-569l-123 -348h-262l540 1495h250h12l541 -1495h-268zM483 563h420l-209 598z" glyph-name="Agrave" horiz-adv-x="1388" unicode="À"/><glyph d="M999 1927l-211 -325h-184l164 325h231zM1098 0l-121 348h-569l-123 -348h-262l540 1495h250h12l541 -1495h-268zM483 563h420l-209 598z" glyph-name="Aacute" horiz-adv-x="1388" unicode="Á"/><glyph d="M696 1800l-118 -198h-191l182 327h203h49l183 -327h-191zM1098 0l-121 348h-569l-123 -348h-262l540 1495h250h12l541 -1495h-268zM483 563h420l-209 598z" glyph-name="Acircumflex" horiz-adv-x="1388" unicode="Â"/><glyph d="M502 1647l-156 -2q-20 133 38 207.5t153 74.5q66 0 156.5 -51t129.5 -51q76 0 66 92h155q18 -131 -41 -201.5t-155 -70.5q-70 0 -162 49t-123 49q-67 0 -61 -96zM1098 0l-121 348h-569l-123 -348h-262l540 1495h250h12l541 -1495h-268zM483 563h420l-209 598z" glyph-name="Atilde" horiz-adv-x="1388" unicode="Ã"/><glyph d="M489 1612q-61 0 -105 43t-44 104.5t44 104.5t105 43q59 0 103.5 -44t44.5 -103.5t-44.5 -103.5t-103.5 -44zM905.5 1612q-61.5 0 -105.5 43t-44 104.5t44 104.5t105 43q59 0 104.5 -44t45.5 -103.5t-44 -103.5t-105.5 -44zM1098 0l-121 348h-569l-123 -348h-262l540 1495 h250h12l541 -1495h-268zM483 563h420l-209 598z" glyph-name="Adieresis" horiz-adv-x="1388" unicode="Ä"/><glyph d="M696 1577q-109 0 -182.5 74.5t-73.5 183.5q0 106 76 183t180.5 77t180 -78t75.5 -182q0 -106 -75 -182t-181 -76zM696 1952q-49 0 -81.5 -33t-32.5 -80q0 -51 32.5 -85t81.5 -34t83 34t34 85q0 47 -34 80t-83 33zM1098 0l-121 348h-569l-123 -348h-262l540 1495h250h12 l541 -1495h-268zM483 563h420l-209 598z" glyph-name="Aring" horiz-adv-x="1388" unicode="Å"/><glyph d="M1800 240l-2 -240l-686 2v-2h-242v373h-424l-141 -373h-285l588 1493h260h2h242l688 -2l-2 -240l-686 2v-383h619l-2 -233h-617v-395zM528 592h342v661h-92z" glyph-name="AE" horiz-adv-x="1918" unicode="Æ"/><glyph d="M1456 381q-70 -178 -229.5 -283.5t-366.5 -120.5l-41 -51h72q70 0 110.5 -46t40.5 -113q0 -72 -40.5 -116t-108.5 -44h-221v114h180q53 0 53 50q0 45 -53 45h-180v112l39 54q-287 29 -458 234.5t-171 526.5q0 350 199.5 564.5t523.5 214.5q238 0 407.5 -120t225.5 -317 l-244 -81q-41 129 -143.5 199.5t-243.5 70.5q-209 0 -334 -143.5t-125 -382.5q0 -242 126 -382.5t331 -140.5q145 0 257 72t155 186z" glyph-name="Ccedilla" horiz-adv-x="1529" unicode="Ç"/><glyph d="M719 1602h-184l-213 325h233zM422 240h674v-240h-928v1495h928v-242h-674v-387h602v-225h-602v-401z" glyph-name="Egrave" horiz-adv-x="1214" unicode="È"/><glyph d="M930 1927l-211 -325h-184l163 325h232zM422 240h674v-240h-928v1495h928v-242h-674v-387h602v-225h-602v-401z" glyph-name="Eacute" horiz-adv-x="1214" unicode="É"/><glyph d="M629 1800l-119 -198h-191l183 327h203h49l182 -327h-191zM422 240h674v-240h-928v1495h928v-242h-674v-387h602v-225h-602v-401z" glyph-name="Ecircumflex" horiz-adv-x="1214" unicode="Ê"/><glyph d="M420 1612q-61 0 -105.5 43t-44.5 104.5t44 104.5t106 43q59 0 103 -44t44 -103.5t-44 -103.5t-103 -44zM835.5 1612q-61.5 0 -105.5 43t-44 104.5t44 104.5t106 43q59 0 104 -44t45 -103.5t-44 -103.5t-105.5 -44zM422 240h674v-240h-928v1495h928v-242h-674v-387h602 v-225h-602v-401z" glyph-name="Edieresis" horiz-adv-x="1214" unicode="Ë"/><glyph d="M203 1602l-213 325h233l164 -325h-184zM422 0h-254v1495h254v-1495z" glyph-name="Igrave" horiz-adv-x="589" unicode="Ì"/><glyph d="M387 1602h-184l164 325h231zM422 0h-254v1495h254v-1495z" glyph-name="Iacute" horiz-adv-x="589" unicode="Í"/><glyph d="M297 1800l-119 -198h-190l182 327h203h49l182 -327h-190zM168 0v1495h254v-1495h-254z" glyph-name="Icircumflex" horiz-adv-x="589" unicode="Î"/><glyph d="M88 1612q-61 0 -105 43t-44 104.5t44 104.5t105 43q59 0 103.5 -44t44.5 -103.5t-44.5 -103.5t-103.5 -44zM503.5 1612q-61.5 0 -105.5 43t-44 104.5t44 104.5t106 43q59 0 104 -44t45 -103.5t-44 -103.5t-105.5 -44zM422 0h-254v1495h254v-1495z" glyph-name="Idieresis" horiz-adv-x="589" unicode="Ï"/><glyph d="M682 1495q326 0 539 -210t213 -539.5t-212 -537.5t-540 -208h-514v643h-141v211h141v641h514zM678 236q223 0 355 140t132 369.5t-134 370.5t-353 141h-256v-403h194v-211h-194v-407h256z" glyph-name="Eth" horiz-adv-x="1540" unicode="Ð"/><glyph d="M588 1647l-156 -2q-20 133 38 207.5t153 74.5q66 0 156.5 -51t129.5 -51q76 0 66 92h155q18 -131 -41 -201.5t-155 -70.5q-70 0 -162 49t-123 49q-67 0 -61 -96zM1130 1495h252v-1495h-252l-710 1090v-1090h-252v1495h252l710 -1089v1089z" glyph-name="Ntilde" horiz-adv-x="1548" unicode="Ñ"/><glyph d="M709 1602l-213 325h233l164 -325h-184zM1524 750q0 -340 -201 -557.5t-524.5 -217.5t-523 216.5t-199.5 556.5q0 338 200.5 556t522.5 218q324 0 524.5 -217t200.5 -555zM1257 749.5q0 239.5 -123.5 382t-332.5 142.5t-333 -142.5t-124 -381.5q0 -242 123 -384.5 t334 -142.5q207 0 331.5 143.5t124.5 383z" glyph-name="Ograve" horiz-adv-x="1601" unicode="Ò"/><glyph d="M893 1602h-184l163 325h232zM1524 750q0 -340 -201 -557.5t-524.5 -217.5t-523 216.5t-199.5 556.5q0 338 200.5 556t522.5 218q324 0 524.5 -217t200.5 -555zM1257 749.5q0 239.5 -123.5 382t-332.5 142.5t-333 -142.5t-124 -381.5q0 -242 123 -384.5t334 -142.5 q207 0 331.5 143.5t124.5 383z" glyph-name="Oacute" horiz-adv-x="1601" unicode="Ó"/><glyph d="M801 1800l-119 -198h-190l182 327h203h49l182 -327h-190zM799 1522q324 0 524.5 -217.5t200.5 -554.5q0 -340 -201 -557.5t-524.5 -217.5t-523 216.5t-199.5 556.5q0 338 200.5 556t522.5 218zM801 223q207 0 331.5 143.5t124.5 383t-123.5 382t-332.5 142.5t-333 -142.5 t-124 -381.5q0 -242 123 -384.5t334 -142.5z" glyph-name="Ocircumflex" horiz-adv-x="1601" unicode="Ô"/><glyph d="M451 1645q-20 133 38 207.5t152 74.5q66 0 157 -51t130 -51q76 0 65 92h156q18 -131 -41 -201.5t-156 -70.5q-70 0 -162 49t-122 49q-68 0 -62 -96zM1524 750q0 -340 -201 -557.5t-524.5 -217.5t-523 216.5t-199.5 556.5q0 338 200.5 556t522.5 218q324 0 524.5 -217 t200.5 -555zM1257 749.5q0 239.5 -123.5 382t-332.5 142.5t-333 -142.5t-124 -381.5q0 -242 123 -384.5t334 -142.5q207 0 331.5 143.5t124.5 383z" glyph-name="Otilde" horiz-adv-x="1601" unicode="Õ"/><glyph d="M594 1612q-61 0 -105.5 43t-44.5 104.5t44 104.5t106 43q59 0 103 -44t44 -103.5t-44 -103.5t-103 -44zM1009.5 1612q-61.5 0 -105.5 43t-44 104.5t44 104.5t106 43q59 0 104 -44t45 -103.5t-44 -103.5t-105.5 -44zM1524 750q0 -340 -201 -557.5t-524.5 -217.5 t-523 216.5t-199.5 556.5q0 338 200.5 556t522.5 218q324 0 524.5 -217t200.5 -555zM1257 749.5q0 239.5 -123.5 382t-332.5 142.5t-333 -142.5t-124 -381.5q0 -242 123 -384.5t334 -142.5q207 0 331.5 143.5t124.5 383z" glyph-name="Odieresis" horiz-adv-x="1601" unicode="Ö"/><glyph d="M1063 346l-158 -156l-303 304l-305 -312l-156 158l303 309l-307 305l156 156l305 -303l303 309l156 -158l-301 -307z" glyph-name="multiply" horiz-adv-x="1200" unicode="×"/><glyph d="M1288 1323q219 -215 219 -573q0 -338 -201.5 -555.5t-525.5 -217.5q-156 0 -286 54l-39 -62h-250l106 172q-252 219 -252 609q0 340 200 556t523 216q188 0 338 -78l54 86h241zM326 749.5q0 -241.5 125 -384.5l538 866q-96 45 -207 45q-209 0 -332.5 -142.5t-123.5 -384z M782 225q207 0 332 142.5t125 382.5q0 207 -92 344l-520 -844q69 -25 155 -25z" glyph-name="Oslash" horiz-adv-x="1611" unicode="Ø"/><glyph d="M662 1602l-213 325h233l164 -325h-184zM154 539v956h254v-948q2 -164 100 -247t245.5 -83t247 88t99.5 242v948h254v-956q0 -266 -174 -416t-426 -150q-250 0 -425 149t-175 417z" glyph-name="Ugrave" horiz-adv-x="1507" unicode="Ù"/><glyph d="M846 1602h-184l163 325h232zM154 539v956h254v-948q2 -164 100 -247t245.5 -83t247 88t99.5 242v948h254v-956q0 -266 -174 -416t-426 -150q-250 0 -425 149t-175 417z" glyph-name="Uacute" horiz-adv-x="1507" unicode="Ú"/><glyph d="M754 1800l-119 -198h-191l183 327h202h50l182 -327h-191zM1100 1495h254v-956q0 -266 -174 -416t-426 -150q-250 0 -425 148.5t-175 417.5v956h254v-948q2 -164 100 -247t245.5 -83t247 88t99.5 242v948z" glyph-name="Ucircumflex" horiz-adv-x="1507" unicode="Û"/><glyph d="M547 1612q-61 0 -105.5 43t-44.5 104.5t44 104.5t106 43q59 0 103 -44t44 -103.5t-44 -103.5t-103 -44zM962.5 1612q-61.5 0 -105.5 43t-44 104.5t44 104.5t106 43q59 0 104 -44t45 -103.5t-44 -103.5t-105.5 -44zM154 539v956h254v-948q2 -164 100 -247t245.5 -83 t247 88t99.5 242v948h254v-956q0 -266 -174 -416t-426 -150q-250 0 -425 149t-175 417z" glyph-name="Udieresis" horiz-adv-x="1507" unicode="Ü"/><glyph d="M752 1602h-185l164 325h232zM18 1495h287l354 -649l355 649h276l-506 -895v-600h-256v600z" glyph-name="Yacute" horiz-adv-x="1308" unicode="Ý"/><glyph d="M174 0v1495h242v-297l299 -2q129 0 231.5 -50t155.5 -129t78.5 -175.5t1 -191.5t-76.5 -175t-155.5 -129t-234.5 -49h-299v-297h-242zM416 528h284q109 0 169.5 69t60.5 150.5t-61.5 150.5t-168.5 69h-284v-439z" glyph-name="Thorn" horiz-adv-x="1325" unicode="Þ"/><glyph d="M901 860q227 -123 227 -401q0 -211 -144 -335t-366 -124q-74 0 -141 18v232q63 -29 137 -29q129 0 204 72t75 182q0 129 -85 198.5t-226 63.5v195q104 0 156.5 56t52.5 130q0 90 -58.5 138.5t-144.5 48.5q-92 0 -149.5 -54.5t-57.5 -165.5l-2 -1085h-242v1061 q0 215 116 338t314 123q193 0 318 -104.5t125 -291.5q0 -157 -109 -266z" glyph-name="germandbls" horiz-adv-x="1202" unicode="ß"/><glyph d="M635 1130h-184l-213 326h233zM995 0h-233q-10 37 -17 115q-96 -141 -311 -142q-164 0 -265 88.5t-101 239.5q0 150 99 232.5t269 82.5h303v39q0 188 -211 189q-178 0 -254 -148l-176 103q127 242 443 241q190 0 313 -98t123 -319v-402q0 -172 18 -221zM741 426v23h-249 q-86 0 -132.5 -39t-46.5 -107q0 -72 48.5 -108.5t136.5 -36.5q100 0 171.5 64.5t71.5 203.5z" glyph-name="agrave" horiz-adv-x="1085" unicode="à"/><glyph d="M846 1456l-211 -326h-184l163 326h232zM995 0h-233q-10 37 -17 115q-96 -141 -311 -142q-164 0 -265 88.5t-101 239.5q0 150 99 232.5t269 82.5h303v39q0 188 -211 189q-178 0 -254 -148l-176 103q127 242 443 241q190 0 313 -98t123 -319v-402q0 -172 18 -221zM741 426 v23h-249q-86 0 -132.5 -39t-46.5 -107q0 -72 48.5 -108.5t136.5 -36.5q100 0 171.5 64.5t71.5 203.5z" glyph-name="aacute" horiz-adv-x="1085" unicode="á"/><glyph d="M545 1329l-119 -199h-190l182 328h203h49l182 -328h-190zM995 0h-233q-10 37 -17 115q-96 -141 -311 -142q-164 0 -265 88.5t-101 239.5q0 150 99 232.5t269 82.5h303v39q0 188 -211 189q-178 0 -254 -148l-176 103q127 242 443 241q190 0 313 -98t123 -319v-402 q0 -172 18 -221zM741 426v23h-249q-86 0 -132.5 -39t-46.5 -107q0 -72 48.5 -108.5t136.5 -36.5q100 0 171.5 64.5t71.5 203.5z" glyph-name="acircumflex" horiz-adv-x="1085" unicode="â"/><glyph d="M350 1176l-155 -2q-20 133 38 207.5t152 74.5q66 0 157 -51t130 -51q76 0 65 92h156q18 -131 -41 -201.5t-156 -70.5q-70 0 -162 49t-122 49q-68 0 -62 -96zM995 0h-233q-10 37 -17 115q-96 -141 -311 -142q-164 0 -265 88.5t-101 239.5q0 150 99 232.5t269 82.5h303v39 q0 188 -211 189q-178 0 -254 -148l-176 103q127 242 443 241q190 0 313 -98t123 -319v-402q0 -172 18 -221zM741 426v23h-249q-86 0 -132.5 -39t-46.5 -107q0 -72 48.5 -108.5t136.5 -36.5q100 0 171.5 64.5t71.5 203.5z" glyph-name="atilde" horiz-adv-x="1085" unicode="ã"/><glyph d="M336 1141q-61 0 -105.5 43t-44.5 104.5t44 104.5t106 43q59 0 103 -44t44 -103.5t-44 -103.5t-103 -44zM751.5 1141q-61.5 0 -105.5 43t-44 104.5t44 104.5t106 43q59 0 104 -44t45 -103.5t-44 -103.5t-105.5 -44zM995 0h-233q-10 37 -17 115q-96 -141 -311 -142 q-164 0 -265 88.5t-101 239.5q0 150 99 232.5t269 82.5h303v39q0 188 -211 189q-178 0 -254 -148l-176 103q127 242 443 241q190 0 313 -98t123 -319v-402q0 -172 18 -221zM741 426v23h-249q-86 0 -132.5 -39t-46.5 -107q0 -72 48.5 -108.5t136.5 -36.5q100 0 171.5 64.5 t71.5 203.5z" glyph-name="adieresis" horiz-adv-x="1085" unicode="ä"/><glyph d="M543 1106q-109 0 -182.5 74.5t-73.5 183.5q0 106 75.5 183t180 77t180.5 -78t76 -182q0 -106 -75 -182t-181 -76zM543 1481q-49 0 -82 -33t-33 -80q0 -51 33 -85t82 -34t82.5 34t33.5 85q0 47 -33.5 80t-82.5 33zM995 0h-233q-10 37 -17 115q-96 -141 -311 -142 q-164 0 -265 88.5t-101 239.5q0 150 99 232.5t269 82.5h303v39q0 188 -211 189q-178 0 -254 -148l-176 103q127 242 443 241q190 0 313 -98t123 -319v-402q0 -172 18 -221zM741 426v23h-249q-86 0 -132.5 -39t-46.5 -107q0 -72 48.5 -108.5t136.5 -36.5q100 0 171.5 64.5 t71.5 203.5z" glyph-name="aring" horiz-adv-x="1085" unicode="å"/><glyph d="M1753 530q2 0 0 -57v-57h-762q16 -111 91 -172.5t184 -61.5q180 0 266 152l184 -96q-61 -127 -183 -195t-273 -68q-127 0 -226.5 50.5t-154.5 138.5q-51 -90 -152.5 -139.5t-228.5 -49.5q-176 0 -289 85t-113 239q0 139 87 221t229 82h252q80 0 79 70q0 84 -55 125 t-131 43q-88 4 -160.5 -37t-111.5 -117l-176 102q68 117 183.5 184.5t246.5 67.5q252 0 350 -172q129 174 373 174q221 0 356 -141.5t135 -370.5zM991 592h518q-4 111 -75.5 180.5t-182.5 69.5q-106 0 -177 -68.5t-83 -181.5zM745 391v41h-256q-72 0 -110.5 -38t-38.5 -95 q0 -68 50 -102.5t132 -34.5q111 0 167 63.5t56 165.5z" glyph-name="ae" horiz-adv-x="1835" unicode="æ"/><glyph d="M594 195q90 0 159.5 46t96.5 124l207 -78q-45 -131 -155.5 -213t-256.5 -97l-39 -49h72q70 0 110.5 -46t40.5 -113q0 -72 -40.5 -116t-108.5 -44h-221v115h180q53 0 53 49q0 45 -53 45h-180v112l37 52q-195 29 -309.5 169t-114.5 355q0 242 141 388t377 146 q174 0 299 -85t168 -226l-209 -84q-27 82 -96.5 129t-157.5 47q-129 0 -204 -86t-75 -229q0 -145 76 -228t203 -83z" glyph-name="ccedilla" horiz-adv-x="1128" unicode="ç"/><glyph d="M672 1130h-185l-213 326h234zM1075 506v-90h-774q12 -117 88 -175.5t186 -58.5q184 0 259 154l202 -80q-57 -133 -180 -208t-281 -75q-225 0 -364 145.5t-139 385t139 388t369 148.5q225 0 360 -146t135 -388zM573.5 838q-112.5 0 -183.5 -65.5t-85 -186.5h524 q-8 125 -75.5 188.5t-180 63.5z" glyph-name="egrave" horiz-adv-x="1146" unicode="è"/><glyph d="M881 1456l-211 -326h-185l164 326h232zM1075 506v-90h-774q12 -117 88 -175.5t186 -58.5q184 0 259 154l202 -80q-57 -133 -180 -208t-281 -75q-225 0 -364 145.5t-139 385t139 388t369 148.5q225 0 360 -146t135 -388zM573.5 838q-112.5 0 -183.5 -65.5t-85 -186.5h524 q-8 125 -75.5 188.5t-180 63.5z" glyph-name="eacute" horiz-adv-x="1146" unicode="é"/><glyph d="M580 1329l-119 -199h-191l183 328h202h50l182 -328h-191zM1075 506v-90h-774q12 -117 88 -175.5t186 -58.5q184 0 259 154l202 -80q-57 -133 -180 -208t-281 -75q-225 0 -364 145.5t-139 385t139 388t369 148.5q225 0 360 -146t135 -388zM573.5 838 q-112.5 0 -183.5 -65.5t-85 -186.5h524q-8 125 -75.5 188.5t-180 63.5z" glyph-name="ecircumflex" horiz-adv-x="1146" unicode="ê"/><glyph d="M358 1110q-61 0 -105 44t-44 103q0 63 44 106.5t105 43.5q59 0 103.5 -44t44.5 -106q0 -59 -44.5 -103t-103.5 -44zM774.5 1110q-61.5 0 -105.5 44t-44 103q0 63 44 106.5t105 43.5q59 0 104.5 -44t45.5 -106q0 -59 -44 -103t-105.5 -44zM1075 506v-90h-774 q12 -117 88 -175.5t186 -58.5q184 0 259 154l202 -80q-57 -133 -180 -208t-281 -75q-225 0 -364 145.5t-139 385t139 388t369 148.5q225 0 360 -146t135 -388zM573.5 838q-112.5 0 -183.5 -65.5t-85 -186.5h524q-8 125 -75.5 188.5t-180 63.5z" glyph-name="edieresis" horiz-adv-x="1146" unicode="ë"/><glyph d="M143 1130l-213 326h234l164 -326h-185zM115 1010h241v-1010h-241v1010z" glyph-name="igrave" horiz-adv-x="471" unicode="ì"/><glyph d="M328 1130h-185l164 326h232zM115 1010h241v-1010h-241v1010z" glyph-name="iacute" horiz-adv-x="471" unicode="í"/><glyph d="M238 1329l-119 -199h-191l183 328h202h49l183 -328h-191zM115 0v1010h241v-1010h-241z" glyph-name="icircumflex" horiz-adv-x="471" unicode="î"/><glyph d="M29 1141q-61 0 -105.5 43t-44.5 104.5t44 104.5t106 43q59 0 103 -44t44 -103.5t-44 -103.5t-103 -44zM444.5 1141q-61.5 0 -105.5 43t-44 104.5t44 104.5t105 43q59 0 104.5 -44t45.5 -103.5t-44 -103.5t-105.5 -44zM115 1010h241v-1010h-241v1010z" glyph-name="idieresis" horiz-adv-x="471" unicode="ï"/><glyph d="M926 1425q158 -152 244.5 -368.5t86.5 -438.5q0 -305 -166.5 -475t-431.5 -170q-262 0 -419.5 163t-157.5 415q0 244 162 399.5t387 157.5q190 0 307 -92q-63 162 -182 272l-144 -119l-108 138l123 100q-68 57 -160 111l127 159q119 -61 205 -133l137 113l113 -131z M664 199q158 0 247.5 100t89.5 242q0 143 -91 241.5t-242 98.5q-156 0 -248 -99.5t-92 -243t90 -241.5t246 -98z" glyph-name="eth" horiz-adv-x="1339" unicode="ð"/><glyph d="M420 1176l-156 -2q-20 133 38 207.5t153 74.5q66 0 156.5 -51t129.5 -51q76 0 66 92h156q18 -131 -41.5 -201.5t-155.5 -70.5q-70 0 -162 49t-123 49q-67 0 -61 -96zM666 1040q195 0 302 -108.5t107 -308.5v-623h-241v571q0 76 -21.5 129.5t-57.5 78t-70 33.5t-71 9 q-98 0 -171.5 -63.5t-73.5 -194.5v-563h-242v1010h227l8 -109q43 63 124.5 101t179.5 38z" glyph-name="ntilde" horiz-adv-x="1196" unicode="ñ"/><glyph d="M506 1130l-213 326h233l164 -326h-184zM72 506q0 236 145 384t381 148q233 0 378.5 -148.5t145.5 -383.5q0 -233 -145.5 -382t-378.5 -149q-236 0 -381 149t-145 382zM315 508q0 -139 78 -227t205 -88q125 0 202 88t77 227t-77 226t-202 87q-127 0 -205 -87t-78 -226z " glyph-name="ograve" horiz-adv-x="1193" unicode="ò"/><glyph d="M688 1130h-184l164 326h231zM72 506q0 236 145 384t381 148q233 0 378.5 -148.5t145.5 -383.5q0 -233 -145.5 -382t-378.5 -149q-236 0 -381 149t-145 382zM315 508q0 -139 78 -227t205 -88q125 0 202 88t77 227t-77 226t-202 87q-127 0 -205 -87t-78 -226z" glyph-name="oacute" horiz-adv-x="1193" unicode="ó"/><glyph d="M598 1329l-119 -199h-190l182 328h203h49l182 -328h-190zM598 1038q233 0 378.5 -148.5t145.5 -383.5q0 -233 -145.5 -382t-378.5 -149q-236 0 -381 148.5t-145 382.5q0 236 145 384t381 148zM598 193q125 0 202 88t77 227t-77 226t-202 87q-127 0 -205 -87t-78 -226 t78 -227t205 -88z" glyph-name="ocircumflex" horiz-adv-x="1193" unicode="ô"/><glyph d="M248 1174q-20 133 38 207.5t152 74.5q66 0 157 -51t130 -51q76 0 66 92h155q18 -131 -41 -201.5t-155 -70.5q-70 0 -162 49t-123 49q-68 0 -62 -96zM72 506q0 236 145 384t381 148q233 0 378.5 -148.5t145.5 -383.5q0 -233 -145.5 -382t-378.5 -149q-236 0 -381 149 t-145 382zM315 508q0 -139 78 -227t205 -88q125 0 202 88t77 227t-77 226t-202 87q-127 0 -205 -87t-78 -226z" glyph-name="otilde" horiz-adv-x="1193" unicode="õ"/><glyph d="M389 1141q-61 0 -105 43t-44 104.5t44 104.5t105 43q59 0 103.5 -44t44.5 -103.5t-44.5 -103.5t-103.5 -44zM804.5 1141q-61.5 0 -105.5 43t-44 104.5t44 104.5t106 43q59 0 104 -44t45 -103.5t-44 -103.5t-105.5 -44zM72 506q0 236 145 384t381 148q233 0 378.5 -148.5 t145.5 -383.5q0 -233 -145.5 -382t-378.5 -149q-236 0 -381 149t-145 382zM315 508q0 -139 78 -227t205 -88q125 0 202 88t77 227t-77 226t-202 87q-127 0 -205 -87t-78 -226z" glyph-name="odieresis" horiz-adv-x="1193" unicode="ö"/><glyph d="M561 864q-63 0 -107 44t-44 104q0 61 44 105t107 44q59 0 104.5 -44t45.5 -105q0 -59 -45.5 -103.5t-104.5 -44.5zM164 731h792v-190h-792v190zM561 94q-61 0 -106 45t-45 105q0 61 44 105t107 44q59 0 104.5 -44t45.5 -105q0 -59 -45.5 -104.5t-104.5 -45.5z" glyph-name="divide" horiz-adv-x="1120" unicode="÷"/><glyph d="M956 909q166 -154 166 -403q0 -233 -145.5 -382t-378.5 -149q-111 0 -197 33l-67 -110h-217l125 202q-170 150 -170 406q0 236 145 384t381 148q111 0 205 -34l61 96h211zM315 508q0 -119 58 -201l311 502q-41 12 -86 12q-127 0 -205 -87t-78 -226zM598 193q125 0 202 88 t77 227q0 115 -50 190l-305 -495q37 -10 76 -10z" glyph-name="oslash" horiz-adv-x="1193" unicode="ø"/><glyph d="M692 1130h-184l-213 326h233zM1096 0h-240q-12 43 -18 113q-90 -139 -299 -140q-78 0 -146.5 20.5t-132 65.5t-100.5 132.5t-37 205.5v615h244v-570q0 -76 21.5 -129t58 -77.5t71.5 -35t72 -10.5q96 0 170 62.5t74 196.5v561h241v-824q1 -108 21 -186z" glyph-name="ugrave" horiz-adv-x="1218" unicode="ù"/><glyph d="M901 1456l-211 -326h-184l164 326h231zM1096 0h-240q-12 43 -18 113q-90 -139 -299 -140q-78 0 -146.5 20.5t-132 65.5t-100.5 132.5t-37 205.5v615h244v-570q0 -76 21.5 -129t58 -77.5t71.5 -35t72 -10.5q96 0 170 62.5t74 196.5v561h241v-824q1 -108 21 -186z" glyph-name="uacute" horiz-adv-x="1218" unicode="ú"/><glyph d="M600 1329l-119 -199h-190l182 328h203h49l182 -328h-190zM1096 0h-240q-12 43 -18 113q-90 -139 -299 -140q-78 0 -146.5 20.5t-132 65.5t-100.5 132.5t-37 205.5v615h244v-570q0 -76 21.5 -129t58 -77.5t71.5 -35t72 -10.5q96 0 170 62.5t74 196.5v561h241v-824 q1 -108 21 -186z" glyph-name="ucircumflex" horiz-adv-x="1218" unicode="û"/><glyph d="M391 1141q-61 0 -105 43t-44 104.5t44 104.5t105 43q59 0 103.5 -44t44.5 -103.5t-44.5 -103.5t-103.5 -44zM806.5 1141q-61.5 0 -105.5 43t-44 104.5t44 104.5t106 43q59 0 104 -44t45 -103.5t-44 -103.5t-105.5 -44zM1096 0h-240q-12 43 -18 113q-90 -139 -299 -140 q-78 0 -146.5 20.5t-132 65.5t-100.5 132.5t-37 205.5v615h244v-570q0 -76 21.5 -129t58 -77.5t71.5 -35t72 -10.5q96 0 170 62.5t74 196.5v561h241v-824q1 -108 21 -186z" glyph-name="udieresis" horiz-adv-x="1218" unicode="ü"/><glyph d="M866 1456l-211 -326h-184l164 326h231zM848 1010h254l-479 -1246q-143 -373 -564 -206l68 219q55 -35 110.5 -45.5t106.5 17.5t76 97l35 95l-430 1069h254l290 -758z" glyph-name="yacute" horiz-adv-x="1124" unicode="ý"/><glyph d="M1227 518q4 -252 -135.5 -397.5t-358.5 -145.5q-113 0 -205 39t-141 109v-586h-242v1958h242v-596q102 143 338 143q223 0 360.5 -139t141.5 -385zM690 195q131 0 211 85t80 226t-80 228t-211 87q-133 0 -213 -86t-80 -229q0 -141 80 -226t213 -85z" glyph-name="thorn" horiz-adv-x="1308" unicode="þ"/><glyph d="M356 1141q-61 0 -105 43t-44 104.5t44 104.5t105 43q59 0 103.5 -44t44.5 -103.5t-44.5 -103.5t-103.5 -44zM772.5 1141q-61.5 0 -105.5 43t-44 104.5t44 104.5t105 43q59 0 104.5 -44t45.5 -103.5t-44 -103.5t-105.5 -44zM848 1010h254l-479 -1246q-143 -373 -564 -206 l68 219q55 -35 110.5 -45.5t106.5 17.5t76 97l35 95l-430 1069h254l290 -758z" glyph-name="ydieresis" horiz-adv-x="1124" unicode="ÿ"/><glyph d="M1010 1792v-160h-627v160h627zM1098 0l-121 348h-569l-123 -348h-262l540 1495h250h12l541 -1495h-268zM483 563h420l-209 598z" glyph-name="Amacron" horiz-adv-x="1388" unicode="Ā"/><glyph d="M856 1321v-160h-627v160h627zM995 0h-233q-10 37 -17 115q-96 -141 -311 -142q-164 0 -265 88.5t-101 239.5q0 150 99 232.5t269 82.5h303v39q0 188 -211 189q-178 0 -254 -148l-176 103q127 242 443 241q190 0 313 -98t123 -319v-402q0 -172 18 -221zM741 426v23h-249 q-86 0 -132.5 -39t-46.5 -107q0 -72 48.5 -108.5t136.5 -36.5q100 0 171.5 64.5t71.5 203.5z" glyph-name="amacron" horiz-adv-x="1085" unicode="ā"/><glyph d="M696 1602q-145 0 -243.5 94t-100.5 229h187q2 -68 46 -104.5t111.5 -36.5t111.5 38t46 103h184q-2 -135 -100.5 -229t-241.5 -94zM1098 0l-121 348h-569l-123 -348h-262l540 1495h250h12l541 -1495h-268zM483 563h420l-209 598z" glyph-name="Abreve" horiz-adv-x="1388" unicode="Ă"/><glyph d="M545 1130q-145 0 -243.5 94.5t-100.5 229.5h186q2 -68 46 -104.5t111.5 -36.5t111.5 38t46 103h185q-2 -135 -100.5 -229.5t-241.5 -94.5zM995 0h-233q-10 37 -17 115q-96 -141 -311 -142q-164 0 -265 88.5t-101 239.5q0 150 99 232.5t269 82.5h303v39q0 188 -211 189 q-178 0 -254 -148l-176 103q127 242 443 241q190 0 313 -98t123 -319v-402q0 -172 18 -221zM741 426v23h-249q-86 0 -132.5 -39t-46.5 -107q0 -72 48.5 -108.5t136.5 -36.5q100 0 171.5 64.5t71.5 203.5z" glyph-name="abreve" horiz-adv-x="1085" unicode="ă"/><glyph d="M1376 0q-121 -45 -139 -129q-12 -61 39 -86q39 -18 90 2v-164q-66 -20 -122 -17t-93 27.5t-60.5 60.5t-25.5 81t12.5 87t52 80t95.5 58h-127l-121 348h-569l-123 -348h-262l540 1495h250h12l541 -1495h10zM483 563h420l-209 598z" glyph-name="Aogonek" horiz-adv-x="1388" unicode="Ą"/><glyph d="M997 0q-121 -45 -139 -129q-12 -61 39 -86q39 -18 90 2v-164q-66 -20 -122 -17t-93 27.5t-60.5 60.5t-25.5 81t12.5 87t52 80t95.5 58h-84q-10 37 -17 115q-96 -141 -311 -142q-164 0 -265 88.5t-101 239.5q0 150 99 232.5t269 82.5h303v39q0 188 -211 189 q-178 0 -254 -148l-176 103q127 242 443 241q190 0 313 -98t123 -319v-402q0 -172 18 -221h2zM741 426v23h-249q-86 0 -132.5 -39t-46.5 -107q0 -72 48.5 -108.5t136.5 -36.5q100 0 171.5 64.5t71.5 203.5z" glyph-name="aogonek" horiz-adv-x="1085" unicode="ą"/><glyph d="M901 1602h-184l164 325h231zM1438 1085l-244 -81q-41 129 -143.5 199.5t-243.5 70.5q-209 0 -334 -143.5t-125 -382.5q0 -242 126 -382.5t331 -140.5q145 0 257 72t155 186l239 -102q-76 -190 -252 -298t-401 -108q-324 0 -522.5 211t-198.5 557q0 350 199.5 564.5 t523.5 214.5q238 0 408 -120t225 -317z" glyph-name="Cacute" horiz-adv-x="1529" unicode="Ć"/><glyph d="M659 1130h-184l164 326h231zM72 506q0 242 141 388t377 146q174 0 299 -85t168 -226l-209 -84q-27 82 -96.5 129t-157.5 47q-129 0 -204 -86t-75 -229q0 -145 76 -228t203 -83q90 0 159.5 46t96.5 124l207 -78q-51 -145 -178 -229.5t-291 -84.5q-233 0 -374.5 146.5 t-141.5 386.5z" glyph-name="cacute" horiz-adv-x="1128" unicode="ć"/><glyph d="M811 1800l-119 -198h-190l182 327h203h49l182 -327h-190zM1217 483l239 -102q-76 -190 -252 -298t-401 -108q-324 0 -522.5 211t-198.5 557q0 350 199.5 564.5t523.5 214.5q238 0 407.5 -120t225.5 -317l-244 -81q-41 129 -143.5 199.5t-243.5 70.5q-209 0 -334 -143.5 t-125 -382.5q0 -242 126 -382.5t331 -140.5q145 0 257 71.5t155 186.5z" glyph-name="Ccircumflex" horiz-adv-x="1529" unicode="Ĉ"/><glyph d="M569 1329l-118 -199h-191l182 328h203h49l183 -328h-191zM594 195q90 0 159.5 46t96.5 124l207 -78q-51 -145 -178 -229.5t-291 -84.5q-233 0 -374.5 146.5t-141.5 386.5q0 242 141 388t377 146q174 0 299 -85t168 -226l-209 -84q-27 82 -96.5 129t-157.5 47 q-129 0 -204 -86t-75 -229q0 -145 76 -228t203 -83z" glyph-name="ccircumflex" horiz-adv-x="1128" unicode="ĉ"/><glyph d="M809 1612q-61 0 -104 43t-43 104.5t44 105.5t103 44t103 -45t44 -104.5t-44 -103.5t-103 -44zM1438 1085l-244 -81q-41 129 -143.5 199.5t-243.5 70.5q-209 0 -334 -143.5t-125 -382.5q0 -242 126 -382.5t331 -140.5q145 0 257 72t155 186l239 -102q-76 -190 -252 -298 t-401 -108q-324 0 -522.5 211t-198.5 557q0 350 199.5 564.5t523.5 214.5q238 0 408 -120t225 -317z" glyph-name="Cdotaccent" horiz-adv-x="1529" unicode="Ċ"/><glyph d="M569 1141q-61 0 -104 43t-43 104.5t44 105.5t103.5 44t103.5 -45t44 -104.5t-44.5 -103.5t-103.5 -44zM72 506q0 242 141 388t377 146q174 0 299 -85t168 -226l-209 -84q-27 82 -96.5 129t-157.5 47q-129 0 -204 -86t-75 -229q0 -145 76 -228t203 -83q90 0 159.5 46 t96.5 124l207 -78q-51 -145 -178 -229.5t-291 -84.5q-233 0 -374.5 146.5t-141.5 386.5z" glyph-name="cdotaccent" horiz-adv-x="1128" unicode="ċ"/><glyph d="M684 1602l-182 327h190l119 -198l117 198h190l-182 -327h-252zM1217 483l239 -102q-76 -190 -252 -298t-401 -108q-324 0 -522.5 211t-198.5 557q0 350 199.5 564.5t523.5 214.5q238 0 407.5 -120t225.5 -317l-244 -81q-41 129 -143.5 199.5t-243.5 70.5 q-209 0 -334 -143.5t-125 -382.5q0 -242 126 -382.5t331 -140.5q145 0 257 71.5t155 186.5z" glyph-name="Ccaron" horiz-adv-x="1529" unicode="Č"/><glyph d="M442 1130l-182 328h191l118 -198l117 198h191l-183 -328h-252zM594 195q90 0 159.5 46t96.5 124l207 -78q-51 -145 -178 -229.5t-291 -84.5q-233 0 -374.5 146.5t-141.5 386.5q0 242 141 388t377 146q174 0 299 -85t168 -226l-209 -84q-27 82 -96.5 129t-157.5 47 q-129 0 -204 -86t-75 -229q0 -145 76 -228t203 -83z" glyph-name="ccaron" horiz-adv-x="1128" unicode="č"/><glyph d="M475 1602l-182 327h190l119 -198l117 198h190l-182 -327h-252zM682 1495q326 0 539 -210t213 -539.5t-212 -537.5t-540 -208h-514v1495h514zM678 236q223 0 355 140t132 369.5t-134 370.5t-353 141h-256v-1021h256z" glyph-name="Dcaron" horiz-adv-x="1515" unicode="Ď"/><glyph d="M1364 1538q41 0 70.5 -30.5t23.5 -82.5l-39 -374h-116l-37 374q-6 51 24.5 82t73.5 31zM1151 1522v-1268q6 -213 20 -254h-243q-10 66 -17 133q-51 -76 -142 -118t-200 -42q-223 0 -361 140.5t-138 392.5q0 238 140 386t359 148q104 0 196.5 -35.5t143.5 -105.5v623h242z M608 195q131 0 211 86t80 229q0 141 -80 226t-211 85t-212 -85t-81 -226t81 -228t212 -87z" glyph-name="dcaron" horiz-adv-x="1521" unicode="ď"/><glyph d="M682 1495q326 0 539 -210t213 -539.5t-212 -537.5t-540 -208h-514v643h-141v211h141v641h514zM678 236q223 0 355 140t132 369.5t-134 370.5t-353 141h-256v-403h194v-211h-194v-407h256z" glyph-name="Dcroat" horiz-adv-x="1540" unicode="Đ"/><glyph d="M1292 1153h-139v-899q0 -188 18 -254h-241q-10 63 -17 135q-49 -78 -140 -120t-202 -42q-223 0 -361 140.5t-138 392.5q0 238 142 386t366 148q98 0 188 -37.5t143 -109.5v260h-348v195h348v174h242v-174h139v-195zM610 195q131 0 211 86t80 227t-80 227t-211 86 t-212 -86t-81 -227t81 -227t212 -86z" glyph-name="dcroat" horiz-adv-x="1294" unicode="đ"/><glyph d="M940 1792v-160h-627v160h627zM422 240h674v-240h-928v1495h928v-242h-674v-387h602v-225h-602v-401z" glyph-name="Emacron" horiz-adv-x="1214" unicode="Ē"/><glyph d="M893 1321v-160h-627v160h627zM1075 506v-90h-774q12 -117 88 -175.5t186 -58.5q184 0 259 154l202 -80q-57 -133 -180 -208t-281 -75q-225 0 -364 145.5t-139 385t139 388t369 148.5q225 0 360 -146t135 -388zM573.5 838q-112.5 0 -183.5 -65.5t-85 -186.5h524 q-8 125 -75.5 188.5t-180 63.5z" glyph-name="emacron" horiz-adv-x="1146" unicode="ē"/><glyph d="M629 1602q-147 0 -245.5 96t-98.5 233h186q0 -70 44 -108.5t113.5 -38.5t113.5 39t44 108h185q0 -137 -98.5 -233t-243.5 -96zM422 240h674v-240h-928v1495h928v-242h-674v-387h602v-225h-602v-401z" glyph-name="Ebreve" horiz-adv-x="1214" unicode="Ĕ"/><glyph d="M580 1130q-147 0 -245.5 96.5t-98.5 233.5h186q0 -70 44 -108.5t113.5 -38.5t113.5 39t44 108h185q0 -137 -98.5 -233.5t-243.5 -96.5zM1075 506v-90h-774q12 -117 88 -175.5t186 -58.5q184 0 259 154l202 -80q-57 -133 -180 -208t-281 -75q-225 0 -364 145.5t-139 385 t139 388t369 148.5q225 0 360 -146t135 -388zM573.5 838q-112.5 0 -183.5 -65.5t-85 -186.5h524q-8 125 -75.5 188.5t-180 63.5z" glyph-name="ebreve" horiz-adv-x="1146" unicode="ĕ"/><glyph d="M627 1612q-61 0 -104.5 43t-43.5 104.5t44 105.5t103.5 44t103.5 -45t44 -104.5t-44 -103.5t-103 -44zM422 240h674v-240h-928v1495h928v-242h-674v-387h602v-225h-602v-401z" glyph-name="Edotaccent" horiz-adv-x="1214" unicode="Ė"/><glyph d="M578 1141q-61 0 -104.5 43t-43.5 104.5t44 105.5t103.5 44t103.5 -45t44 -104.5t-44 -103.5t-103 -44zM1075 506v-90h-774q12 -117 88 -175.5t186 -58.5q184 0 259 154l202 -80q-57 -133 -180 -208t-281 -75q-225 0 -364 145.5t-139 385t139 388t369 148.5 q225 0 360 -146t135 -388zM573.5 838q-112.5 0 -183.5 -65.5t-85 -186.5h524q-8 125 -75.5 188.5t-180 63.5z" glyph-name="edotaccent" horiz-adv-x="1146" unicode="ė"/><glyph d="M422 240h674v-240h-2q-121 -45 -140 -129q-12 -61 39 -86q39 -18 90 2v-164q-66 -20 -122 -17t-93 27.5t-60.5 60.5t-25.5 81t12.5 87t52.5 80t95 58h-774v1495h928v-242h-674v-387h602v-225h-602v-401z" glyph-name="Eogonek" horiz-adv-x="1214" unicode="Ę"/><glyph d="M1075 506v-90h-774q12 -117 88 -175.5t186 -58.5q184 0 259 154l202 -80q-47 -111 -141 -181.5t-219 -92.5q-113 -51 -119 -132q-4 -59 51 -77q35 -12 80 6v-164q-88 -27 -156.5 -13.5t-102.5 61.5t-42 104.5t25.5 116t101.5 93.5q-201 20 -321.5 163t-120.5 364 q0 240 139 388t369 148q225 0 360 -146t135 -388zM573.5 838q-112.5 0 -183.5 -65.5t-85 -186.5h524q-8 125 -75.5 188.5t-180 63.5z" glyph-name="eogonek" horiz-adv-x="1146" unicode="ę"/><glyph d="M502 1602l-183 327h191l119 -198l116 198h191l-182 -327h-252zM422 240h674v-240h-928v1495h928v-242h-674v-387h602v-225h-602v-401z" glyph-name="Ecaron" horiz-adv-x="1214" unicode="Ě"/><glyph d="M453 1130l-183 328h191l119 -198l116 198h191l-182 -328h-252zM1075 506v-90h-774q12 -117 88 -175.5t186 -58.5q184 0 259 154l202 -80q-57 -133 -180 -208t-281 -75q-225 0 -364 145.5t-139 385t139 388t369 148.5q225 0 360 -146t135 -388zM573.5 838 q-112.5 0 -183.5 -65.5t-85 -186.5h524q-8 125 -75.5 188.5t-180 63.5z" glyph-name="ecaron" horiz-adv-x="1146" unicode="ě"/><glyph d="M776 1802l-119 -198h-190l182 327h203h49l182 -327h-190zM778 856h695v-856h-220l-12 168q-70 -92 -194.5 -141.5t-266.5 -49.5q-313 0 -505.5 214.5t-192.5 551.5q0 344 201.5 561.5t533.5 217.5q236 0 407 -111t236 -297l-227 -94q-49 133 -159.5 198.5t-254.5 65.5 q-221 0 -350 -149.5t-129 -397.5t128 -385t335 -137q70 0 135.5 15.5t131 51t110.5 105.5t57 168v78h-459v223z" glyph-name="Gcircumflex" horiz-adv-x="1591" unicode="Ĝ"/><glyph d="M557 1350l-117 -174h-190l182 288h203h47l184 -288h-192zM737 115q168 0 261.5 -80t93.5 -221q0 -117 -82 -193t-198 -102.5t-265 -28.5q-514 0 -514 262q0 72 36.5 127t102.5 84q-96 63 -96 187q0 59 33.5 120.5t107.5 89.5q-115 111 -115 277q0 180 126 291.5 t331 111.5q129 0 238 -49q37 74 113.5 113t176.5 29v-199q-106 14 -163 -41q88 -104 88 -254q0 -180 -124 -290.5t-327 -110.5q-98 0 -190 32q-96 -4 -97 -82q0 -29 26 -51t81 -22h356zM557 848q-98 0 -159.5 -59.5t-61.5 -149.5q0 -92 61.5 -150.5t159.5 -58.5 q100 2 159.5 60.5t59.5 144.5q0 88 -60.5 150.5t-158.5 62.5zM553 -305q98 0 158.5 8t102.5 34.5t42 76.5q0 102 -158 102h-348q-6 0 -16 1t-15 1q-78 -29 -77.5 -102.5t79 -97t232.5 -23.5z" glyph-name="gcircumflex" horiz-adv-x="1128" unicode="ĝ"/><glyph d="M776 1604q-147 0 -245.5 96t-98.5 233h186q0 -70 44.5 -108.5t114 -38.5t113.5 39t44 108h184q0 -137 -98.5 -233t-243.5 -96zM778 856h695v-856h-220l-12 168q-70 -92 -194.5 -141.5t-266.5 -49.5q-313 0 -505.5 214.5t-192.5 551.5q0 344 201.5 561.5t533.5 217.5 q236 0 407 -111t236 -297l-227 -94q-49 133 -159.5 198.5t-254.5 65.5q-221 0 -350 -149.5t-129 -397.5t128 -385t335 -137q70 0 135.5 15.5t131 51t110.5 105.5t57 168v78h-459v223z" glyph-name="Gbreve" horiz-adv-x="1591" unicode="Ğ"/><glyph d="M569 1130q-147 0 -245.5 96.5t-98.5 233.5h187q0 -70 44 -108.5t113.5 -38.5t113.5 39t44 108h184q0 -137 -98.5 -233.5t-243.5 -96.5zM737 115q168 0 261.5 -80t93.5 -221q0 -117 -82 -193t-198 -102.5t-265 -28.5q-514 0 -514 262q0 72 36.5 127t102.5 84 q-96 63 -96 187q0 59 33.5 120.5t107.5 89.5q-115 111 -115 277q0 180 126 291.5t331 111.5q129 0 238 -49q37 74 113.5 113t176.5 29v-199q-106 14 -163 -41q88 -104 88 -254q0 -180 -124 -290.5t-327 -110.5q-98 0 -190 32q-96 -4 -97 -82q0 -29 26 -51t81 -22h356z M557 848q-98 0 -159.5 -59.5t-61.5 -149.5q0 -92 61.5 -150.5t159.5 -58.5q100 2 159.5 60.5t59.5 144.5q0 88 -60.5 150.5t-158.5 62.5zM553 -305q98 0 158.5 8t102.5 34.5t42 76.5q0 102 -158 102h-348q-6 0 -16 1t-15 1q-78 -29 -77.5 -102.5t79 -97t232.5 -23.5z" glyph-name="gbreve" horiz-adv-x="1128" unicode="ğ"/><glyph d="M776 1614q-61 0 -104 43t-43 104.5t44 105.5t103.5 44t103.5 -45t44 -104.5t-44.5 -103.5t-103.5 -44zM778 856h695v-856h-220l-12 168q-70 -92 -194.5 -141.5t-266.5 -49.5q-313 0 -505.5 214.5t-192.5 551.5q0 344 201.5 561.5t533.5 217.5q236 0 407 -111t236 -297 l-227 -94q-49 133 -159.5 198.5t-254.5 65.5q-221 0 -350 -149.5t-129 -397.5t128 -385t335 -137q70 0 135.5 15.5t131 51t110.5 105.5t57 168v78h-459v223z" glyph-name="Gdotaccent" horiz-adv-x="1591" unicode="Ġ"/><glyph d="M569 1141q-61 0 -104 43t-43 104.5t44 105.5t103.5 44t103.5 -45t44 -104.5t-44.5 -103.5t-103.5 -44zM737 115q168 0 261.5 -80t93.5 -221q0 -117 -82 -193t-198 -102.5t-265 -28.5q-514 0 -514 262q0 72 36.5 127t102.5 84q-96 63 -96 187q0 59 33.5 120.5t107.5 89.5 q-115 111 -115 277q0 180 126 291.5t331 111.5q129 0 238 -49q37 74 113.5 113t176.5 29v-199q-106 14 -163 -41q88 -104 88 -254q0 -180 -124 -290.5t-327 -110.5q-98 0 -190 32q-96 -4 -97 -82q0 -29 26 -51t81 -22h356zM557 848q-98 0 -159.5 -59.5t-61.5 -149.5 q0 -92 61.5 -150.5t159.5 -58.5q100 2 159.5 60.5t59.5 144.5q0 88 -60.5 150.5t-158.5 62.5zM553 -305q98 0 158.5 8t102.5 34.5t42 76.5q0 102 -158 102h-348q-6 0 -16 1t-15 1q-78 -29 -77.5 -102.5t79 -97t232.5 -23.5z" glyph-name="gdotaccent" horiz-adv-x="1128" unicode="ġ"/><glyph d="M778 856h695v-856h-220l-12 168q-70 -92 -194.5 -141.5t-266.5 -49.5q-313 0 -505.5 214.5t-192.5 551.5q0 344 201.5 561.5t533.5 217.5q236 0 407 -111t236 -297l-227 -94q-49 133 -159.5 198.5t-254.5 65.5q-221 0 -350 -149.5t-129 -397.5t128 -385t335 -137 q70 0 135.5 15.5t131 51t110.5 105.5t57 168v78h-459v223zM842 -94q55 0 93 -40t38 -120q0 -98 -63.5 -165.5t-147.5 -67.5v65q45 0 75.5 32t30.5 71q-16 -8 -43 -9q-45 0 -74.5 30t-29.5 83t34 87t87 34z" glyph-name="Gcommaaccent" horiz-adv-x="1591" unicode="Ģ"/><glyph d="M872 1456l-210 -326h-185l164 326h231zM737 115q168 0 261.5 -80t93.5 -221q0 -117 -82 -193t-198 -102.5t-265 -28.5q-514 0 -514 262q0 72 36.5 127t102.5 84q-96 63 -96 187q0 59 33.5 120.5t107.5 89.5q-115 111 -115 277q0 180 126 291.5t331 111.5q129 0 238 -49 q37 74 113.5 113t176.5 29v-199q-106 14 -163 -41q88 -104 88 -254q0 -180 -124 -290.5t-327 -110.5q-98 0 -190 32q-96 -4 -97 -82q0 -29 26 -51t81 -22h356zM557 848q-98 0 -159.5 -59.5t-61.5 -149.5q0 -92 61.5 -150.5t159.5 -58.5q100 2 159.5 60.5t59.5 144.5 q0 88 -60.5 150.5t-158.5 62.5zM553 -305q98 0 158.5 8t102.5 34.5t42 76.5q0 102 -158 102h-348q-6 0 -16 1t-15 1q-78 -29 -77.5 -102.5t79 -97t232.5 -23.5z" glyph-name="gcommaaccent" horiz-adv-x="1128" unicode="ģ"/><glyph d="M1493 1325v-217h-156v-1108h-256v643l-659 2v-645h-254v1108h-162v217h162v170h254v-170h659v170h256v-170h156zM1081 868v240h-659v-238z" glyph-name="Hbar" horiz-adv-x="1503" unicode="Ħ"/><glyph d="M668 1040q199 0 308 -109.5t109 -316.5v-614h-241v561q0 260 -226 260q-94 0 -171.5 -64.5t-77.5 -199.5v-557h-242v1184h-111v143h111v195h242v-195h342v-143h-342v-279q102 135 299 135z" glyph-name="hbar" horiz-adv-x="1206" unicode="ħ"/><glyph d="M-53 1645q-20 133 38 207.5t152 74.5q66 0 157 -51t130 -51q76 0 65 92h156q18 -131 -41 -201.5t-155 -70.5q-70 0 -162 49t-123 49q-68 0 -62 -96zM422 0h-254v1495h254v-1495z" glyph-name="Itilde" horiz-adv-x="589" unicode="Ĩ"/><glyph d="M-113 1174q-20 133 38.5 207.5t152.5 74.5q66 0 157 -51t130 -51q76 0 65 92h156q18 -131 -41.5 -201.5t-155.5 -70.5q-70 0 -162 49t-123 49q-68 0 -61 -96zM115 1010h241v-1010h-241v1010z" glyph-name="itilde" horiz-adv-x="471" unicode="ĩ"/><glyph d="M-18 1792h626v-160h-626v160zM422 0h-254v1495h254v-1495z" glyph-name="Imacron" horiz-adv-x="589" unicode="Ī"/><glyph d="M-78 1321h627v-160h-627v160zM115 1010h241v-1010h-241v1010z" glyph-name="imacron" horiz-adv-x="471" unicode="ī"/><glyph d="M424 0q-121 -45 -139 -129q-12 -61 39 -86q39 -18 90 2v-164q-66 -20 -122 -17t-93 27.5t-60.5 60.5t-25.5 81t12 87t52 80t95 58h-104v1495h254v-1495h2z" glyph-name="Iogonek" horiz-adv-x="589" unicode="Į"/><glyph d="M236 1141q-61 0 -104.5 43t-43.5 104.5t44 105.5t103.5 44t103.5 -45t44 -104.5t-44 -103.5t-103 -44zM358 0q-121 -45 -139 -129q-12 -61 39 -86q39 -18 90 2v-164q-66 -20 -122 -17t-93 27.5t-60.5 60.5t-25.5 81t12.5 87t52.5 80t95 58h-92v1010h241v-1010h2z" glyph-name="iogonek" horiz-adv-x="471" unicode="į"/><glyph d="M295 1612q-61 0 -104.5 43t-43.5 104.5t44.5 105.5t103.5 44t103 -45t44 -104.5t-44 -103.5t-103 -44zM422 0h-254v1495h254v-1495z" glyph-name="Idotaccent" horiz-adv-x="589" unicode="İ"/><glyph d="M115 1010h241v-1010h-241v1010z" glyph-name="dotlessi" horiz-adv-x="471" unicode="ı"/><glyph d="M844 1802l-119 -198h-190l182 327h203h49l182 -327h-190zM715 1495h254v-1081q0 -195 -128 -319t-341 -122q-221 0 -339 123t-118 324v51h246v-51q0 -104 59.5 -157.5t149.5 -53.5q98 0 157.5 55t59.5 164v1067z" glyph-name="Jcircumflex" horiz-adv-x="1122" unicode="Ĵ"/><glyph d="M297 1329l-119 -199h-190l182 328h203h49l182 -328h-190zM172 -115v1125h248v-1160q0 -203 -144.5 -294t-388.5 -21l47 211q113 -33 175.5 4t62.5 135z" glyph-name="jcircumflex" horiz-adv-x="546" unicode="ĵ"/><glyph d="M1360 1495l-572 -723l555 -772h-327l-387 571l-205 -260v-315h-256v1499h256v-786l608 786h328zM719 -68q55 0 93 -39.5t38 -119.5q0 -98 -63.5 -166t-147.5 -68v66q45 0 75.5 31.5t30.5 70.5q-16 -8 -43 -8q-45 0 -74.5 29.5t-29.5 83t34 87t87 33.5z" glyph-name="Kcommaaccent" horiz-adv-x="1386" unicode="Ķ"/><glyph d="M1071 1010l-436 -457l414 -553h-293l-281 385l-106 -113v-272h-242v1522h242v-928l399 416h303zM549 -68q55 0 93 -39.5t38 -119.5q0 -98 -63.5 -166t-147.5 -68v66q45 0 75.5 31.5t30.5 70.5q-16 -8 -43 -8q-45 0 -74.5 29.5t-29.5 83t34 87t87 33.5z" glyph-name="kcommaaccent" horiz-adv-x="1087" unicode="ķ"/><glyph d="M598 1901l-211 -326h-184l164 326h231zM426 227h598v-227h-815h-41v1495h258v-1268z" glyph-name="Lacute" horiz-adv-x="1079" unicode="Ĺ"/><glyph d="M338 1595h-184l163 326h232zM127 0v1522h242v-1522h-242z" glyph-name="lacute" horiz-adv-x="489" unicode="ĺ"/><glyph d="M426 227h598v-227h-815h-41v1495h258v-1268zM621 -68q55 0 93 -39.5t38 -119.5q0 -98 -63.5 -166t-147.5 -68v66q45 0 75.5 31.5t30.5 70.5q-16 -8 -43 -8q-45 0 -74.5 29.5t-29.5 83t34 87t87 33.5z" glyph-name="Lcommaaccent" horiz-adv-x="1079" unicode="Ļ"/><glyph d="M369 1522v-1522h-242v1522h242zM248 -88q55 0 93 -40t38 -120q0 -98 -63.5 -165.5t-147.5 -67.5v65q45 0 75.5 32t30.5 71q-16 -8 -43 -9q-45 0 -74.5 30t-29.5 83t34 87t87 34z" glyph-name="lcommaaccent" horiz-adv-x="489" unicode="ļ"/><glyph d="M731 1284q-47 0 -76.5 29.5t-29.5 83t33.5 88.5t86.5 35q55 0 94.5 -40t39.5 -120q0 -100 -63.5 -168t-149.5 -68v66q45 0 76.5 31.5t29.5 70.5q-16 -8 -41 -8zM426 227h598v-227h-815h-41v1495h258v-1268z" glyph-name="Lcaron" horiz-adv-x="1079" unicode="Ľ"/><glyph d="M127 0v1522h242v-1522h-242z" glyph-name="lcaron" horiz-adv-x="489" unicode="ľ"/><glyph d="M426 227h598v-227h-815h-41v1495h258v-1268zM762 614q-72 0 -123 50.5t-51 119.5q0 72 51 123t123 51q70 0 121 -52t51 -122q0 -68 -51 -119t-121 -51z" glyph-name="Ldot" horiz-adv-x="1079" unicode="Ŀ"/><glyph d="M127 0v1522h242v-1522h-242zM682 600q-74 0 -127 52.5t-53 123.5q0 74 53 126t127 52q72 0 125 -53t53 -124.5t-53 -124t-125 -52.5z" glyph-name="ldot" horiz-adv-x="917" unicode="ŀ"/><glyph d="M426 227h598v-227h-815h-41v657l-135 -65v203l135 65v635h258v-512l297 141v-202l-297 -142v-553z" glyph-name="Lslash" horiz-adv-x="1077" unicode="Ł"/><glyph d="M508 1018v-174l-109 -51v-793h-243v676l-115 -55v174l115 55v672h243v-555z" glyph-name="lslash" horiz-adv-x="548" unicode="ł"/><glyph d="M1083 1927l-211 -325h-184l164 325h231zM1130 1495h252v-1495h-252l-710 1090v-1090h-252v1495h252l710 -1089v1089z" glyph-name="Nacute" horiz-adv-x="1548" unicode="Ń"/><glyph d="M915 1456l-210 -326h-185l164 326h231zM666 1040q195 0 302 -108.5t107 -308.5v-623h-241v571q0 76 -21.5 129.5t-57.5 78t-70 33.5t-71 9q-98 0 -171.5 -63.5t-73.5 -194.5v-563h-242v1010h227l8 -109q43 63 124.5 101t179.5 38z" glyph-name="nacute" horiz-adv-x="1196" unicode="ń"/><glyph d="M1130 1495h252v-1495h-252l-710 1090v-1090h-252v1495h252l710 -1089v1089zM786 -68q55 0 93.5 -39.5t38.5 -119.5q0 -98 -63.5 -166t-147.5 -68v66q45 0 75.5 31.5t30.5 70.5q-16 -8 -43 -8q-45 0 -74.5 29.5t-29.5 83t33.5 87t86.5 33.5z" glyph-name="Ncommaaccent" horiz-adv-x="1548" unicode="Ņ"/><glyph d="M666 1040q195 0 302 -108.5t107 -308.5v-623h-241v571q0 76 -21.5 129.5t-57.5 78t-70 33.5t-71 9q-98 0 -171.5 -63.5t-73.5 -194.5v-563h-242v1010h227l8 -109q43 63 124.5 101t179.5 38zM602 -68q55 0 93 -39.5t38 -119.5q0 -98 -63.5 -166t-147.5 -68v66 q45 0 76 31.5t31 70.5q-16 -8 -43 -8q-45 0 -75 29.5t-30 83t34 87t87 33.5z" glyph-name="ncommaaccent" horiz-adv-x="1196" unicode="ņ"/><glyph d="M655 1602l-182 327h191l118 -198l117 198h191l-183 -327h-252zM1130 1495h252v-1495h-252l-710 1090v-1090h-252v1495h252l710 -1089v1089z" glyph-name="Ncaron" horiz-adv-x="1548" unicode="Ň"/><glyph d="M487 1130l-182 328h191l118 -198l117 198h191l-183 -328h-252zM666 1040q195 0 302 -108.5t107 -308.5v-623h-241v571q0 76 -21.5 129.5t-57.5 78t-70 33.5t-71 9q-98 0 -171.5 -63.5t-73.5 -194.5v-563h-242v1010h227l8 -109q43 63 124.5 101t179.5 38z" glyph-name="ncaron" horiz-adv-x="1196" unicode="ň"/><glyph d="M166 0v1495h250l704 -1081v1081h250v-1618q0 -84 -28.5 -148.5t-74.5 -99.5t-104.5 -56.5t-116 -19t-110.5 12.5l2 201q80 -18 142.5 13.5t62.5 135.5v84h-23l-704 1081v-1081h-250z" glyph-name="Eng" horiz-adv-x="1533" unicode="Ŋ"/><glyph d="M682 1036q76 0 143.5 -19.5t131 -63.5t100.5 -130t37 -205v-696q0 -86 -29 -149.5t-73 -96t-98 -48t-105.5 -12.5t-94.5 19v185q63 -18 112.5 8.5t49.5 93.5v649q0 76 -21.5 129.5t-58.5 78t-71.5 33.5t-73.5 9q-98 0 -173 -62.5t-75 -195.5v-563h-238v1010h224l8 -111 q92 137 305 137z" glyph-name="eng" horiz-adv-x="1224" unicode="ŋ"/><glyph d="M487 1792h627v-160h-627v160zM1524 750q0 -340 -201 -557.5t-524.5 -217.5t-523 216.5t-199.5 556.5q0 338 200.5 556t522.5 218q324 0 524.5 -217t200.5 -555zM1257 749.5q0 239.5 -123.5 382t-332.5 142.5t-333 -142.5t-124 -381.5q0 -242 123 -384.5t334 -142.5 q207 0 331.5 143.5t124.5 383z" glyph-name="Omacron" horiz-adv-x="1601" unicode="Ō"/><glyph d="M285 1321h626v-160h-626v160zM72 506q0 236 145 384t381 148q233 0 378.5 -148.5t145.5 -383.5q0 -233 -145.5 -382t-378.5 -149q-236 0 -381 149t-145 382zM315 508q0 -139 78 -227t205 -88q125 0 202 88t77 227t-77 226t-202 87q-127 0 -205 -87t-78 -226z" glyph-name="omacron" horiz-adv-x="1193" unicode="ō"/><glyph d="M756 1604h-185l164 327h232zM1047 1604h-185l207 327h231zM1524 750q0 -340 -201 -557.5t-524.5 -217.5t-523 216.5t-199.5 556.5q0 338 200.5 556t522.5 218q324 0 524.5 -217t200.5 -555zM1257 749.5q0 239.5 -123.5 382t-332.5 142.5t-333 -142.5t-124 -381.5 q0 -242 123 -384.5t334 -142.5q207 0 331.5 143.5t124.5 383z" glyph-name="Ohungarumlaut" horiz-adv-x="1601" unicode="Ő"/><glyph d="M545 1135h-185l164 325h232zM836 1135h-185l207 325h232zM72 506q0 236 145 384t381 148q233 0 378.5 -148.5t145.5 -383.5q0 -233 -145.5 -382t-378.5 -149q-236 0 -381 149t-145 382zM315 508q0 -139 78 -227t205 -88q125 0 202 88t77 227t-77 226t-202 87 q-127 0 -205 -87t-78 -226z" glyph-name="ohungarumlaut" horiz-adv-x="1193" unicode="ő"/><glyph d="M2200 1253h-674v-385h602v-229h-602v-399h674v-240h-926v186q-63 -94 -194.5 -153.5t-284.5 -59.5q-322 0 -521.5 218.5t-199.5 558.5q0 338 202.5 556t526.5 218q139 0 266 -52.5t205 -142.5v166h926v-242zM807 221q203 0 333 143.5t130 385t-131 385t-334 143.5 t-334 -143.5t-131 -382.5q0 -242 132 -386.5t335 -144.5z" glyph-name="OE" horiz-adv-x="2316" unicode="Œ"/><glyph d="M1874 508v-98h-752q16 -115 91 -171.5t178 -56.5q174 0 264 152l180 -96q-57 -121 -177 -192t-276 -71q-131 0 -237.5 53.5t-161.5 145.5q-57 -92 -161.5 -145.5t-233.5 -53.5q-227 0 -369.5 148.5t-142.5 382t142 383t370 149.5q272 0 399 -198q57 96 160.5 149 t234.5 53q223 0 357.5 -145t134.5 -389zM1120 584h508q-2 117 -72.5 187.5t-177 70.5t-177.5 -71.5t-81 -186.5zM600 193q125 0 202 88t77 227t-77 226t-202 87t-201.5 -87t-76.5 -226t76.5 -227t201.5 -88z" glyph-name="oe" horiz-adv-x="1949" unicode="œ"/><glyph d="M924 1929l-211 -325h-185l164 325h232zM1010 606l276 -606h-285l-247 565h-332v-565h-254v1495h575q262 -2 399.5 -122t137.5 -341q0 -156 -70.5 -266.5t-199.5 -159.5zM743 788q135 0 202 66t67 176q0 109 -67.5 173.5t-201.5 64.5h-321v-480h321z" glyph-name="Racute" horiz-adv-x="1372" unicode="Ŕ"/><glyph d="M539 1462l-211 -325h-185l164 325h232zM362 891q41 86 155 116.5t235 2.5v-224q-178 43 -280.5 -35.5t-102.5 -250.5v-500h-246v1010h225z" glyph-name="racute" horiz-adv-x="796" unicode="ŕ"/><glyph d="M1010 606l276 -606h-285l-247 565h-332v-565h-254v1495h575q262 -2 399.5 -122t137.5 -341q0 -156 -70.5 -266.5t-199.5 -159.5zM743 788q135 0 202 66t67 176q0 109 -67.5 173.5t-201.5 64.5h-321v-480h321zM715 -68q55 0 93 -39.5t38 -119.5q0 -98 -63.5 -166 t-147.5 -68v66q45 0 75.5 31.5t30.5 70.5q-16 -8 -43 -8q-45 0 -74.5 29.5t-29.5 83t34 87t87 33.5z" glyph-name="Rcommaaccent" horiz-adv-x="1372" unicode="Ŗ"/><glyph d="M362 891q41 86 155 116.5t235 2.5v-224q-178 43 -280.5 -35.5t-102.5 -250.5v-500h-246v1010h225zM248 -68q55 0 93 -39.5t38 -119.5q0 -98 -63.5 -166t-147.5 -68v66q45 0 75.5 31.5t30.5 70.5q-16 -8 -43 -8q-45 0 -74.5 29.5t-29.5 83t34 87t87 33.5z" glyph-name="rcommaaccent" horiz-adv-x="796" unicode="ŗ"/><glyph d="M496 1604l-183 327h191l119 -198l116 198h191l-182 -327h-252zM1010 606l276 -606h-285l-247 565h-332v-565h-254v1495h575q262 -2 399.5 -122t137.5 -341q0 -156 -70.5 -266.5t-199.5 -159.5zM743 788q135 0 202 66t67 176q0 109 -67.5 173.5t-201.5 64.5h-321v-480h321 z" glyph-name="Rcaron" horiz-adv-x="1372" unicode="Ř"/><glyph d="M111 1137l-183 327h191l119 -198l116 198h191l-183 -327h-251zM362 891q41 86 155 116.5t235 2.5v-224q-178 43 -280.5 -35.5t-102.5 -250.5v-500h-246v1010h225z" glyph-name="rcaron" horiz-adv-x="796" unicode="ř"/><glyph d="M702 1602h-184l164 325h231zM98 1077q0 199 139.5 322t370.5 123q207 0 342 -100.5t166 -266.5l-239 -65q-20 98 -94 149t-181 51q-117 0 -184.5 -56t-67.5 -147q0 -145 180 -188l244 -61q377 -96 377 -418q0 -201 -144.5 -324t-388.5 -123q-221 0 -369.5 103.5 t-176.5 281.5l239 62q14 -100 99.5 -155.5t216.5 -55.5q127 0 199.5 53t72.5 146q0 143 -180 190l-244 59q-377 90 -377 420z" glyph-name="Sacute" horiz-adv-x="1224" unicode="Ś"/><glyph d="M569 1151h-184l164 326h231zM293 295q6 -59 53 -93t127 -34q72 0 117 28.5t45 88.5q0 82 -109 108l-139 37q-287 78 -287 295q0 137 99.5 226t273.5 89q152 0 256.5 -69.5t126.5 -192.5l-217 -51q-8 55 -51 87t-107 32q-66 0 -105.5 -33t-39.5 -84q0 -82 123 -115 l137 -34q281 -76 281 -297q0 -141 -106.5 -225.5t-295.5 -84.5q-176 0 -280.5 78t-122.5 205z" glyph-name="sacute" horiz-adv-x="948" unicode="ś"/><glyph d="M612 1800l-118 -198h-191l182 327h203h49l183 -327h-191zM774 838q377 -96 377 -418q0 -201 -144.5 -324t-388.5 -123q-221 0 -369.5 103.5t-176.5 281.5l239 62q14 -100 99.5 -155.5t216.5 -55.5q127 0 199.5 53t72.5 146q0 143 -180 190l-244 59q-377 90 -377 420 q0 199 139.5 322t370.5 123q207 0 342 -100.5t166 -266.5l-239 -65q-20 98 -94 149t-181 51q-117 0 -184.5 -56t-67.5 -147q0 -145 180 -188z" glyph-name="Scircumflex" horiz-adv-x="1224" unicode="Ŝ"/><glyph d="M479 1350l-119 -199h-190l182 328h203h49l182 -328h-190zM596 580q281 -76 281 -297q0 -141 -106.5 -225.5t-295.5 -84.5q-176 0 -280.5 78t-122.5 205l221 39q6 -59 53 -93t127 -34q72 0 117 28.5t45 88.5q0 82 -109 108l-139 37q-287 78 -287 295q0 137 99.5 226 t273.5 89q152 0 256.5 -69.5t126.5 -192.5l-217 -51q-8 55 -51 87t-107 32q-66 0 -105.5 -33t-39.5 -84q0 -82 123 -115z" glyph-name="scircumflex" horiz-adv-x="948" unicode="ŝ"/><glyph d="M1151 420q0 -186 -128 -308t-347 -137l-49 -47h69q72 0 112 -46t40 -113q0 -72 -40 -116t-110 -44h-219v112h178q53 0 54 50q0 47 -54 47h-178v112l45 50q-186 23 -306 122t-146 256l239 62q14 -100 99.5 -155.5t216.5 -55.5q127 0 199.5 53t72.5 146q0 143 -180 190 l-244 59q-377 90 -377 420q0 199 139.5 322t370.5 123q207 0 342 -100.5t166 -266.5l-239 -65q-20 98 -94 149t-181 51q-117 0 -184.5 -56t-67.5 -147q0 -145 180 -188l244 -61q377 -96 377 -418z" glyph-name="Scedilla" horiz-adv-x="1224" unicode="Ş"/><glyph d="M877 283q0 -127 -87.5 -209t-242.5 -97l-58 -55h70q72 0 112 -46t40 -114q0 -72 -40 -115.5t-110 -43.5h-219v112h178q53 0 53 49q0 47 -53 48h-178v112l51 56q-141 18 -223 91.5t-98 184.5l221 39q6 -59 53 -93t127 -34q72 0 117 28.5t45 88.5q0 82 -109 108l-139 37 q-287 78 -287 295q0 137 99.5 226t273.5 89q152 0 256.5 -69.5t126.5 -192.5l-217 -51q-8 55 -51 87t-107 32q-66 0 -105.5 -33t-39.5 -84q0 -82 123 -115l137 -34q281 -76 281 -297z" glyph-name="scedilla" horiz-adv-x="948" unicode="ş"/><glyph d="M485 1602l-182 327h191l118 -198l117 198h191l-183 -327h-252zM774 838q377 -96 377 -418q0 -201 -144.5 -324t-388.5 -123q-221 0 -369.5 103.5t-176.5 281.5l239 62q14 -100 99.5 -155.5t216.5 -55.5q127 0 199.5 53t72.5 146q0 143 -180 190l-244 59q-377 90 -377 420 q0 199 139.5 322t370.5 123q207 0 342 -100.5t166 -266.5l-239 -65q-20 98 -94 149t-181 51q-117 0 -184.5 -56t-67.5 -147q0 -145 180 -188z" glyph-name="Scaron" horiz-adv-x="1224" unicode="Š"/><glyph d="M352 1151l-182 328h190l119 -199l117 199h190l-182 -328h-252zM596 580q281 -76 281 -297q0 -141 -106.5 -225.5t-295.5 -84.5q-176 0 -280.5 78t-122.5 205l221 39q6 -59 53 -93t127 -34q72 0 117 28.5t45 88.5q0 82 -109 108l-139 37q-287 78 -287 295q0 137 99.5 226 t273.5 89q152 0 256.5 -69.5t126.5 -192.5l-217 -51q-8 55 -51 87t-107 32q-66 0 -105.5 -33t-39.5 -84q0 -82 123 -115z" glyph-name="scaron" horiz-adv-x="948" unicode="š"/><glyph d="M659 0v-14l-59 -58h70q72 0 111.5 -46t39.5 -113q0 -72 -40 -116t-109 -44h-219v112h178q53 0 53 50q0 47 -53 47h-178v112l63 70h-53v1255h-428v240h1110v-240h-428v-1255h-58z" glyph-name="Tcommaaccent" horiz-adv-x="1179" unicode="Ţ"/><glyph d="M422 0v-4l-60 -57h70q72 0 112 -46.5t40 -113.5q0 -72 -40 -116t-110 -44h-219v113h178q53 0 53 49q0 47 -53 47h-178v113l55 59h-37v809h-196v201h196v315h240v-315h195v-201h-195v-809h-51z" glyph-name="tcommaaccent" horiz-adv-x="704" unicode="ţ"/><glyph d="M465 1602l-182 327h190l119 -198l117 198h190l-182 -327h-252zM1145 1495v-240h-428v-1255h-254v1255h-428v240h1110z" glyph-name="Tcaron" horiz-adv-x="1179" unicode="Ť"/><glyph d="M633 1550q43 0 72.5 -30.5t23.5 -81.5l-39 -324h-117l-38 324q-6 51 24.5 81.5t73.5 30.5zM463 1325v-315h194v-207h-194v-803h-240v803h-194v207h194v315h240z" glyph-name="tcaron" horiz-adv-x="722" unicode="ť"/><glyph d="M1145 1255h-428v-370h297v-217h-297v-668h-254v668h-295v217h295v370h-428v240h1110v-240z" glyph-name="Tbar" horiz-adv-x="1179" unicode="Ŧ"/><glyph d="M668 809h-195v-145h176v-189h-176v-475h-240v475h-194v189h194v145h-196v201h196v315h240v-315h195v-201z" glyph-name="tbar" horiz-adv-x="704" unicode="ŧ"/><glyph d="M403 1645q-20 133 38.5 207.5t152.5 74.5q66 0 157 -51t130 -51q76 0 65 92h156q18 -131 -41.5 -201.5t-155.5 -70.5q-70 0 -162 49t-122 49q-68 0 -62 -96zM154 539v956h254v-948q2 -164 100 -247t245.5 -83t247 88t99.5 242v948h254v-956q0 -266 -174 -416t-426 -150 q-250 0 -425 149t-175 417z" glyph-name="Utilde" horiz-adv-x="1507" unicode="Ũ"/><glyph d="M406 1176l-156 -2q-20 133 38 207.5t152 74.5q66 0 157 -51t130 -51q76 0 66 92h155q18 -131 -41 -201.5t-155 -70.5q-70 0 -162 49t-123 49q-67 0 -61 -96zM1096 0h-240q-12 43 -18 113q-90 -139 -299 -140q-78 0 -146.5 20.5t-132 65.5t-100.5 132.5t-37 205.5v615h244 v-570q0 -76 21.5 -129t58 -77.5t71.5 -35t72 -10.5q96 0 170 62.5t74 196.5v561h241v-824q1 -108 21 -186z" glyph-name="utilde" horiz-adv-x="1218" unicode="ũ"/><glyph d="M440 1792h627v-160h-627v160zM154 539v956h254v-948q2 -164 100 -247t245.5 -83t247 88t99.5 242v948h254v-956q0 -266 -174 -416t-426 -150q-250 0 -425 149t-175 417z" glyph-name="Umacron" horiz-adv-x="1507" unicode="Ū"/><glyph d="M913 1321v-160h-626v160h626zM1096 0h-240q-12 43 -18 113q-90 -139 -299 -140q-78 0 -146.5 20.5t-132 65.5t-100.5 132.5t-37 205.5v615h244v-570q0 -76 21.5 -129t58 -77.5t71.5 -35t72 -10.5q96 0 170 62.5t74 196.5v561h241v-824q1 -108 21 -186z" glyph-name="umacron" horiz-adv-x="1218" unicode="ū"/><glyph d="M754 1577q-109 0 -182.5 74.5t-73.5 183.5q0 106 75.5 183t180 77t180.5 -78t76 -182q0 -106 -75 -182t-181 -76zM754 1720q49 0 82.5 34t33.5 85q0 47 -33.5 80t-82.5 33t-82 -33t-33 -80q0 -51 33 -85t82 -34zM154 539v956h254v-948q2 -164 100 -247t245.5 -83t247 88 t99.5 242v948h254v-956q0 -266 -174 -416t-426 -150q-250 0 -425 149t-175 417z" glyph-name="Uring" horiz-adv-x="1507" unicode="Ů"/><glyph d="M598 1106q-109 0 -182.5 74.5t-73.5 183.5q0 106 76 183t180 77t180 -78t76 -182q0 -106 -75 -182t-181 -76zM598 1481q-49 0 -82 -33t-33 -80q0 -51 33 -85t82 -34t83 34t34 85q0 47 -34 80t-83 33zM1096 0h-240q-12 43 -18 113q-90 -139 -299 -140q-78 0 -146.5 20.5 t-132 65.5t-100.5 132.5t-37 205.5v615h244v-570q0 -76 21.5 -129t58 -77.5t71.5 -35t72 -10.5q96 0 170 62.5t74 196.5v561h241v-824q1 -108 21 -186z" glyph-name="uring" horiz-adv-x="1218" unicode="ů"/><glyph d="M698 1602h-184l164 325h231zM989 1602h-184l209 325h231zM154 539v956h254v-948q2 -164 100 -247t245.5 -83t247 88t99.5 242v948h254v-956q0 -266 -174 -416t-426 -150q-250 0 -425 149t-175 417z" glyph-name="Uhungarumlaut" horiz-adv-x="1507" unicode="Ű"/><glyph d="M756 1456l-211 -326h-185l164 326h232zM836 1130h-185l209 326h232zM1096 0h-240q-12 43 -18 113q-90 -139 -299 -140q-78 0 -146.5 20.5t-132 65.5t-100.5 132.5t-37 205.5v615h244v-570q0 -76 21.5 -129t58 -77.5t71.5 -35t72 -10.5q96 0 170 62.5t74 196.5v561h241 v-824q1 -108 21 -186z" glyph-name="uhungarumlaut" horiz-adv-x="1218" unicode="ű"/><glyph d="M1100 1495h254v-956q0 -238 -140.5 -383.5t-357.5 -173.5q-115 -51 -121 -136q-4 -59 53 -75q35 -10 78 6v-164q-143 -47 -230 20.5t-70.5 177t128.5 164.5q-231 18 -385.5 165t-154.5 399v956h254v-948q2 -164 100 -247t245.5 -83t247 88t99.5 242v948z" glyph-name="Uogonek" horiz-adv-x="1507" unicode="Ų"/><glyph d="M1094 0q-121 -45 -140 -129q-12 -61 39 -86q39 -18 90 2v-164q-66 -20 -122 -17t-93 27.5t-60.5 60.5t-25.5 81t12.5 87t52.5 80t95 58h-86q-12 43 -18 113q-90 -139 -299 -140q-78 0 -146.5 20.5t-132 65.5t-100.5 132.5t-37 205.5v615h244v-570q0 -76 21.5 -129 t58 -77.5t71.5 -35t72 -10.5q96 0 170 62.5t74 196.5v561h241v-824q0 -109 21 -186h-2z" glyph-name="uogonek" horiz-adv-x="1218" unicode="ų"/><glyph d="M1051 1800l-119 -198h-191l183 327h202h50l182 -327h-191zM1806 1495h271l-453 -1495h-246l-325 1047l-330 -1047h-250l-446 1495h278l297 -1063l313 1063h281l305 -1067z" glyph-name="Wcircumflex" horiz-adv-x="2103" unicode="Ŵ"/><glyph d="M827 1329l-118 -199h-191l182 328h203h49l183 -328h-191zM1360 1010h256l-350 -1010h-228l-215 651l-221 -651h-235l-338 1010h262l196 -660l213 660h248l205 -668z" glyph-name="wcircumflex" horiz-adv-x="1644" unicode="ŵ"/><glyph d="M659 1800l-118 -198h-191l182 327h203h49l183 -327h-191zM1014 1495h276l-506 -895v-600h-256v600l-510 895h287l354 -649z" glyph-name="Ycircumflex" horiz-adv-x="1308" unicode="Ŷ"/><glyph d="M565 1329l-119 -199h-190l182 328h203h49l182 -328h-190zM848 1010h254l-479 -1246q-143 -373 -564 -206l68 219q55 -35 110.5 -45.5t106.5 17.5t76 97l35 95l-430 1069h254l290 -758z" glyph-name="ycircumflex" horiz-adv-x="1124" unicode="ŷ"/><glyph d="M453 1612q-61 0 -105.5 43t-44.5 104.5t44 104.5t106 43q59 0 103 -44t44 -103.5t-44 -103.5t-103 -44zM868.5 1612q-61.5 0 -105.5 43t-44 104.5t44 104.5t105 43q59 0 104.5 -44t45.5 -103.5t-44 -103.5t-105.5 -44zM18 1495h287l354 -649l355 649h276l-506 -895v-600 h-256v600z" glyph-name="Ydieresis" horiz-adv-x="1308" unicode="Ÿ"/><glyph d="M889 1927l-211 -325h-184l163 325h232zM1090 1495v-244l-728 -1007h717v-244h-995l-2 244l725 1007l-723 -2v246h1006z" glyph-name="Zacute" horiz-adv-x="1173" unicode="Ź"/><glyph d="M571 1130h-184l164 326h231zM76 0v217l510 580h-510v213h811v-217l-518 -578h518v-215h-811z" glyph-name="zacute" horiz-adv-x="960" unicode="ź"/><glyph d="M588 1612q-61 0 -104.5 43t-43.5 104.5t44 105.5t103.5 44t103.5 -45t44 -104.5t-44 -103.5t-103 -44zM1090 1495v-244l-728 -1007h717v-244h-995l-2 244l725 1007l-723 -2v246h1006z" glyph-name="Zdotaccent" horiz-adv-x="1173" unicode="Ż"/><glyph d="M481 1141q-61 0 -104 43t-43 104.5t44 105.5t103.5 44t103.5 -45t44 -104.5t-44.5 -103.5t-103.5 -44zM76 0v217l510 580h-510v213h811v-217l-518 -578h518v-215h-811z" glyph-name="zdotaccent" horiz-adv-x="960" unicode="ż"/><glyph d="M461 1602l-182 327h190l119 -198l117 198h190l-182 -327h-252zM1090 1495v-244l-728 -1007h717v-244h-995l-2 244l725 1007l-723 -2v246h1006z" glyph-name="Zcaron" horiz-adv-x="1173" unicode="Ž"/><glyph d="M354 1130l-182 328h190l119 -198l117 198h190l-182 -328h-252zM887 1010v-217l-518 -578h518v-215h-811v217l510 580h-510v213h811z" glyph-name="zcaron" horiz-adv-x="960" unicode="ž"/><glyph d="M809 1157l-21 -147h297v-201h-325l-6 -41h2l-117 -815q-20 -152 -117.5 -233.5t-261.5 -81.5h-135l-2 221h141q117 0 135 114l107 756l10 80h-270v201h299l20 147q23 162 128.5 259t262.5 97h142l2 -223h-158q-117 0 -133 -133z" glyph-name="florin" horiz-adv-x="1222" unicode="ƒ"/><glyph d="M1020 2243l-211 -326h-184l163 326h232zM1098 0l-121 348h-569l-123 -348h-262l514 1421q-90 76 -91 197q0 106 76 182t180.5 76t180 -77t75.5 -181q0 -129 -102 -207l510 -1411h-268zM702.5 1735q-49.5 0 -82 -33t-32.5 -80q0 -51 32.5 -85t82 -34t82 34t32.5 85 q0 47 -32.5 80t-82 33zM483 563h420l-209 598z" glyph-name="Aringacute" horiz-adv-x="1388" unicode="Ǻ"/><glyph d="M858 1751l-203 -295h-176l158 295h221zM995 0h-233q-10 37 -17 115q-96 -141 -311 -142q-164 0 -265 88.5t-101 239.5q0 150 99 232.5t269 82.5h303v39q0 188 -211 189q-178 0 -254 -148l-176 103q80 158 254 215q-43 66 -43 145q0 106 76 182t178 76q106 0 182 -76.5 t76 -181.5q0 -92 -57 -160q213 -94 213 -376v-402q0 -172 18 -221zM565 1276q-49 0 -81.5 -33t-32.5 -80q0 -51 32.5 -85t81.5 -34t82 34t33 85q0 47 -33 80t-82 33zM741 426v23h-249q-86 0 -132.5 -39t-46.5 -107q0 -72 48.5 -108.5t136.5 -36.5q100 0 171.5 64.5 t71.5 203.5z" glyph-name="aringacute" horiz-adv-x="1085" unicode="ǻ"/><glyph d="M1454 1927l-211 -325h-184l164 325h231zM1800 240l-2 -240l-686 2v-2h-242v373h-424l-141 -373h-285l588 1493h260h2h242l688 -2l-2 -240l-686 2v-383h619l-2 -233h-617v-395zM528 592h342v661h-92z" glyph-name="AEacute" horiz-adv-x="1918" unicode="Ǽ"/><glyph d="M1219 1456l-211 -326h-185l164 326h232zM1753 530q2 0 0 -57v-57h-762q16 -111 91 -172.5t184 -61.5q180 0 266 152l184 -96q-61 -127 -183 -195t-273 -68q-127 0 -226.5 50.5t-154.5 138.5q-51 -90 -152.5 -139.5t-228.5 -49.5q-176 0 -289 85t-113 239q0 139 87 221 t229 82h252q80 0 79 70q0 84 -55 125t-131 43q-88 4 -160.5 -37t-111.5 -117l-176 102q68 117 183.5 184.5t246.5 67.5q252 0 350 -172q129 174 373 174q221 0 356 -141.5t135 -370.5zM991 592h518q-4 111 -75.5 180.5t-182.5 69.5q-106 0 -177 -68.5t-83 -181.5zM745 391 v41h-256q-72 0 -110.5 -38t-38.5 -95q0 -68 50 -102.5t132 -34.5q111 0 167 63.5t56 165.5z" glyph-name="aeacute" horiz-adv-x="1835" unicode="ǽ"/><glyph d="M1087 1907l-210 -326h-185l164 326h231zM1288 1323q219 -215 219 -573q0 -338 -201.5 -555.5t-525.5 -217.5q-156 0 -286 54l-39 -62h-250l106 172q-252 219 -252 609q0 340 200 556t523 216q188 0 338 -78l54 86h241zM326 749.5q0 -241.5 125 -384.5l538 866 q-96 45 -207 45q-209 0 -332.5 -142.5t-123.5 -384zM782 225q207 0 332 142.5t125 382.5q0 207 -92 344l-520 -844q69 -25 155 -25z" glyph-name="Oslashacute" horiz-adv-x="1611" unicode="Ǿ"/><glyph d="M899 1456l-211 -326h-184l164 326h231zM956 909q166 -154 166 -403q0 -233 -145.5 -382t-378.5 -149q-111 0 -197 33l-67 -110h-217l125 202q-170 150 -170 406q0 236 145 384t381 148q111 0 205 -34l61 96h211zM315 508q0 -119 58 -201l311 502q-41 12 -86 12 q-127 0 -205 -87t-78 -226zM598 193q125 0 202 88t77 227q0 115 -50 190l-305 -495q37 -10 76 -10z" glyph-name="oslashacute" horiz-adv-x="1193" unicode="ǿ"/><glyph d="M774 838q377 -96 377 -418q0 -201 -144.5 -324t-388.5 -123q-221 0 -369.5 103.5t-176.5 281.5l239 62q14 -100 99.5 -155.5t216.5 -55.5q127 0 199.5 53t72.5 146q0 143 -180 190l-244 59q-377 90 -377 420q0 199 139.5 322t370.5 123q207 0 342 -100.5t166 -266.5 l-239 -65q-20 98 -94 149t-181 51q-117 0 -184.5 -56t-67.5 -147q0 -145 180 -188zM616 -68q55 0 93.5 -39.5t38.5 -119.5q0 -98 -63.5 -166t-147.5 -68v66q45 0 75.5 31.5t30.5 70.5q-16 -8 -43 -8q-45 0 -74.5 29.5t-29.5 83t33.5 87t86.5 33.5z" glyph-name="Scommaaccent" horiz-adv-x="1224" unicode="Ș"/><glyph d="M596 580q281 -76 281 -297q0 -141 -106.5 -225.5t-295.5 -84.5q-176 0 -280.5 78t-122.5 205l221 39q6 -59 53 -93t127 -34q72 0 117 28.5t45 88.5q0 82 -109 108l-139 37q-287 78 -287 295q0 137 99.5 226t273.5 89q152 0 256.5 -69.5t126.5 -192.5l-217 -51 q-8 55 -51 87t-107 32q-66 0 -105.5 -33t-39.5 -84q0 -82 123 -115zM479 -76q55 0 93 -40t38 -120q0 -98 -63.5 -165.5t-147.5 -67.5v66q45 0 76 31.5t31 70.5q-16 -8 -43 -8q-45 0 -75 29.5t-30 83t34 87t87 33.5z" glyph-name="scommaaccent" horiz-adv-x="948" unicode="ș"/><glyph d="M35 1495h1110v-240h-428v-1255h-254v1255h-428v240zM590 -68q55 0 93 -39.5t38 -119.5q0 -98 -63.5 -166t-147.5 -68v66q45 0 75.5 31.5t30.5 70.5q-16 -8 -43 -8q-45 0 -74.5 29.5t-29.5 83t34 87t87 33.5z" glyph-name="uni021A" horiz-adv-x="1179" unicode="Ț"/><glyph d="M473 1010h195v-201h-195v-809h-240v809h-196v201h196v315h240v-315zM352 -57q55 0 93 -40t38 -120q0 -98 -63.5 -166t-147.5 -68v66q45 0 76 31.5t31 70.5q-16 -8 -43 -8q-45 0 -75 30t-30 83t34 87t87 34z" glyph-name="uni021B" horiz-adv-x="704" unicode="ț"/><glyph d="M-113 -465l47 211q113 -33 175.5 4t62.5 135v1125h248v-1160q0 -203 -144.5 -294t-388.5 -21z" glyph-name="uni0237" horiz-adv-x="546" unicode="ȷ"/><glyph d="M698 1575h-190l-117 197l-119 -197h-190l182 328h203h49z" glyph-name="circumflex" horiz-adv-x="765" unicode="ˆ"/><glyph d="M483 1903h191l-182 -328h-203h-49l-183 328h191l119 -197z" glyph-name="caron" horiz-adv-x="759" unicode="ˇ"/><glyph d="M733 1898q-2 -135 -100 -229t-242 -94q-145 0 -243.5 94t-100.5 229h186q2 -68 46.5 -104.5t112 -36.5t111.5 38t46 103h184z" glyph-name="breve" horiz-adv-x="784" unicode="˘"/><glyph d="M190 1585q-61 0 -105 43t-44 104.5t44 104.5t105 43q59 0 103.5 -44t44.5 -103.5t-44.5 -103.5t-103.5 -44z" glyph-name="dotaccent" horiz-adv-x="378" unicode="˙"/><glyph d="M283 1550q-109 0 -182.5 75t-73.5 183q0 106 75.5 183t180 77t180.5 -77.5t76 -182.5q0 -106 -75 -182t-181 -76zM282.5 1694q49.5 0 83 33.5t33.5 84.5q0 47 -33.5 80t-83 33t-82 -32.5t-32.5 -80.5q0 -51 32.5 -84.5t82 -33.5z" glyph-name="ring" horiz-adv-x="579" unicode="˚"/><glyph d="M451 0h151q-121 -45 -139 -129q-12 -61 39 -86q39 -18 90 2v-164q-66 -20 -122 -17t-93 27.5t-60.5 60.5t-25.5 81t12 87t52.5 80t95.5 58z" glyph-name="ogonek" horiz-adv-x="937" unicode="˛"/><glyph d="M53 1618q-20 133 38.5 208t152.5 75q66 0 157 -51.5t129 -51.5q76 0 66 92h156q18 -131 -41.5 -201.5t-155.5 -70.5q-70 0 -162 49t-123 49q-68 0 -61 -96z" glyph-name="tilde" horiz-adv-x="817" unicode="˜"/><glyph d="M252 1575h-184l163 326h232zM543 1575h-185l209 326h232z" glyph-name="hungarumlaut" horiz-adv-x="858" unicode="˝"/><glyph d="M-276 1575l-209 328h229l164 -328h-184z" glyph-name="gravecomb" unicode="̀"/><glyph d="M-240 1575h-184l164 326h231z" glyph-name="acutecomb" unicode="́"/><glyph d="M-82 1575h-190l-117 197l-119 -197h-190l182 328h203h49z" glyph-name="uni0302" unicode="̂"/><glyph d="M-756 1618q-20 133 38.5 208t152.5 75q66 0 157 -51.5t129 -51.5q76 0 66 92h156q18 -131 -41.5 -201.5t-155.5 -70.5q-70 0 -162 49t-123 49q-68 0 -61 -96z" glyph-name="tildecomb" unicode="̃"/><glyph d="M-674 1839h627v-160h-627v160z" glyph-name="uni0304" unicode="̄"/><glyph d="M-233 1905h184q0 -137 -98.5 -233.5t-243.5 -96.5q-147 0 -245.5 96t-98.5 234h186q0 -70 44 -109t113.5 -39t114 39t44.5 109z" glyph-name="uni0306" unicode="̆"/><glyph d="M-461 1585q-61 0 -104 43t-43 104.5t44 105.5t103.5 44t103.5 -45t44 -104.5t-44.5 -103.5t-103.5 -44z" glyph-name="uni0307" unicode="̇"/><glyph d="M-563 1585q-61 0 -105.5 44t-44.5 104q0 61 44 105t106 44q59 0 103 -44t44 -105q0 -59 -44 -103.5t-103 -44.5zM-168 1585q-61 0 -104 43t-43 104.5t44 105.5t103 44t103.5 -45t44.5 -104.5t-44.5 -103.5t-103.5 -44z" glyph-name="uni0308" unicode="̈"/><glyph d="M-285 1550q-109 0 -182.5 75t-73.5 183q0 106 76 183t180.5 77t180 -77.5t75.5 -182.5q0 -106 -75 -182t-181 -76zM-285 1694q49 0 83 33.5t34 84.5q0 47 -34 80t-83 33t-81.5 -32.5t-32.5 -80.5q0 -51 32.5 -84.5t81.5 -33.5z" glyph-name="uni030A" unicode="̊"/><glyph d="M-600 1575h-184l163 326h232zM-326 1575h-184l215 326h232z" glyph-name="uni030B" unicode="̋"/><glyph d="M-262 1903h190l-182 -328h-203h-49l-182 328h190l119 -197z" glyph-name="uni030C" unicode="̌"/><glyph d="M-193 1827q45 0 76 -31t31 -82q0 -53 -34 -87t-87 -34q-55 0 -93 40t-38 120q0 100 62.5 167t148.5 67v-66q-47 0 -78 -31.5t-28 -70.5q15 8 40 8z" glyph-name="uni0312" unicode="̒"/><glyph d="M-217 -61q55 0 93 -40t38 -120q0 -98 -63.5 -166t-147.5 -68v66q45 0 76 31.5t31 70.5q-16 -8 -43 -8q-45 0 -75 29.5t-30 83t34 87.5t87 34z" glyph-name="uni0326" unicode="̦"/><glyph d="M-567 -379v113h178q53 0 53 49q0 47 -53 47h-178v113l110 120l97 -2v-63l-60 -57h70q72 0 111.5 -46.5t39.5 -113.5q0 -72 -40 -116t-109 -44h-219z" glyph-name="uni0327" unicode="̧"/><glyph d="M-881 -88h-217l748 1202h211z" glyph-name="uni0338" unicode="̸"/><glyph d="M1040 186h185v-186h-467v186q115 47 176 140.5t61 208.5q0 135 -89 218t-222 83t-222 -83t-89 -218q0 -121 63.5 -214.5t173.5 -134.5v-186h-469v186h185q-164 154 -164 371q0 205 146.5 344t378 139t375.5 -140t144 -341q0 -217 -166 -373z" glyph-name="Omega" horiz-adv-x="1343" unicode="Ω"/><glyph d="M1245 809h-203q0 -96 1 -277.5t1 -222.5q0 -55 23 -71.5t72 -16.5l106 -2v-219l-227 2q-109 0 -163 71.5t-54 196.5v539h-344v-809h-238v809h-188v201h426h585h203v-201z" glyph-name="pi" horiz-adv-x="1329" unicode="π"/><glyph d="M1143 1602h-185l-213 325h234zM1806 1495h271l-453 -1495h-246l-325 1047l-330 -1047h-250l-446 1495h278l297 -1063l313 1063h281l305 -1067z" glyph-name="Wgrave" horiz-adv-x="2103" unicode="Ẁ"/><glyph d="M920 1130h-185l-213 326h234zM1360 1010h256l-350 -1010h-228l-215 651l-221 -651h-235l-338 1010h262l196 -660l213 660h248l205 -668z" glyph-name="wgrave" horiz-adv-x="1644" unicode="ẁ"/><glyph d="M1354 1927l-211 -325h-185l164 325h232zM1806 1495h271l-453 -1495h-246l-325 1047l-330 -1047h-250l-446 1495h278l297 -1063l313 1063h281l305 -1067z" glyph-name="Wacute" horiz-adv-x="2103" unicode="Ẃ"/><glyph d="M1130 1456l-210 -326h-185l164 326h231zM1360 1010h256l-350 -1010h-228l-215 651l-221 -651h-235l-338 1010h262l196 -660l213 660h248l205 -668z" glyph-name="wacute" horiz-adv-x="1644" unicode="ẃ"/><glyph d="M844 1612q-61 0 -105.5 43t-44.5 104.5t44 104.5t106 43q59 0 103 -44t44 -103.5t-44 -103.5t-103 -44zM1259.5 1612q-61.5 0 -105.5 43t-44 104.5t44 104.5t106 43q59 0 104 -44t45 -103.5t-44 -103.5t-105.5 -44zM1806 1495h271l-453 -1495h-246l-325 1047l-330 -1047 h-250l-446 1495h278l297 -1063l313 1063h281l305 -1067z" glyph-name="Wdieresis" horiz-adv-x="2103" unicode="Ẅ"/><glyph d="M621 1141q-61 0 -105.5 43t-44.5 104.5t44 104.5t106 43q59 0 103 -44t44 -103.5t-44 -103.5t-103 -44zM1036.5 1141q-61.5 0 -105.5 43t-44 104.5t44 104.5t105 43q59 0 104.5 -44t45.5 -103.5t-44 -103.5t-105.5 -44zM1360 1010h256l-350 -1010h-228l-215 651 l-221 -651h-235l-338 1010h262l196 -660l213 660h248l205 -668z" glyph-name="wdieresis" horiz-adv-x="1644" unicode="ẅ"/><glyph d="M567 1602l-213 325h234l164 -325h-185zM18 1495h287l354 -649l355 649h276l-506 -895v-600h-256v600z" glyph-name="Ygrave" horiz-adv-x="1308" unicode="Ỳ"/><glyph d="M657 1130h-184l-213 326h234zM848 1010h254l-479 -1246q-143 -373 -564 -206l68 219q55 -35 110.5 -45.5t106.5 17.5t76 97l35 95l-430 1069h254l290 -758z" glyph-name="ygrave" horiz-adv-x="1124" unicode="ỳ"/><glyph d="M137 666h1632v-217h-1632v217z" glyph-name="endash" horiz-adv-x="1906" unicode="–"/><glyph d="M147 666h2055v-217h-2055v217z" glyph-name="emdash" horiz-adv-x="2347" unicode="—"/><glyph d="M307 1270q59 0 98 -37t39 -100q0 -66 -42 -108t-107 -42q-70 0 -116 48t-46 147q0 123 77 205.5t181 80.5v-80q-53 0 -91 -36.5t-38 -83.5q16 6 45 6z" glyph-name="quoteleft" horiz-adv-x="575" unicode="‘"/><glyph d="M281 1444q70 0 116.5 -49t46.5 -148q0 -123 -77.5 -204.5t-182.5 -81.5v79q55 2 93 40t38 85q-25 -10 -47 -10q-59 0 -97 37t-38 102.5t41 107.5t107 42z" glyph-name="quoteright" horiz-adv-x="575" unicode="’"/><glyph d="M258 266q70 0 116 -48t46 -148q0 -123 -77 -205t-183 -82v80q57 2 95 41t36 86q-20 -12 -51 -13q-57 0 -94 38t-37 102q0 66 41.5 107.5t107.5 41.5z" glyph-name="quotesinglbase" horiz-adv-x="520" unicode="‚"/><glyph d="M307 1270q59 0 98 -37t39 -100q0 -66 -42 -108t-107 -42q-70 0 -116 48t-46 147q0 121 77 204.5t181 81.5v-80q-53 0 -91 -37.5t-38 -84.5q18 8 45 8zM668 1270q61 0 99 -36t38 -101.5t-41 -107.5t-107 -42q-70 0 -116.5 48t-46.5 147q0 121 77.5 203.5t182.5 82.5v-80 q-55 -2 -93 -38.5t-38 -83.5q20 8 45 8z" glyph-name="quotedblleft" horiz-adv-x="937" unicode="“"/><glyph d="M281 1444q70 0 116.5 -49t46.5 -148q0 -123 -77.5 -204.5t-182.5 -81.5v79q55 2 93 39t38 84q-20 -8 -45 -8q-61 0 -99 37t-38 102.5t41 107.5t107 42zM643 1444q70 0 116 -48t46 -149q0 -123 -77 -204.5t-181 -81.5v79q53 2 91 40t38 85q-25 -10 -45 -10q-59 0 -98 38 t-39 101q0 66 41.5 108t107.5 42z" glyph-name="quotedblright" horiz-adv-x="937" unicode="”"/><glyph d="M281 266q70 0 116.5 -49t46.5 -147q0 -123 -77.5 -205t-182.5 -82v80q55 2 93 40t38 85q-25 -10 -49 -11q-57 0 -95 38t-38 102q0 66 41 107.5t107 41.5zM643 266q70 0 116 -48t46 -148q0 -123 -77 -205t-181 -82v80q55 2 93 40t36 85q-20 -10 -51 -11q-55 0 -93 38 t-38 102q0 66 41.5 107.5t107.5 41.5z" glyph-name="quotedblbase" horiz-adv-x="937" unicode="„"/><glyph d="M633 1249v-153h-219v-555h-154v555h-219v153h219v205h154v-205h219z" glyph-name="dagger" horiz-adv-x="673" unicode="†"/><glyph d="M639 920v-154h-217v-225h-154v225h-223v154h223v155h-227v154h227v225h154v-225h211v-154h-211v-155h217z" glyph-name="daggerdbl" horiz-adv-x="679" unicode="‡"/><glyph d="M442 233q-131 0 -227 94.5t-96 223.5q0 131 95 225t228 94q129 0 223.5 -95t94.5 -224t-95.5 -223.5t-222.5 -94.5z" glyph-name="bullet" horiz-adv-x="880" unicode="•"/><glyph d="M295 -33q-68 0 -116 47t-48 113q0 68 48 115t115.5 47t116 -47t48.5 -115q0 -63 -49 -111.5t-115 -48.5zM815 -33q-68 0 -116 47t-48 113q0 68 48.5 115t115.5 47q66 0 115 -47t49 -115q0 -63 -49 -111.5t-115 -48.5zM1333 -33q-68 0 -115 47t-47 113q0 68 47.5 115 t115 47t115.5 -47t48 -115q0 -63 -49 -111.5t-115 -48.5z" glyph-name="ellipsis" horiz-adv-x="1628" unicode="…"/><glyph d="M434 723q-156 -2 -249 108.5t-93 294.5q0 180 92 292t244 110q154 2 247 -107.5t93 -294.5q0 -182 -91 -291.5t-243 -111.5zM1395 1493h245l-1138 -1493h-244zM262 1126q0 -106 45 -167.5t123 -63.5q78 2 122 62.5t44 168.5q0 96 -38 155.5t-103 70.5q-8 2 -24.5 2 t-24.5 -2q-68 -8 -106 -69t-38 -157zM1466 770q154 2 247 -107.5t93 -293.5q0 -182 -91 -292t-242 -112q-156 -2 -249.5 108.5t-93.5 295.5q0 180 92 291.5t244 109.5zM2228 770q156 2 249 -107.5t93 -293.5q0 -182 -91 -292t-245 -112q-156 -2 -249 108.5t-93 295.5 q0 180 92 291.5t244 109.5zM2232 137q78 2 122 63.5t44 168.5q0 96 -38 155.5t-103 69.5q-10 2 -26.5 2t-24.5 -2q-66 -10 -104 -69.5t-38 -155.5q0 -106 45 -168t123 -64zM1468 137q78 2 122 62.5t44 169.5q0 96 -37.5 155.5t-103.5 69.5q-8 2 -24.5 2t-24.5 -2 q-68 -8 -106 -68.5t-38 -156.5q0 -106 45 -168t123 -64z" glyph-name="perthousand" horiz-adv-x="2656" unicode="‰"/><glyph d="M295 1384l-39 -380h-123l-45 380q-6 63 26.5 96t80.5 31q45 -2 75.5 -34t24.5 -93z" glyph-name="minute" horiz-adv-x="385" unicode="′"/><glyph d="M870 1010l-442 -504l442 -506h-309l-442 506l442 504h309z" glyph-name="guilsinglleft" horiz-adv-x="876" unicode="‹"/><glyph d="M362 1010l443 -504l-443 -506h-307l443 506l-443 504h307z" glyph-name="guilsinglright" horiz-adv-x="897" unicode="›"/><glyph d="M1210 893l-104 -72l-82 117q-41 55 -82 149q-16 -63 -76 -149l-86 -117l-104 72l82 121q55 74 114 127q-88 8 -165 37l-138 47l47 121l132 -46q84 -33 151 -75q-18 111 -18 170v143h127v-143q0 -94 -17 -170q59 41 152 75l133 46l45 -121l-137 -47q-78 -29 -166 -37 q53 -49 112 -127zM803 426l-137 -47q-78 -29 -166 -37q59 -57 112 -127l78 -121l-102 -71l-82 116q-49 61 -82 150q-23 -74 -78 -150l-86 -116l-104 71l84 121q47 66 114 127q-90 8 -168 37l-135 47l47 121l129 -45q82 -31 154 -76q-18 88 -19 170v143h127v-143 q0 -100 -18 -170q63 41 154 76l133 45zM1536 342q51 -45 115 -127l78 -121l-105 -71l-80 116q-49 61 -82 150q-20 -66 -78 -150l-86 -116l-104 71l82 121q47 63 115 127q-88 8 -166 37l-135 47l45 121l131 -45q82 -31 153 -76q-18 88 -18 170v143h127v-143q0 -86 -19 -170 q59 41 154 76l131 45l47 -121l-139 -47q-76 -29 -166 -37z" glyph-name="uni2042" horiz-adv-x="1892" unicode="⁂"/><glyph d="M-283 0h-215l1108 1454h215z" glyph-name="fraction" horiz-adv-x="327" unicode="⁄"/><glyph d="M958 1108q0 -227 -115.5 -367.5t-320.5 -142.5h-2h-2q-205 2 -320.5 143.5t-115.5 366.5q0 227 116.5 367.5t319.5 142.5h2h2q203 -2 319.5 -143.5t116.5 -366.5zM520 776q121 0 185.5 92.5t64.5 239.5q0 150 -65.5 240t-184.5 90q-121 0 -186.5 -92.5t-65.5 -237.5 t65.5 -238.5t186.5 -93.5z" glyph-name="uni2070" horiz-adv-x="1040" unicode="⁰"/><glyph d="M854 969v-170h-125v-185h-170v185h-477v170l477 628h170v-628h125zM289 969h270v360z" glyph-name="uni2074" horiz-adv-x="935" unicode="⁴"/><glyph d="M451 1294q154 0 247 -99t93 -253q0 -143 -105.5 -243.5t-253 -100.5t-249 100.5t-101.5 243.5h170q0 -74 51 -123t129 -49q76 0 130 50t56 122q2 96 -50 150.5t-144 54.5q-53 0 -97 -24.5t-59 -59.5l-155 41l125 493h518v-172h-387l-45 -163q59 32 127 32z" glyph-name="uni2075" horiz-adv-x="872" unicode="⁵"/><glyph d="M496 1313q141 0 249.5 -94.5t108.5 -257.5q0 -160 -106.5 -262.5t-274.5 -102.5q-199 0 -296 143.5t-95 356.5q2 227 107.5 376.5t312.5 149.5q225 0 332 -168l-144 -88q-72 84 -186 84q-109 0 -174.5 -68.5t-73.5 -181.5q82 113 240 113zM483 762q84 0 142.5 53 t58.5 141q0 90 -56.5 141.5t-140.5 55.5q-88 2 -146 -51t-58 -146q0 -88 58 -141t142 -53z" glyph-name="uni2076" horiz-adv-x="935" unicode="⁶"/><glyph d="M82 1597h684v-174q-354 -274 -354 -809h-176q0 508 315 809h-469v174z" glyph-name="uni2077" horiz-adv-x="847" unicode="⁷"/><glyph d="M606 1139q86 -27 136.5 -100.5t50.5 -161.5q-2 -127 -102.5 -204t-252.5 -77q-156 2 -255 81t-101 206q0 86 49 156.5t133 99.5q-66 27 -102.5 86t-36.5 133q0 119 89 189.5t224 70.5q133 0 221.5 -71.5t90.5 -186.5q0 -76 -39 -135t-105 -86zM272 1341.5 q-4 -57.5 45.5 -96.5t120.5 -39q74 0 119 39t41 101q-4 55 -50 86.5t-114 31.5q-66 0 -112 -32.5t-50 -90zM623 911q0 66 -55.5 105t-133.5 39q-80 0 -132 -41t-52 -109q2 -66 55 -107.5t131 -41.5q80 0 132.5 44.5t54.5 110.5z" glyph-name="uni2078" horiz-adv-x="874" unicode="⁸"/><glyph d="M854 1120q2 -229 -104.5 -376.5t-313.5 -147.5q-225 0 -334 168l144 86q72 -82 186 -84q113 -2 176.5 63.5t73.5 188.5q-84 -117 -240 -113q-143 0 -251.5 93.5t-108.5 256.5q0 160 106.5 263.5t274.5 103.5q199 0 295 -142.5t96 -359.5zM451 1065q86 -2 145 51t59 143.5 t-59 143.5t-143 53t-142.5 -53t-58.5 -143q0 -88 58.5 -140.5t140.5 -54.5z" glyph-name="uni2079" horiz-adv-x="935" unicode="⁹"/><glyph d="M958 289q0 -227 -115.5 -367.5t-320.5 -142.5h-2h-2q-205 2 -320.5 143t-115.5 367q0 227 116.5 367.5t319.5 142.5h2h2q203 -2 319.5 -143.5t116.5 -366.5zM520 -43q121 0 185.5 92t64.5 240q0 150 -65.5 239.5t-184.5 89.5q-121 0 -186.5 -92t-65.5 -237.5t65.5 -238.5 t186.5 -93z" glyph-name="uni2080" horiz-adv-x="1040" unicode="₀"/><glyph d="M283 780h170v-985h-170v811l-201 -84v170z" glyph-name="uni2081" horiz-adv-x="624" unicode="₁"/><glyph d="M98 -205v176l424 348q80 63 80 144q0 78 -47 123t-127 45q-74 0 -123 -42t-53 -122h-170q8 154 102.5 243t241.5 89q156 0 252 -96.5t96 -237.5q0 -162 -147 -279l-279 -221l404 2v-170z" glyph-name="uni2082" horiz-adv-x="856" unicode="₂"/><glyph d="M543 432q104 -33 167.5 -117t63.5 -198q0 -145 -100.5 -241.5t-245.5 -96.5q-150 0 -248 96t-98 236h170q4 -70 51 -117t125 -47q74 0 124 47t50 123q0 78 -48 127t-124 53q-41 2 -90 -16l-61 135l204 190l-360 2v170h629v-149z" glyph-name="uni2083" horiz-adv-x="856" unicode="₃"/><glyph d="M854 150v-170h-125v-185h-170v185h-477v170l477 628h170v-628h125zM289 150h270v360z" glyph-name="uni2084" horiz-adv-x="935" unicode="₄"/><glyph d="M451 475q154 0 247 -99.5t93 -252.5q0 -143 -105.5 -243.5t-253 -100.5t-249 100.5t-101.5 243.5h170q0 -74 51 -123t129 -49q76 0 130 50t56 122q2 96 -50 150.5t-144 54.5q-53 0 -97 -24.5t-59 -59.5l-155 41l125 493h518v-172h-387l-45 -164q59 33 127 33z" glyph-name="uni2085" horiz-adv-x="872" unicode="₅"/><glyph d="M496 494q141 0 249.5 -94.5t108.5 -258.5q0 -160 -106.5 -262t-274.5 -102q-199 0 -296 143t-95 356q2 227 107.5 377t312.5 150q225 0 332 -168l-144 -88q-72 84 -186 84q-109 0 -174.5 -68.5t-73.5 -181.5q82 113 240 113zM483 -57q84 0 142.5 53t58.5 141 q0 90 -56.5 141.5t-140.5 55.5q-88 2 -146 -51.5t-58 -145.5q0 -88 58 -141t142 -53z" glyph-name="uni2086" horiz-adv-x="935" unicode="₆"/><glyph d="M82 778h684v-174q-354 -274 -354 -809h-176q0 508 315 809h-469v174z" glyph-name="uni2087" horiz-adv-x="847" unicode="₇"/><glyph d="M606 319q88 -27 138.5 -102.5t48.5 -161.5q-2 -123 -100.5 -199.5t-252.5 -78.5q-158 0 -257 77.5t-101 206.5q0 86 48 158t134 100q-66 27 -102.5 86.5t-36.5 133.5q0 119 88 189.5t225 70.5q135 0 223.5 -71t88.5 -187q0 -76 -38 -135.5t-106 -86.5zM436 645 q-72 0 -118 -35t-46 -92t47.5 -94t119 -37t116.5 38t43 95.5t-47 91t-115 33.5zM623 86q0 70 -52.5 110t-132.5 40q-82 0 -135 -41t-53 -111q2 -68 55 -107.5t133 -39.5t131.5 40.5t53.5 108.5z" glyph-name="uni2088" horiz-adv-x="874" unicode="₈"/><glyph d="M854 301q2 -229 -104.5 -376.5t-313.5 -147.5q-225 0 -334 168l144 86q72 -82 186 -84q113 -2 176.5 63.5t73.5 188.5q-84 -117 -240 -113q-143 0 -251.5 93t-108.5 257q0 160 106.5 263.5t274.5 103.5q199 0 295 -142.5t96 -359.5zM451 246q86 -2 145 51t59 143 t-59 143.5t-143 53.5t-142.5 -53.5t-58.5 -143.5q0 -88 58.5 -140t140.5 -54z" glyph-name="uni2089" horiz-adv-x="935" unicode="₉"/><glyph d="M1309 307l143 -176q-195 -156 -457 -156q-229 0 -415.5 128t-274.5 335h-182v228h125q-2 25 -2 75q0 55 4 82h-127v228h182q88 211 274.5 340t415.5 129q197 0 398 -107l-111 -199q-150 78 -287 78q-135 0 -248.5 -64.5t-185.5 -176.5h557l-59 -228h-580q-4 -53 -4 -82 q0 -51 4 -75h541l-55 -228h-402q70 -109 184.5 -173t247.5 -64q177 0 314 106z" glyph-name="Euro" horiz-adv-x="1574" unicode="€"/><glyph d="M2040 1479q201 0 348 -137.5t147 -346.5q0 -207 -147 -344t-348 -137q-197 0 -347.5 139.5t-150.5 341.5q0 207 148.5 345.5t349.5 138.5zM1171 362v1092h209v-1454h-209l-716 1092v-1092h-209v1454h209zM2040 711q125 0 207 85t82 199q0 123 -81 203t-208 80t-209 -81 t-82 -202q0 -113 84 -198.5t207 -85.5zM1749 199v170h584v-170h-584z" glyph-name="afii61352" horiz-adv-x="2781" unicode="№"/><glyph d="M547 1481q190 0 325.5 -135.5t135.5 -325.5q0 -193 -135.5 -328t-325.5 -135q-195 0 -330 135t-135 328q0 190 136 325.5t329 135.5zM547 651q154 0 261 106.5t107 262.5t-107.5 262.5t-260.5 106.5q-156 0 -263.5 -106.5t-107.5 -262.5q0 -158 105.5 -263.5 t265.5 -105.5zM717 1110v-8v-12q-6 -127 -158 -121h-49v-160h-90v416h90h49q152 6 158 -115zM582 1049q37 2 39 41h-3q6 47 -59 47h-49v-88h72z" glyph-name="uni2117" horiz-adv-x="1089" unicode="℗"/><glyph d="M80 1389v106h452v-106h-178v-474h-102v474h-172zM1094 1495h100v-580h-100v338l-144 -338h-106l-142 332v-332h-100v580h100l195 -457z" glyph-name="trademark" horiz-adv-x="1316" unicode="™"/><glyph d="M102 723q2 324 191.5 527.5t484.5 203.5q301 0 486.5 -181t185.5 -493q4 -55 0 -108h-1143v-369q168 -240 496 -240q158 0 290 75t197 198l78 -29q-76 -152 -227.5 -238.5t-341.5 -86.5q-313 0 -507 205.5t-190 535.5zM307 1118v-373h940v410q-78 104 -199.5 161.5 t-269.5 55.5q-150 -2 -271.5 -69.5t-199.5 -184.5z" glyph-name="estimated" horiz-adv-x="1554" unicode="℮"/><glyph d="M254 0h-215l1108 1454h215zM76 1237v149l151 68v-158zM227 1454h152v-752h-152v752zM1210 -23q-123 0 -196.5 69t-73.5 159q0 121 100 184q-82 63 -77 158q2 84 70.5 147.5t176.5 63.5q106 0 174 -61.5t72 -145.5q6 -98 -78 -162q45 -29 74 -78t29 -102q0 -92 -74 -162 t-197 -70zM1210 457q49 0 78 23.5t29 56.5q0 31 -27.5 54t-79 23t-80 -23.5t-26.5 -53.5q0 -33 27.5 -56.5t78.5 -23.5zM1210 119q57 0 90 27.5t35 68.5q2 39 -30.5 68.5t-94 29.5t-94.5 -28.5t-31 -69.5q0 -41 33 -68.5t92 -27.5z" glyph-name="oneeighth" horiz-adv-x="1554" unicode="⅛"/><glyph d="M602 950q0 -111 -76.5 -185.5t-187.5 -74.5q-117 0 -194.5 82t-67.5 197h149q-10 -55 24 -93t89 -38q47 0 81 32.5t34 79.5q0 61 -41 92q-59 49 -138 11l-61 116h2l129 134h-240v151h471v-131l-131 -131q68 -33 101 -76q57 -72 57 -166zM1288 1454h215l-1108 -1454h-215z M1520 389q45 -29 73.5 -78t28.5 -102q0 -92 -73.5 -162t-196.5 -70t-197 69t-74 159q0 121 101 184q-82 63 -78 158q2 84 70.5 147.5t177.5 63.5q106 0 173.5 -61.5t71.5 -145.5q7 -99 -77 -162zM1352 614q-53 0 -81 -23.5t-26 -53.5q0 -33 27.5 -56.5t79.5 -23.5 q49 0 77.5 23.5t28.5 56.5q0 31 -27.5 54t-78.5 23zM1477 215q2 39 -31 68.5t-94.5 29.5t-94 -28.5t-30.5 -69.5q0 -41 32.5 -68.5t92.5 -27.5q57 0 90 27.5t35 68.5z" glyph-name="threeeighths" horiz-adv-x="1695" unicode="⅜"/><glyph d="M76 977h149q-6 -55 28 -94t91 -39q51 0 87 33.5t38 83.5q2 59 -35 97t-96 38q-33 0 -62.5 -16.5t-39.5 -39.5l-140 35l94 379h402v-149h-285l-22 -82q27 8 69 8q113 0 187.5 -77t74.5 -193q0 -109 -79.5 -188t-192.5 -79q-119 0 -196.5 83t-71.5 200zM410 0h-215 l1108 1454h215zM1366 -23q-123 0 -196.5 69t-73.5 159q0 121 100 184q-82 63 -78 158q2 84 70.5 147.5t177.5 63.5q106 0 174 -61.5t72 -145.5q6 -98 -78 -162q45 -29 73.5 -78t28.5 -102q0 -92 -73.5 -162t-196.5 -70zM1366 457q49 0 78 23.5t29 56.5q0 31 -28 54t-79 23 t-80 -23.5t-26 -53.5q0 -33 27.5 -56.5t78.5 -23.5zM1366 119q57 0 90 27.5t35 68.5q2 39 -31 68.5t-94 29.5t-94 -28.5t-31 -69.5q0 -41 33 -68.5t92 -27.5z" glyph-name="fiveeighths" horiz-adv-x="1710" unicode="⅝"/><glyph d="M188 702q0 365 230 594h-342v158h545v-158q-274 -199 -275 -594h-158zM1198 1454h215l-1108 -1454h-215zM1427 389q45 -29 74 -78t29 -102q0 -92 -74 -162t-196.5 -70t-196.5 69t-74 159q0 121 101 184q-82 63 -78 158q2 84 70.5 147.5t177.5 63.5q106 0 173.5 -61.5 t71.5 -145.5q6 -99 -78 -162zM1259.5 614q-51.5 0 -80 -23.5t-26.5 -53.5q0 -33 27.5 -56.5t79.5 -23.5q49 0 77.5 23.5t28.5 56.5q0 31 -27.5 54t-79 23zM1384 215q2 39 -30.5 68.5t-94 29.5t-94 -28.5t-30.5 -69.5q0 -41 32.5 -68.5t92.5 -27.5q57 0 89.5 27.5t34.5 68.5z " glyph-name="seveneighths" horiz-adv-x="1605" unicode="⅞"/><glyph d="M840 -137l-717 712l717 717l131 -131l-490 -491h1383v-185h-1383l490 -489z" glyph-name="arrowleft" horiz-adv-x="1986" unicode="←"/><glyph d="M123 961l719 712l717 -712l-132 -134l-493 488v-1315h-186v1315l-492 -488z" glyph-name="arrowup" horiz-adv-x="1681" unicode="↑"/><glyph d="M1147 1335l715 -714l-715 -713l-131 131l489 489h-1382v185l1382 2l-489 489z" glyph-name="arrowright" horiz-adv-x="1984" unicode="→"/><glyph d="M1550 479l-714 -717l-713 717l133 133l489 -489v1409h185v-1411l491 491z" glyph-name="arrowdown" horiz-adv-x="1673" unicode="↓"/><glyph d="M1624 0v268l203 195h-875h-479l205 -197v-266l-555 557l555 553v-266l-203 -195l475 2v2l226 -2l188 2v-2l461 -2l-201 195v266l553 -551z" glyph-name="arrowboth" horiz-adv-x="2299" unicode="↔"/><glyph d="M770 -18l197 202h266l-557 -555l-553 555h266l195 -200l-2 475v205v206l2 461l-195 -201h-266l553 553l557 -553h-266l-197 203v-874v-477z" glyph-name="arrowupdn" horiz-adv-x="1355" unicode="↕"/><glyph d="M852 1337v-125h-68l-114 125h182zM784 1212l596 -649l-338 -108l-278 309l-23 -485l-587 434v501z" glyph-name="uni2196" horiz-adv-x="1705" unicode="↖"/><glyph d="M608 1495h1012v-1010h-188v693l-1178 -1178l-131 131l1177 1178h-692v186z" glyph-name="uni2197" horiz-adv-x="1742" unicode="↗"/><glyph d="M1616 1014v-1012h-1012v188h692l-1173 1174l131 131l1176 -1173v692h186z" glyph-name="uni2198" horiz-adv-x="1738" unicode="↘"/><glyph d="M1135 0h-1012l2 1010h186v-693l1180 1180l131 -129l-1180 -1182l695 -2z" glyph-name="uni2199" horiz-adv-x="1744" unicode="↙"/><glyph d="M795 1495q199 -182 303 -420.5t104 -462.5q0 -313 -165 -474t-398 -163q-229 -2 -390 144.5t-161 400.5q0 248 151.5 397.5t372.5 149.5q178 0 287 -96q-115 291 -418 524h314zM639 188q145 0 242.5 100.5t97.5 246.5q0 143 -97.5 242.5t-242.5 99.5 q-147 0 -245.5 -100.5t-98.5 -244t99.5 -244t244.5 -100.5z" glyph-name="partialdiff" horiz-adv-x="1296" unicode="∂"/><glyph d="M1606 1303l-156 -142q119 -190 111 -436q-12 -334 -211 -547t-506 -213q-291 0 -492 201l-155 -143l-115 124l166 150q-119 188 -119 428q0 326 203 542t510 216q299 0 501 -191l150 135zM360 725q0 -152 60 -270l754 682q-131 125 -332 125q-213 0 -347.5 -149.5 t-134.5 -387.5zM1329 725q0 154 -57 274l-754 -684q133 -129 326 -129q221 0 353 148.5t132 390.5z" glyph-name="emptyset" horiz-adv-x="1687" unicode="∅"/><glyph d="M829 1454l484 -1249v-205h-1190v205l481 1249h225zM717 1165l-373 -960h746z" glyph-name="uni2206" horiz-adv-x="1435" unicode="∆"/><glyph d="M1253 1010h-202v-619q0 -100 55 -138t147 -17v-230q-184 -35 -314 48t-130 292v664h-309v-1010h-244v1010h-186v243h430h551h202v-243z" glyph-name="product" horiz-adv-x="1337" unicode="∏"/><glyph d="M82 0v256l475 498l-475 485v256h928v-252h-617l463 -489l-467 -500h621v-254h-928z" glyph-name="summation" horiz-adv-x="1105" unicode="∑"/><glyph d="M143 764h764v-207h-764v207z" glyph-name="minus" horiz-adv-x="1050" unicode="−"/><glyph d="M967 1489h473v-223h-330l-504 -1266h-227l-379 1008h225l271 -715z" glyph-name="radical" horiz-adv-x="1492" unicode="√"/><glyph d="M96 588q0 174 119 292.5t293 118.5q256 0 410 -243q154 244 409 243q174 0 293 -118.5t119 -292.5t-119 -293t-293 -119q-254 0 -409 244q-156 -244 -410 -244q-174 0 -293 119t-119 293zM319 588q0 -82 54.5 -135.5t136.5 -53.5q72 0 142.5 44t115.5 145 q-84 188 -258 188q-82 0 -136.5 -53t-54.5 -135zM1067 588q45 -100 115.5 -144.5t142.5 -44.5q82 0 136.5 53.5t54.5 135.5t-54.5 135t-136.5 53q-174 0 -258 -188z" glyph-name="infinity" horiz-adv-x="1835" unicode="∞"/><glyph d="M627 1522h129v-222h-113q-113 0 -113 -133v-438v-399q0 -160 -95 -258.5t-245 -98.5h-129v224h113q113 0 113 133v438v399q0 160 94 257.5t246 97.5z" glyph-name="integral" horiz-adv-x="817" unicode="∫"/><glyph d="M741 799h125q0 -106 -63.5 -173t-159.5 -67q-82 0 -189.5 74t-154.5 74q-84 0 -90 -89h-127q0 102 63.5 168t159.5 66q80 0 189.5 -73.5t154.5 -73.5q86 0 92 94zM741 463h125q0 -106 -63.5 -173t-159.5 -67q-82 0 -189.5 74t-154.5 74q-84 0 -90 -88h-127 q0 102 63.5 167.5t159.5 65.5q80 0 189.5 -73.5t154.5 -73.5q86 0 92 94z" glyph-name="approxequal" horiz-adv-x="948" unicode="≈"/><glyph d="M1085 827h-313l-147 -268h460v-209h-573l-123 -225h-229l123 225h-174v209h288l146 268h-434v207h548l134 248h229l-135 -248h200v-207z" glyph-name="notequal" horiz-adv-x="1193" unicode="≠"/><glyph d="M74 680v254l956 326v-265l-567 -188l567 -189v-264zM74 0v264h956v-264h-956z" glyph-name="lessequal" horiz-adv-x="1118" unicode="≤"/><glyph d="M135 1192l932 -318v-221l-932 -317v227l600 201l-600 201v227zM135 0v227h932v-227h-932z" glyph-name="greaterequal" horiz-adv-x="1187" unicode="≥"/><glyph d="M123 1454h1454v-1454h-1454v1454z" glyph-name="filledbox" horiz-adv-x="1699" unicode="■"/><glyph d="M123 1454h1454v-1454h-1454v1454zM307 1270v-1086h1086v1086h-1086z" glyph-name="H22073" horiz-adv-x="1699" unicode="□"/><glyph d="M1855 0h-1732l866 1454z" glyph-name="triagup" horiz-adv-x="1978" unicode="▲"/><glyph d="M1858 6h-1735l868 1454zM1561 168l-572 956l-569 -956h1141z" glyph-name="uni25B3" horiz-adv-x="1980" unicode="△"/><glyph d="M770 1454l416 -727l-416 -727h-233l-414 727l414 727h233zM653 211l285 516l-285 516l-284 -516z" glyph-name="lozenge" horiz-adv-x="1308" unicode="◊"/><glyph d="M918 -113q-328 0 -561.5 232.5t-233.5 562.5q0 328 233.5 561.5t561 233.5t562 -233.5t234.5 -561.5t-233 -561.5t-563 -233.5zM918 59q258 0 440 183.5t182 439.5t-183 439.5t-439 183.5t-438.5 -183.5t-182.5 -439.5t182.5 -439.5t438.5 -183.5z" glyph-name="circle" horiz-adv-x="1837" unicode="○"/><glyph d="M918 -113q-328 0 -561.5 232.5t-233.5 562.5q0 328 233.5 561.5t561 233.5t562 -233.5t234.5 -561.5t-233 -561.5t-563 -233.5z" glyph-name="H18533" horiz-adv-x="1837" unicode="●"/><glyph d="M917.5 1477q327.5 0 562 -233.5t234.5 -561.5t-233.5 -561.5t-562.5 -233.5q-328 0 -561.5 232.5t-233.5 562.5q0 328 233.5 561.5t561 233.5zM840 1298q-229 -29 -386 -204.5t-157 -411.5q0 -127 51 -246l492 336v526zM1540 682q0 233 -156.5 410.5t-386.5 205.5v-526 l492 -336q51 119 51 246zM428 301q158 -205 412 -235v514zM997 66q254 31 412 235l-412 279v-514z" glyph-name="uni262E" horiz-adv-x="1837" unicode="☮"/><glyph d="M924 -113q-334 0 -567.5 231.5t-233.5 565.5q0 326 234.5 557.5t566.5 231.5q326 0 557 -231.5t231 -557.5q0 -332 -231 -564.5t-557 -232.5zM924 49q264 0 448 182.5t184 450.5q0 266 -184 450.5t-448 184.5q-270 0 -454.5 -183.5t-184.5 -451.5q0 -272 181.5 -452.5 t457.5 -180.5zM672 739q-51 0 -87 38t-36 87t36 86t87 37q49 0 84 -37t35 -86t-35 -87t-84 -38zM1180 733q-51 0 -87 37t-36 86t35.5 86t87.5 37q49 0 84.5 -37t35.5 -86t-35.5 -86t-84.5 -37zM573 610h144q-8 -92 52 -158.5t154.5 -66.5t155 65.5t54.5 159.5h141 q8 -152 -95.5 -259t-255 -107t-255 108t-95.5 258z" glyph-name="smileface" horiz-adv-x="1835" unicode="☺"/><glyph d="M74 492l141 149l295 -315l639 770l158 -133l-789 -949z" glyph-name="uni2713" horiz-adv-x="1449" unicode="✓"/><glyph d="M825 -12q-301 0 -512 212t-211 513q0 299 212 511t511 212q297 0 509 -212t212 -511t-212 -512t-509 -213zM915 326v800h-137l-153 -79v-142l145 70v-649h145z" glyph-name="uni2776" horiz-adv-x="1648" unicode="❶"/><glyph d="M823 1436q299 0 511 -212t212 -511t-212 -512t-509 -213q-301 0 -512 212t-211 513q0 299 212 511t509 212zM1069 508h-256l143 129q70 63 99.5 113.5t29.5 115.5q0 115 -72.5 183.5t-187.5 68.5q-117 0 -191.5 -77.5t-68.5 -196.5h146q0 123 114 127q53 0 84 -32t29 -87 q-2 -43 -57 -94l-297 -277v-123l485 2v148z" glyph-name="uni2777" horiz-adv-x="1648" unicode="❷"/><glyph d="M825 -12q-301 0 -512 212t-211 513q0 299 212 511t511 212q297 0 509 -212t212 -511t-212 -512t-509 -213zM571 596q-8 -115 69 -194.5t196 -79.5q115 0 189.5 70.5t74.5 185.5q0 94 -52.5 158.5t-134.5 82.5l152 158v117h-463v-152h238l-129 -141v-101h110 q57 2 95 -28.5t38 -93.5q0 -51 -33.5 -84t-84.5 -33q-57 0 -91 37t-32 98h-142z" glyph-name="uni2778" horiz-adv-x="1648" unicode="❸"/><glyph d="M825 -12q-301 0 -512 212t-211 513q0 299 212 511t511 212q297 0 509 -212t212 -511t-212 -512t-509 -213zM831 326h148v145h123v143h-123v512h-141l-367 -508v-147h360v-145zM629 614l202 269v-269h-202z" glyph-name="uni2779" horiz-adv-x="1648" unicode="❹"/><glyph d="M825 -12q-301 0 -512 212t-211 513q0 299 212 511t511 212q297 0 509 -212t212 -511t-212 -512t-509 -213zM713 844l22 125h316v147h-433l-77 -446l129 -21q45 78 139 78q63 0 103 -40t40 -103q0 -66 -37.5 -105t-101.5 -39q-127 0 -145 129l-144 -37q16 -109 93 -174 t192 -65q129 0 212 82t83 209q0 123 -78 206.5t-195 83.5q-69 1 -118 -30z" glyph-name="uni277A" horiz-adv-x="1648" unicode="❺"/><glyph d="M825 -12q-301 0 -512 212t-211 513q0 299 212 511t509 212q299 0 511 -212t212 -511t-212 -512t-509 -213zM643 815q4 80 53 128t121 48q111 0 158 -82l137 47q-37 84 -111.5 132.5t-173.5 48.5q-164 0 -253 -119t-80 -332q6 -174 82.5 -276.5t205.5 -110.5 q133 -6 225.5 77t94.5 216q2 123 -80 206t-205 83q-117 0 -174 -66zM805 444q-66 0 -107 41t-41 107q0 63 42 103t105.5 40t103.5 -40t40 -103q0 -66 -40 -107t-103 -41z" glyph-name="uni277B" horiz-adv-x="1648" unicode="❻"/><glyph d="M825 -12q-301 0 -512 212t-211 513q0 299 212 511t511 212q297 0 509 -212t212 -511t-212 -512t-509 -213zM920 948q-217 -287 -252 -622h151q37 377 279 635v122h-510v-135h332z" glyph-name="uni277C" horiz-adv-x="1648" unicode="❼"/><glyph d="M825 -12q-301 0 -512 212t-211 513q0 299 212 511t511 212q297 0 509 -212t212 -511t-212 -512t-509 -213zM821 303q137 0 217 71.5t80 192.5q0 63 -27.5 118.5t-74.5 82.5q61 51 61 145q0 100 -70.5 162t-185.5 62q-119 0 -190.5 -61.5t-71.5 -164.5q0 -84 62 -145 q-45 -25 -74 -81t-29 -122q0 -119 83 -189.5t220 -70.5zM821 821q-49 0 -79.5 23.5t-30.5 60.5q0 39 31.5 62.5t78.5 23.5t77 -23.5t30 -62.5t-30 -61.5t-77 -22.5zM821 449q-68 0 -109.5 33.5t-41.5 88.5q0 57 42 91t109 34q66 0 108 -33.5t42 -91.5q0 -55 -42 -88.5 t-108 -33.5z" glyph-name="uni277D" horiz-adv-x="1648" unicode="❽"/><glyph d="M825 -12q-301 0 -512 212t-211 513q0 299 212 511t511 212q297 0 509 -212t212 -511t-212 -512t-509 -213zM985 631q-2 -82 -46 -132t-120 -53q-121 0 -162 89l-139 -50q35 -86 116 -135t185 -47q156 4 238 118t71 329q-8 178 -85.5 281.5t-219.5 105.5q-129 2 -214 -82 t-85 -215q0 -123 84 -204t209 -77q102 4 168 72zM813 991q61 4 103 -37t44.5 -104.5t-36.5 -103t-102.5 -44t-106.5 36.5t-43 104.5t39 104.5t102 43z" glyph-name="uni277E" horiz-adv-x="1648" unicode="❾"/><glyph d="M897 -113q-328 0 -561.5 232.5t-233.5 562.5q0 328 233.5 561.5t561.5 233.5t562.5 -233.5t234.5 -561.5t-233.5 -561.5t-563.5 -233.5zM897 59q258 0 440.5 183.5t182.5 439.5t-183.5 439.5t-439.5 183.5t-438.5 -183.5t-182.5 -439.5t182.5 -439.5t438.5 -183.5z M698 813v152l156 79v-151zM856 293l-2 751h154v-751h-152z" glyph-name="uni2780" horiz-adv-x="1796" unicode="➀"/><glyph d="M897 1477q328 0 562.5 -233.5t234.5 -561.5t-233.5 -561.5t-563.5 -233.5q-328 0 -561.5 232.5t-233.5 562.5q0 328 233.5 561.5t561.5 233.5zM897 59q258 0 440.5 183.5t182.5 439.5t-183.5 439.5t-439.5 183.5t-438.5 -183.5t-182.5 -439.5t182.5 -439.5t438.5 -183.5z M1178 819q0 -66 -30 -115t-99 -114l-144 -129l256 2v-150l-485 -2v123l297 277q55 51 57 94q2 55 -27.5 87t-84.5 34q-115 -4 -115 -127h-146q-6 117 69 194.5t192 77.5q115 2 187.5 -66.5t72.5 -185.5z" glyph-name="uni2781" horiz-adv-x="1796" unicode="➁"/><glyph d="M897 1477q328 0 562.5 -233.5t234.5 -561.5t-233.5 -561.5t-563.5 -233.5q-328 0 -561.5 232.5t-233.5 562.5q0 328 233.5 561.5t561.5 233.5zM897 59q258 0 440.5 183.5t182.5 439.5t-183.5 439.5t-439.5 183.5t-438.5 -183.5t-182.5 -439.5t182.5 -439.5t438.5 -183.5z M977 770q82 -20 134 -83.5t52 -158.5q0 -115 -74.5 -185.5t-189.5 -70.5q-119 0 -195.5 80t-68.5 195h141q-2 -61 31 -98t92 -37q49 0 84 32.5t35 83.5q0 61 -38 93t-95 30h-111l-2 101l131 141h-237v151h462v-116z" glyph-name="uni2782" horiz-adv-x="1796" unicode="➂"/><glyph d="M897 1477q328 0 562.5 -233.5t234.5 -561.5t-233.5 -561.5t-563.5 -233.5q-328 0 -561.5 232.5t-233.5 562.5q0 328 233.5 561.5t561.5 233.5zM897 59q258 0 440.5 183.5t182.5 439.5t-183.5 439.5t-439.5 183.5t-438.5 -183.5t-182.5 -439.5t182.5 -439.5t438.5 -183.5z M1069 1063v-469h92v-148h-92v-137h-151v137l-351 3v147l351 467h151zM752 596h166v221z" glyph-name="uni2783" horiz-adv-x="1796" unicode="➃"/><glyph d="M897 -113q-328 0 -561.5 232.5t-233.5 562.5q0 328 233.5 561.5t561.5 233.5t562.5 -233.5t234.5 -561.5t-233.5 -561.5t-563.5 -233.5zM897 59q258 0 440.5 183.5t182.5 439.5t-183.5 439.5t-439.5 183.5t-438.5 -183.5t-182.5 -439.5t182.5 -439.5t438.5 -183.5z M621 567h149q-6 -55 27.5 -94t91.5 -39q51 0 87 34t38 83q2 59 -35 97t-96 38q-33 0 -62.5 -16.5t-40.5 -38.5l-139 35l94 378h402v-149h-285l-23 -82q27 8 70 8q113 0 187.5 -76.5t74.5 -193.5q0 -109 -80 -187.5t-192 -78.5q-119 0 -196.5 82.5t-71.5 199.5z" glyph-name="uni2784" horiz-adv-x="1796" unicode="➄"/><glyph d="M897 -113q-328 0 -561.5 232.5t-233.5 562.5q0 328 233.5 561.5t561.5 233.5t562.5 -233.5t234.5 -561.5t-233.5 -561.5t-563.5 -233.5zM897 59q258 0 440.5 183.5t182.5 439.5t-183.5 439.5t-439.5 183.5t-438.5 -183.5t-182.5 -439.5t182.5 -439.5t438.5 -183.5z M633 877q33 78 105.5 128t158.5 52q174 -2 258 -144l-111 -73q-53 78 -145 75q-53 -2 -99 -41.5t-59 -107.5q55 78 160 74q119 2 188.5 -83t63.5 -202q-6 -115 -83 -190.5t-198 -75.5q-98 2 -165.5 60.5t-93 146.5t-21.5 189.5t41 191.5zM752 573q-2 -66 31.5 -104.5 t88.5 -38.5q59 0 98.5 41t35.5 109q-4 53 -40 85.5t-83 32.5q-49 2 -88 -33t-43 -92z" glyph-name="uni2785" horiz-adv-x="1796" unicode="➅"/><glyph d="M897 1477q328 0 562.5 -233.5t234.5 -561.5t-233.5 -561.5t-563.5 -233.5q-328 0 -561.5 232.5t-233.5 562.5q0 328 233.5 561.5t561.5 233.5zM897 59q258 0 440.5 183.5t182.5 439.5t-183.5 439.5t-439.5 183.5t-438.5 -183.5t-182.5 -439.5t182.5 -439.5t438.5 -183.5z M631 887v157h547v-157q-274 -199 -275 -594h-160q0 365 230 594h-342z" glyph-name="uni2786" horiz-adv-x="1796" unicode="➆"/><glyph d="M897 -113q-328 0 -561.5 232.5t-233.5 562.5q0 328 233.5 561.5t561.5 233.5t562.5 -233.5t234.5 -561.5t-233.5 -561.5t-563.5 -233.5zM897 59q258 0 440.5 183.5t182.5 439.5t-183.5 439.5t-439.5 183.5t-438.5 -183.5t-182.5 -439.5t182.5 -439.5t438.5 -183.5z M889 295q-123 -2 -195.5 66.5t-72.5 160.5q0 117 100 183q-74 57 -78 143q-4 88 65.5 154.5t182.5 68.5q109 -2 176.5 -66.5t69.5 -148.5q-4 -92 -80 -151q100 -66 100 -181q0 -92 -71.5 -160.5t-196.5 -68.5zM889 772q51 0 79.5 25.5t24.5 56.5q0 31 -27.5 53.5t-76.5 22.5 q-51 0 -78 -22.5t-29 -55.5q0 -33 29 -56.5t78 -23.5zM889 434q59 0 92 30t31 71q-2 39 -34 66.5t-89.5 27.5t-90 -29t-32.5 -68q0 -41 33 -69.5t90 -28.5z" glyph-name="uni2787" horiz-adv-x="1796" unicode="➇"/><glyph d="M897 -113q-328 0 -561.5 232.5t-233.5 562.5q0 328 233.5 561.5t561.5 233.5t562.5 -233.5t234.5 -561.5t-233.5 -561.5t-563.5 -233.5zM897 59q258 0 440.5 183.5t182.5 439.5t-183.5 439.5t-439.5 183.5t-438.5 -183.5t-182.5 -439.5t182.5 -439.5t438.5 -183.5z M623 784q8 117 88 193t192 74q98 0 167 -57.5t91 -155.5q29 -141 15.5 -265t-92 -207t-205.5 -83q-168 0 -252 145l121 70q43 -76 139 -72q55 4 98 44t55 112q-49 -76 -163 -76q-104 0 -182 74.5t-72 203.5zM766 776q0 -59 34 -96t83 -41q59 -4 100 35t43 106q-4 53 -36 91 t-83 42q-57 2 -99 -37t-42 -100z" glyph-name="uni2788" horiz-adv-x="1796" unicode="➈"/><glyph d="M1497 369v194h469v-547h-168l-20 164h-19q-2 -8 -6 -19t-25.5 -43t-50 -55.5t-87 -43t-130.5 -19.5q-195 0 -317.5 132t-122.5 386q0 260 140 394.5t341 134.5q162 0 293 -91.5t162 -269.5h-232q-47 162 -219 162q-129 0 -193.5 -91t-64.5 -230.5t63.5 -233.5t190.5 -94 q88 0 149.5 47t78.5 123h-232zM2154.5 823q-45.5 0 -79 33t-33.5 80q0 45 32.5 78t79.5 33q45 0 78 -32t33 -79t-32.5 -80t-78 -33zM2437 823q-45 0 -79 33t-34 80q0 45 33 78t80 33q45 0 78 -32t33 -79t-33 -80t-78 -33zM2613 1047h172v-43h-61v-175h-51v175h-60v43z M3047 1047v-218h-51v187l-30 -187h-72l-29 187v-187h-51v218h90l25 -181l28 181h90zM479 1036q219 0 345 -129t126 -381t-126 -381t-345 -129h-397v1020h397zM479 203q27 0 57.5 8t79 35.5t79 99.5t30.5 180q0 86 -22.5 150.5t-51 96.5t-68.5 50.5t-61.5 22.5t-42.5 4h-135 q-33 2 -64.5 14.5t-46.5 24.5l-16 10l-16 -16q33 -31 61 -62q23 -18 34 -47t11 -49v-18v-363q0 -33 -11 -61.5t-22 -40.5l-12 -13l-61 -61l16 -14q6 6 19.5 14t50.5 21.5t73 13.5h119zM2294 618q59 109 254 82v-182q-250 20 -250 -215v-287h-221v527q0 96 -15 157h224 q6 -41 8 -82z" glyph-name="glyph447" horiz-adv-x="3129"/><glyph d="M416 582v-131h-328v1345h328v-131h-168v-1083h168z" glyph-name="bracketleft.aalt" horiz-adv-x="425"/><glyph d="M0 582h168v1083h-168v131h328v-1345h-328v131z" glyph-name="bracketright.aalt" horiz-adv-x="415"/><glyph d="M776 809h717v-178q0 -279 -187.5 -467.5t-500.5 -188.5q-328 0 -526.5 210t-198.5 558q0 352 199.5 564.5t529.5 212.5q229 0 401 -107.5t252 -298.5l-250 -94q-55 123 -160.5 186.5t-242.5 63.5q-209 0 -336 -140.5t-127 -386.5q0 -242 126 -380t335 -138 q168 0 282.5 92.5t133.5 266.5h-447v225z" glyph-name="G.aalt" horiz-adv-x="1605"/><glyph d="M236 1141q-61 0 -104.5 43t-43.5 104.5t44 105.5t103.5 44t103.5 -45t44 -104.5t-44 -103.5t-103 -44zM115 1010h241v-1010h-241v1010z" glyph-name="i.locl" horiz-adv-x="471"/><glyph d="M1155 0h-242q-12 66 -14 131q-49 -76 -138 -117t-200 -41q-221 0 -354 143.5t-137 372.5q-4 246 131 398.5t366 152.5q233 0 336 -151l10 121h224v-772q0 -150 18 -238zM600 195q121 0 204 86t83 227q0 143 -82 228t-205 85t-204 -85t-81 -228q0 -141 82 -227t203 -86z " glyph-name="a.aalt" horiz-adv-x="1290"/><glyph d="M922 1010h217v-973q0 -252 -142.5 -391.5t-382.5 -139.5q-195 0 -326.5 92.5t-189.5 251.5l215 80q27 -96 110 -150t198 -54q137 0 208.5 78.5t71.5 215.5v146q-102 -145 -340 -146q-221 0 -354 141.5t-133 366.5q0 227 135 370.5t358 143.5q242 0 342 -155zM602 231 q127 0 209 86t82 215.5t-80 213t-211 83.5q-129 0 -206 -82.5t-77 -214t78 -216.5t205 -85z" glyph-name="g.aalt" horiz-adv-x="1269"/><glyph d="M653 211l31 -211q-221 -53 -360.5 20.5t-139.5 290.5v494h-155v205h155v315h240v-315h233v-205h-233v-451q0 -221 229 -143z" glyph-name="t.aalt" horiz-adv-x="763"/><glyph d="M276 1513l173 -170l-173 -172l-172 172zM154 1010h243v-1010h-243v1010z" glyph-name="i.ss04" horiz-adv-x="552"/><glyph d="M1329 524v-241h-190v-283h-238v283l-795 2v239h795v713l-510 -713h-285l693 971h286h54v-971h190z" glyph-name="four.ss03" horiz-adv-x="1380"/><glyph d="M90 745q0 346 179.5 561.5t469.5 215.5q301 2 476.5 -213t175.5 -566q0 -346 -177.5 -558t-472.5 -212q-303 0 -477 211t-174 561zM340 745q0 -262 107.5 -403t291.5 -143q184 0 293 142t109 404q0 264 -107.5 407.5t-292.5 141.5q-184 0 -292.5 -142.5t-108.5 -406.5z " glyph-name="zero.tnum" horiz-adv-x="1474"/><glyph d="M756 213h299v-213h-547h-315v213h315v1026l-275 -147v243l275 160h248v-1282z" glyph-name="one.tnum" horiz-adv-x="1161"/><glyph d="M883 573l-394 -344h617v-225l-965 -4v244l578 506q166 143 166 282q0 123 -75 193.5t-187 70.5q-117 0 -191 -74.5t-74 -199.5h-252q0 231 143.5 366.5t375.5 135.5q240 0 376 -140.5t136 -351.5q0 -143 -64.5 -245.5t-189.5 -213.5z" glyph-name="two.tnum" horiz-adv-x="1243"/><glyph d="M741 946q170 -39 277.5 -164t107.5 -311q0 -223 -151.5 -360.5t-374.5 -137.5t-373.5 136.5t-150.5 365.5h250q0 -123 77.5 -198.5t200.5 -75.5q119 0 194.5 74.5t75.5 195.5q0 113 -70.5 187.5t-197.5 80.5q-70 4 -114 4h-109v166l377 361h-615v225h947v-217z" glyph-name="three.tnum" horiz-adv-x="1239"/><glyph d="M1227 508v-225h-187v-283h-241v283l-713 2v225l610 985h287l-614 -985h430v401h241v-403h187z" glyph-name="four.tnum" horiz-adv-x="1314"/><glyph d="M715 1022q231 0 368.5 -148.5t137.5 -369.5q0 -233 -155 -381t-398 -148q-240 0 -394.5 146.5t-154.5 376.5h252q0 -133 84 -214t217 -81q123 0 209 84t86 219q0 137 -83 221t-212 84q-176 0 -275 -131l-233 33l190 782h764v-244h-569l-80 -293q105 64 246 64z" glyph-name="five.tnum" horiz-adv-x="1314"/><glyph d="M731 1034q229 -2 380 -142t151 -372q0 -236 -155 -391.5t-396 -155.5q-158 0 -279 61.5t-192.5 168t-107.5 241t-36 287.5q0 162 40 301t119 251t211 175.5t304 63.5q283 0 453 -166l-150 -176q-139 111 -317 110q-188 0 -299 -127t-115 -325q53 94 156.5 145t232.5 51z M702.5 201q131.5 0 220.5 84t89 229q0 141 -88 225t-219.5 86t-220.5 -84t-89 -227q0 -145 88 -229t219.5 -84z" glyph-name="six.tnum" horiz-adv-x="1353"/><glyph d="M76 1493h1030v-250q-131 -102 -232.5 -229t-158 -257t-92 -240.5t-48 -228.5t-15.5 -168t-3 -110v-10h-248q0 674 379 1126q51 61 109 117h-721v250z" glyph-name="seven.tnum" horiz-adv-x="1196"/><glyph d="M911 797q133 -41 206 -148.5t73 -240.5q0 -197 -151.5 -315t-389 -118t-388 118t-150.5 315q0 133 72.5 239.5t201.5 149.5q-98 43 -152.5 129t-54.5 196q0 186 134 293t339 107t339 -106.5t132 -293.5q-2 -113 -57.5 -199.5t-153.5 -125.5zM649.5 1305 q-112.5 0 -184.5 -55.5t-70 -153.5q2 -88 69.5 -145.5t184.5 -57.5q115 0 183.5 56.5t68.5 146.5q0 98 -69.5 153.5t-182 55.5zM651 201q125 0 207 63.5t82 175.5q0 111 -82 173.5t-209 62.5q-125 0 -207 -61.5t-82 -172.5q0 -115 82 -178t209 -63z" glyph-name="eight.tnum" horiz-adv-x="1302"/><glyph d="M653 1522q158 0 279 -61.5t192.5 -168t107.5 -239.5t36 -287q0 -162 -39 -302t-118 -251t-211 -175.5t-304 -64.5q-283 0 -455 168l152 176q137 -111 315 -110q190 0 300 126t116 326q-55 -94 -158.5 -146t-232.5 -50q-229 0 -380 141t-151 371q0 236 155.5 391.5 t395.5 155.5zM659.5 672q131.5 -2 220.5 84t89 227q0 145 -89 230t-218.5 85t-218.5 -85t-89 -230q0 -141 87 -225t218.5 -86z" glyph-name="nine.tnum" horiz-adv-x="1372"/><glyph d="M727 360q0 -174 -87 -279.5t-234 -107.5q-150 -2 -240 103.5t-90 283.5q0 176 88 283t235 107q147 2 237.5 -105t90.5 -285zM401 127q80 2 126 64.5t46 168.5q0 102 -42 164t-115 68l-15 2q-2 0 -5 -1t-5 -1q-74 -4 -118 -65.5t-44 -166.5q0 -106 47 -168.5t125 -64.5z " glyph-name="zero.dnom" horiz-adv-x="802"/><glyph d="M76 537v149l151 66v-158zM227 752h152v-752h-152v752z" glyph-name="one.dnom" horiz-adv-x="454"/><glyph d="M90 -2v152l272 231q47 39 65.5 63.5t21.5 57.5q2 51 -29 81.5t-84 30.5q-57 -2 -88 -36.5t-23 -96.5h-149q-10 119 66.5 200t203.5 79q117 0 186.5 -69.5t69.5 -180.5q0 -123 -133 -234l-156 -129l279 3v-150z" glyph-name="two.dnom" horiz-adv-x="677"/><glyph d="M449 492q74 -29 120.5 -93.5t46.5 -148.5q0 -113 -78.5 -188.5t-195.5 -75.5q-121 0 -198.5 82t-67.5 200h151q-10 -55 22 -94t93 -39q51 0 86 32t35 85q0 72 -61.5 101.5t-125.5 -3.5l-59 117v2l133 135h-246v150h480v-131z" glyph-name="three.dnom" horiz-adv-x="690"/><glyph d="M680 279v-154h-96v-139h-154v141h-354v152l354 475h154v-475h96zM264 279h166v227z" glyph-name="four.dnom" horiz-adv-x="755"/><glyph d="M76 264h151q-6 -57 29 -96t92 -39q53 0 90 34t39 85q2 61 -34.5 99t-98.5 38q-35 0 -65.5 -16.5t-40.5 -38.5l-144 37l96 387h414v-154h-293l-22 -84q37 10 69 10q119 0 195 -78.5t76 -199.5q0 -113 -82 -193t-199 -80q-121 0 -200.5 84t-71.5 205z" glyph-name="five.dnom" horiz-adv-x="704"/><glyph d="M395 539q115 0 186.5 -81t71.5 -194q0 -117 -77.5 -200.5t-206.5 -83.5q-141 0 -215 102t-78 260q-6 178 79 298t248 120q172 -2 259 -127l-117 -82q-49 63 -142 63q-135 0 -172 -139q55 64 164 64zM365 117q53 0 91 35.5t38 99.5q0 61 -37 99t-92.5 38t-91 -38 t-35.5 -101.5t36 -98t91 -34.5z" glyph-name="six.dnom" horiz-adv-x="737"/><glyph d="M76 754h547v-158q-276 -203 -277 -596h-158q0 365 230 596h-342v158z" glyph-name="seven.dnom" horiz-adv-x="698"/><glyph d="M346 -23q-123 0 -196.5 69t-73.5 159q0 121 100 184q-82 63 -78 158q2 84 71 147.5t177 63.5q106 0 174 -61.5t72 -145.5q6 -98 -78 -162q45 -29 73.5 -78t28.5 -102q0 -92 -73.5 -162t-196.5 -70zM346 457q49 0 78 23.5t29 56.5q0 31 -28 54t-79 23t-79.5 -23.5 t-26.5 -53.5q0 -33 27.5 -56.5t78.5 -23.5zM346 119q57 0 90 27.5t35 68.5q2 39 -30.5 68.5t-94 29.5t-94.5 -28.5t-31 -69.5q0 -41 33 -68.5t92 -27.5z" glyph-name="eight.dnom" horiz-adv-x="690"/><glyph d="M76 487q4 119 85 197t195 76q98 -2 171 -61.5t94 -157.5q31 -102 25.5 -203.5t-36 -181.5t-100.5 -130.5t-166 -52.5q-168 0 -262 148l121 74q49 -82 143 -78q57 4 101.5 46t52.5 118q-23 -37 -69 -58.5t-95 -21.5q-109 2 -188.5 78.5t-71.5 207.5zM219 479 q2 -63 36 -100t85 -41q61 -4 103 36t40 109q-4 53 -36.5 92t-86.5 43q-55 4 -98 -36t-43 -103z" glyph-name="nine.dnom" horiz-adv-x="722"/><glyph d="M733 1090q0 -174 -88 -282t-233 -110q-154 -2 -245 105.5t-91 286.5q0 176 89 284.5t236 106.5q150 4 241 -104.5t91 -286.5zM406 854q78 2 123.5 65.5t45.5 170.5q0 104 -43 166.5t-116 66.5h-13h-16q-72 -6 -114 -68.5t-42 -164.5q0 -109 46.5 -171.5t128.5 -64.5z" glyph-name="zero.numr" horiz-adv-x="806"/><glyph d="M76 1237v149l151 68v-158zM227 1454h152v-752h-152v752z" glyph-name="one.numr" horiz-adv-x="454"/><glyph d="M90 698v150l272 231q49 43 66.5 66.5t20.5 56.5q2 51 -29 81t-84 30q-57 0 -88 -35t-23 -96h-149q-10 119 67.5 198.5t204.5 79.5q115 -2 184.5 -71.5t69.5 -178.5q0 -123 -133 -235l-156 -129l279 2v-150h-502z" glyph-name="two.numr" horiz-adv-x="677"/><glyph d="M545 1116q57 -72 57 -166q0 -111 -76.5 -185.5t-187.5 -74.5q-117 0 -194.5 82t-67.5 197h149q-10 -55 24 -93t89 -38q47 0 81 32.5t34 79.5q0 61 -41 92q-59 49 -138 11l-61 116h2l129 134h-240v151h471v-131l-131 -131q68 -33 101 -76z" glyph-name="three.numr" horiz-adv-x="677"/><glyph d="M670 987v-149h-95v-138h-151v140h-348v147l348 467h151v-467h95zM260 987h164v223z" glyph-name="four.numr" horiz-adv-x="743"/><glyph d="M76 977h149q-6 -55 28 -94t91 -39q51 0 87 33.5t38 83.5q2 59 -35 97t-96 38q-33 0 -62.5 -16.5t-39.5 -39.5l-140 35l94 379h402v-149h-285l-22 -82q27 8 69 8q113 0 187.5 -77t74.5 -193q0 -109 -79.5 -188t-192.5 -79q-119 0 -196.5 83t-71.5 200z" glyph-name="five.numr" horiz-adv-x="692"/><glyph d="M395 1243q115 0 186.5 -80t71.5 -190q0 -119 -77.5 -202t-206.5 -83q-141 0 -215 101.5t-78 259.5q-6 178 80 297.5t247 117.5q176 -2 256 -127l-114 -80q-51 63 -142 64q-133 0 -172 -139q55 61 164 61zM365 825q53 0 91 36t38 97.5t-37 99.5t-92.5 38t-91 -38 t-35.5 -100q0 -63 36 -98t91 -35z" glyph-name="six.numr" horiz-adv-x="735"/><glyph d="M76 1454h545v-158q-274 -199 -275 -594h-158q0 365 230 594h-342v158z" glyph-name="seven.numr" horiz-adv-x="696"/><glyph d="M344 688q-123 0 -195.5 68.5t-72.5 161.5q0 115 100 180q-74 59 -78 145q-4 88 65.5 154.5t182.5 66.5q109 0 176.5 -64.5t69.5 -148.5q-4 -92 -80 -153q45 -29 72.5 -77t27.5 -101q0 -92 -71.5 -161t-196.5 -71zM344 1165q51 2 80 27t25 57q0 31 -29 53.5t-76 22.5 q-49 0 -76.5 -23.5t-29.5 -56.5q0 -31 28.5 -55.5t77.5 -24.5zM344 829q59 0 92 30t31 71q-2 39 -34 65.5t-89 26.5t-90 -27.5t-33 -66.5t33 -69t90 -30z" glyph-name="eight.numr" horiz-adv-x="686"/><glyph d="M76 1194q4 117 84 193.5t192 72.5q96 0 167 -58.5t93 -154.5q31 -141 18.5 -265t-90 -207t-204.5 -83q-168 0 -252 146l119 69q47 -76 139 -71q57 4 99 44t53 111q-23 -37 -69 -56.5t-93 -19.5q-104 0 -183 75t-73 204zM219 1186q0 -59 34 -96t83 -41q59 -4 100 34.5 t41 106.5q-4 53 -35.5 91t-85.5 42q-55 2 -97 -37t-40 -100z" glyph-name="nine.numr" horiz-adv-x="712"/><glyph d="M547 1481q190 0 325.5 -135.5t135.5 -325.5q0 -193 -135.5 -328t-325.5 -135q-195 0 -330 135t-135 328q0 190 136 325.5t329 135.5zM547 651q154 0 261 106.5t107 262.5t-107.5 262.5t-260.5 106.5q-156 0 -263.5 -106.5t-107.5 -262.5q0 -158 105.5 -263.5 t265.5 -105.5zM705 1092q-4 -78 -68 -107l76 -172h-103l-67 158h-45v-158h-90v414h90h49q152 6 158 -115v-8v-12zM498 1141v-90h71q37 2 37 41q0 2 2 4v8q-2 37 -61 37h-49z" glyph-name="registered.aalt" horiz-adv-x="1089"/><glyph d="M1235 285q14 -16 26.5 -28.5t27 -21t22.5 -12.5t28.5 -6t26.5 -3t33.5 -1h38.5v-213q-147 0 -216 21.5t-135 101.5q-168 -141 -430 -146q-250 -2 -398 117t-148 324q0 162 88 271.5t250 211.5q-139 172 -140 301q0 133 97.5 226.5t250.5 93.5q147 0 239.5 -86t92.5 -222 q0 -174 -231 -344l307 -376q35 100 27 213h215q6 -236 -82 -408zM659.5 1323q-55.5 0 -90 -33t-34.5 -88q0 -57 102 -182q145 98 145 182q0 55 -33.5 88t-89 33zM645 188q176 4 295 113l-367 449q-115 -76 -175 -148t-60 -168q0 -121 92 -183.5t215 -62.5z" glyph-name="ampersand.aalt" horiz-adv-x="1478"/><glyph d="M1055 1532q360 0 584.5 -227.5t207.5 -561.5q-12 -225 -130 -374.5t-290 -149.5q-96 0 -163.5 48t-83.5 126q-35 -68 -117 -112.5t-182 -44.5q-129 0 -211 72.5t-84 191.5q-2 131 90 211t248 80h264q18 111 -22 173t-158 60q-176 0 -258 -162l-109 41q55 121 153.5 177.5 t213.5 56.5q164 0 247.5 -95.5t61.5 -265.5l-37 -266q-10 -86 29 -139.5t116 -53.5q125 0 207 124t92 298q16 289 -177 485.5t-492 196.5q-319 0 -558 -221t-266 -532q-27 -319 183.5 -542.5t548.5 -223.5q332 0 577 211l70 -88q-135 -113 -311.5 -172.5t-356.5 -59.5 q-391 0 -627.5 254t-208.5 621q27 362 297.5 613t651.5 251zM899 350q252 0 279 332h-207q-250 0 -258 -174q-2 -80 50 -119t136 -39z" glyph-name="at.aalt" horiz-adv-x="1949"/></font>
</defs>
</svg>
